<svg width="36" height="46" viewBox="0 0 36 46" fill="none" xmlns="http://www.w3.org/2000/svg">
<path fill-rule="evenodd" clip-rule="evenodd" d="M17.6446 46C23.402 36.0878 36.8755 26.7691 35.0356 14.4232C33.4925 6.23217 26.3104 0 17.6446 0C9.03811 0 1.85632 6.23217 0.312923 14.4232C-1.58633 27.0065 10.5815 33.7135 17.6446 46ZM20.4937 33.4761C20.4937 31.8736 19.2473 30.6269 17.6446 30.6269C16.0418 30.6269 14.7955 31.8733 14.7955 33.4761C14.7955 35.0785 16.0418 36.3252 17.6446 36.3252C19.2473 36.3252 20.4937 35.0788 20.4937 33.4761ZM17.6446 4.39227C24.0548 4.39227 29.278 9.61546 29.278 16.0257C29.278 22.4359 24.0548 27.6591 17.6446 27.6591C11.2344 27.6591 6.01118 22.4359 6.01118 16.0257C6.01118 9.61546 11.2344 4.39227 17.6446 4.39227Z" fill="#D71E46"/>
<path d="M11.9466 10.2686H23.3426H23.58V10.5653V11.5149V11.8117H23.3426H11.9466H11.7686V11.5149V10.5653V10.2686H11.9466ZM23.1052 10.8621H12.184V11.2182H23.1052V10.8621Z" fill="#D71E46"/>
<path d="M11.9466 20.2993H23.3426H23.58V20.5961V21.5457V21.8425H23.3426H11.9466H11.7686V21.5457V20.5961V20.2993H11.9466ZM23.1052 20.8931H12.184V21.3086H23.1052V20.8931Z" fill="#D71E46"/>
<path d="M17.8229 6.76665L20.2566 8.07239L22.7493 9.43747L23.4615 9.85293H22.5713H17.6448H12.7184H11.8281L12.5403 9.43747L15.0331 8.07239L17.4668 6.76665L17.6448 6.64795L17.8229 6.76665Z" fill="#D71E46"/>
<path fill-rule="evenodd" clip-rule="evenodd" d="M12.125 24.3355V22.4956H12.5998V23.2078H13.134V22.4956H13.6088V24.3355H13.134V23.6233H12.5998V24.3355H12.125ZM14.6771 23.8013C14.6178 23.6826 14.6178 23.5639 14.6178 23.4452C14.6178 23.2672 14.6178 23.1485 14.6771 23.0298C14.7365 22.9111 14.7365 22.8517 14.7958 22.7924C14.8552 22.733 14.9145 22.6737 15.0332 22.6143C15.0926 22.555 15.1519 22.555 15.2113 22.4956C15.33 22.4956 15.3893 22.4956 15.4487 22.4956C15.5674 22.4956 15.6267 22.4956 15.6861 22.4956C15.8048 22.555 15.8641 22.555 15.9235 22.6143C16.0422 22.6737 16.1016 22.733 16.1609 22.7924C16.2203 22.8517 16.2203 22.9111 16.2796 23.0298C16.2796 23.1485 16.339 23.2672 16.339 23.4452C16.339 23.5639 16.2796 23.6826 16.2796 23.8013C16.2203 23.92 16.2203 24.0387 16.1609 24.0981C16.1016 24.1574 16.0422 24.2168 15.9235 24.2168C15.8641 24.2761 15.8048 24.3355 15.6861 24.3355C15.6267 24.3355 15.5674 24.3355 15.4487 24.3355C15.3893 24.3355 15.33 24.3355 15.2113 24.3355C15.1519 24.3355 15.0926 24.2761 15.0332 24.2168C14.9145 24.2168 14.8552 24.1574 14.7958 24.0981C14.7365 24.0387 14.7365 23.92 14.6771 23.8013ZM15.2115 23.0298C15.1522 23.0891 15.0928 23.2078 15.0928 23.4452C15.0928 23.6233 15.1522 23.742 15.2115 23.8607C15.2709 23.92 15.3896 23.92 15.4489 23.92C15.5676 23.92 15.6863 23.92 15.7457 23.8607C15.8051 23.742 15.8644 23.6233 15.8644 23.4452C15.8644 23.2078 15.8051 23.0891 15.7457 23.0298C15.6863 22.9111 15.5676 22.9111 15.4489 22.9111C15.3896 22.9111 15.2709 22.9111 15.2115 23.0298ZM17.1701 22.9111V22.4956H18.6539V22.9111H18.1791V24.3355H17.7043V22.9111H17.1701ZM19.6036 24.3355V22.4956H20.9093V22.9111H20.0784V23.2078H20.7906V23.6233H20.0784V23.9794H20.9093V24.3355H19.6036ZM21.9185 24.3355V22.4956H22.3933V23.92H23.1649V24.3355H21.9185Z" fill="#D71E46"/>
<path d="M23.4021 12.3462H22.8086V19.5876H23.4021V12.3462Z" fill="#D71E46"/>
<path d="M12.4216 12.3462H11.8281V19.5876H12.4216V12.3462Z" fill="#D71E46"/>
<path d="M16.9329 12.8208H14.0244V15.7293H16.9329V12.8208Z" fill="#D71E46"/>
<path d="M21.2651 12.8208H18.416V15.7293H21.2651V12.8208Z" fill="#D71E46"/>
<path d="M21.2651 16.2041H18.416V19.1126H21.2651V16.2041Z" fill="#D71E46"/>
<path d="M16.9329 16.2041H14.0244V19.1126H16.9329V16.2041Z" fill="#D71E46"/>
</svg>
