<svg width="842" height="874" viewBox="0 0 842 874" fill="none" xmlns="http://www.w3.org/2000/svg">
<g clip-path="url(#clip0_3_6609)">
<path d="M188.42 125.36C197.51 121.55 203.98 112.17 204.03 101.12C204.09 86.65 193.14 74.87 179.57 74.8C166.01 74.74 154.96 86.42 154.9 100.89C154.85 112.04 161.37 121.53 170.56 125.35C132.75 131.05 134.47 172.14 134.47 172.14L223.88 172.55C223.86 172.56 225.9 131.02 188.42 125.36Z" fill="#F5F5F5"/>
<path d="M762.34 359.73L772.61 354.94L775.96 363L765.2 367.54L774.19 373.98L769.07 380.88L760.17 374.16L759.03 385.83L750.39 384.89L751.99 373.67L741.65 378.41L738.24 370.42L749.08 365.94L740.07 359.37L745.19 352.47L754.04 359.26L755.18 347.59L763.87 348.46L762.34 359.73Z" fill="#E1E1E1"/>
<path d="M787.06 326.4L797.33 321.61L800.68 329.67L789.92 334.21L798.91 340.65L793.79 347.55L784.89 340.83L783.75 352.5L775.11 351.56L776.71 340.34L766.37 345.08L762.96 337.09L773.8 332.61L764.79 326.04L769.91 319.14L778.76 325.93L779.9 314.26L788.59 315.13L787.06 326.4Z" fill="#E1E1E1"/>
<path d="M811.78 293.07L822.05 288.28L825.4 296.34L814.64 300.88L823.63 307.32L818.51 314.22L809.61 307.5L808.47 319.17L799.83 318.23L801.43 307.01L791.09 311.75L787.68 303.76L798.52 299.28L789.51 292.71L794.63 285.81L803.48 292.6L804.62 280.93L813.31 281.8L811.78 293.07Z" fill="#E1E1E1"/>
<path d="M409.82 805.44V866.7H499.4H598.21V805.44H409.82Z" fill="#F5F5F5"/>
<path d="M401.91 788.32V805.44H604.8V788.32H499.4H401.91Z" fill="#ECECEC"/>
<path d="M503.36 866.7H598.21V805.44H604.8V788.32H499.4V803.86L503.36 866.7Z" fill="#ECECEC"/>
<path d="M474.37 815.32H436.17V824.54H474.37V815.32Z" fill="#E1E1E1"/>
<path d="M480.31 836.07H431.25V855.54H480.31V836.07Z" fill="white"/>
<path d="M438.8 727.14V788.4H528.39H627.19V727.14H438.8Z" fill="#F5F5F5"/>
<path d="M430.9 710.01V727.14H633.78V710.01H528.39H430.9Z" fill="#ECECEC"/>
<path d="M532.34 788.4H627.19V727.14H633.78V710.01H528.39V725.55L532.34 788.4Z" fill="#ECECEC"/>
<path d="M503.36 737.02H465.15V746.24H503.36V737.02Z" fill="#E1E1E1"/>
<path d="M509.29 757.77H460.23V777.24H509.29V757.77Z" fill="white"/>
<path d="M844.35 867.17C844.35 867.45 655.32 867.68 422.2 867.68C188.99 867.69 0 867.46 0 867.17C0 866.89 188.99 866.66 422.19 866.66C655.32 866.66 844.35 866.89 844.35 867.17Z" fill="#1A2E35"/>
<path d="M670.09 387.16H317.79C310.64 387.16 304.85 381.37 304.85 374.22V50.1C304.85 42.95 310.64 37.16 317.79 37.16H670.08C677.23 37.16 683.02 42.95 683.02 50.1V374.22C683.02 381.36 677.23 387.16 670.09 387.16Z" fill="white"/>
<path d="M670.09 387.16C670.09 387.16 670.4 387.13 671.02 387.09C671.63 387.05 672.56 386.92 673.73 386.58C674.89 386.22 676.31 385.62 677.75 384.54C679.18 383.46 680.67 381.9 681.67 379.74C682.79 377.61 683.01 374.91 682.9 371.97C682.89 369.02 682.88 365.8 682.88 362.31C682.87 355.32 682.85 347.27 682.83 338.2C682.79 301.9 682.74 249.4 682.67 184.53C682.65 152.09 682.63 116.56 682.61 78.41C682.59 68.88 682.57 59.19 682.56 49.35C682.33 44.57 679.04 40.08 674.46 38.43C672.2 37.49 669.72 37.64 667.18 37.63C664.66 37.63 662.13 37.63 659.59 37.63C639.27 37.64 618.36 37.64 596.91 37.65C511.13 37.66 416.82 37.68 317.83 37.69C314.85 37.69 311.9 38.78 309.67 40.73C307.41 42.66 305.91 45.42 305.51 48.35C305.31 49.79 305.39 51.34 305.37 52.88V57.48C305.37 60.55 305.37 63.61 305.37 66.66C305.37 78.88 305.37 91.03 305.37 103.08C305.37 127.19 305.36 150.94 305.36 174.29C305.35 220.97 305.34 266 305.33 308.9C305.32 330.35 305.32 351.26 305.31 371.58C305.32 372.84 305.28 374.14 305.37 375.34C305.5 376.55 305.75 377.76 306.22 378.88C307.13 381.14 308.71 383.1 310.7 384.49C312.69 385.86 315.06 386.65 317.47 386.7C319.95 386.71 322.42 386.71 324.88 386.72C334.74 386.72 344.44 386.73 353.97 386.73C392.12 386.75 427.65 386.77 460.09 386.79C524.96 386.86 577.46 386.91 613.75 386.95C631.88 386.99 645.96 387.02 655.53 387.05C660.3 387.07 663.93 387.09 666.39 387.1C668.83 387.12 670.09 387.16 670.09 387.16C670.09 387.16 668.84 387.2 666.39 387.21C663.93 387.22 660.29 387.24 655.53 387.26C645.97 387.28 631.88 387.31 613.75 387.36C577.46 387.4 524.96 387.45 460.09 387.52C427.65 387.54 392.12 387.56 353.97 387.58C344.43 387.58 334.73 387.59 324.88 387.59C322.41 387.59 319.93 387.58 317.45 387.58C314.88 387.52 312.33 386.69 310.2 385.22C308.07 383.74 306.38 381.64 305.4 379.22C304.9 378.01 304.63 376.72 304.48 375.42C304.38 374.09 304.43 372.86 304.42 371.58C304.41 351.26 304.41 330.34 304.4 308.9C304.39 266 304.38 220.97 304.37 174.29C304.37 150.95 304.36 127.19 304.36 103.08C304.36 91.03 304.36 78.88 304.36 66.66C304.36 63.6 304.36 60.54 304.36 57.48V52.88C304.38 51.35 304.29 49.81 304.51 48.21C304.94 45.04 306.57 42.04 309.01 39.96C311.43 37.85 314.63 36.67 317.85 36.67C416.84 36.68 511.14 36.7 596.93 36.71C618.37 36.72 639.29 36.72 659.61 36.73C662.15 36.73 664.68 36.73 667.2 36.73C669.67 36.74 672.36 36.58 674.79 37.59C679.69 39.36 683.21 44.18 683.45 49.29C683.46 59.15 683.47 68.86 683.48 78.41C683.46 116.55 683.44 152.09 683.42 184.53C683.35 249.4 683.3 301.9 683.26 338.2C683.24 347.27 683.23 355.33 683.21 362.31C683.2 365.8 683.19 369.02 683.19 371.97C683.29 374.89 683.04 377.69 681.89 379.83C680.86 382.02 679.34 383.59 677.88 384.67C676.41 385.76 674.97 386.34 673.79 386.69C672.6 387.01 671.68 387.13 671.06 387.15C670.4 387.16 670.09 387.16 670.09 387.16Z" fill="#1A2E35"/>
<path d="M333.39 61.42C333.39 65.03 330.46 67.96 326.85 67.96C323.24 67.96 320.31 65.03 320.31 61.42C320.31 57.81 323.24 54.88 326.85 54.88C330.47 54.88 333.39 57.81 333.39 61.42Z" fill="#1A2E35"/>
<path d="M345.95 67.96C349.562 67.96 352.49 65.0319 352.49 61.42C352.49 57.8081 349.562 54.88 345.95 54.88C342.338 54.88 339.41 57.8081 339.41 61.42C339.41 65.0319 342.338 67.96 345.95 67.96Z" fill="#1A2E35"/>
<path d="M365.05 67.96C368.662 67.96 371.59 65.0319 371.59 61.42C371.59 57.8081 368.662 54.88 365.05 54.88C361.438 54.88 358.51 57.8081 358.51 61.42C358.51 65.0319 361.438 67.96 365.05 67.96Z" fill="#1A2E35"/>
<path d="M683.02 79.97C683.02 80.25 598.36 80.48 493.94 80.48C389.49 80.48 304.85 80.25 304.85 79.97C304.85 79.69 389.49 79.46 493.94 79.46C598.36 79.45 683.02 79.68 683.02 79.97Z" fill="#1A2E35"/>
<path d="M547.36 211.81C547.36 211.81 547.51 211.6 547.81 211.2C547.89 211.1 547.97 210.99 548.06 210.87C548.15 210.74 548.22 210.59 548.32 210.43C548.5 210.11 548.73 209.74 548.89 209.28C548.98 209.05 549.09 208.82 549.18 208.56C549.25 208.3 549.33 208.02 549.41 207.73C549.5 207.44 549.55 207.13 549.6 206.81C549.64 206.48 549.73 206.15 549.74 205.79C549.89 204.37 549.8 202.71 549.52 200.88C548.95 197.21 547.4 192.89 545.02 188.19C542.64 183.48 539.37 178.42 535.34 173.14C531.32 167.86 526.48 162.41 520.91 156.93C515.34 151.46 509.04 145.97 501.97 140.76C498.43 138.16 494.71 135.64 490.77 133.27C486.84 130.89 482.7 128.67 478.33 126.75C473.96 124.85 469.35 123.2 464.49 122.41C462.07 122.04 459.57 121.86 457.11 122.23C455.88 122.42 454.68 122.75 453.55 123.26C452.43 123.8 451.41 124.53 450.56 125.45C449.74 126.4 449.14 127.5 448.72 128.67C448.34 129.86 448.14 131.09 448.1 132.33C448.01 134.81 448.47 137.28 449.12 139.64C450.45 144.38 452.62 148.77 455 152.9C457.41 157.02 460.08 160.88 462.89 164.52C465.7 168.16 468.63 171.58 471.61 174.79C477.59 181.22 483.76 186.86 489.83 191.77C495.9 196.67 501.87 200.86 507.57 204.26C513.27 207.66 518.67 210.33 523.62 212.16C528.56 213.99 533.03 215.05 536.74 215.19C538.59 215.26 540.25 215.17 541.64 214.85C541.99 214.8 542.32 214.67 542.63 214.59C542.95 214.5 543.25 214.42 543.53 214.29C543.81 214.18 544.07 214.07 544.33 213.97C544.57 213.85 544.8 213.72 545.01 213.6C545.45 213.39 545.79 213.12 546.09 212.9C546.24 212.79 546.38 212.69 546.5 212.59C546.61 212.48 546.71 212.39 546.8 212.3C547.17 211.98 547.36 211.81 547.36 211.81C547.36 211.81 547.18 212 546.83 212.35C546.74 212.44 546.64 212.54 546.53 212.65C546.41 212.75 546.27 212.85 546.12 212.96C545.82 213.18 545.49 213.46 545.05 213.68C544.84 213.8 544.61 213.93 544.37 214.06C544.12 214.16 543.85 214.27 543.57 214.39C543.29 214.52 542.99 214.61 542.67 214.69C542.35 214.77 542.03 214.9 541.67 214.95C540.27 215.27 538.61 215.38 536.75 215.31C533.02 215.18 528.54 214.14 523.58 212.32C518.62 210.5 513.2 207.83 507.48 204.44C501.76 201.05 495.78 196.86 489.69 191.96C483.61 187.05 477.42 181.41 471.43 174.98C468.44 171.76 465.5 168.34 462.69 164.69C459.87 161.05 457.19 157.18 454.77 153.05C452.38 148.91 450.2 144.5 448.85 139.73C448.2 137.35 447.73 134.86 447.82 132.33C447.87 131.07 448.07 129.81 448.46 128.59C448.89 127.39 449.51 126.25 450.36 125.27C451.24 124.32 452.3 123.57 453.45 123.01C454.62 122.49 455.85 122.15 457.09 121.95C459.59 121.57 462.12 121.76 464.56 122.13C469.46 122.92 474.08 124.59 478.47 126.49C482.85 128.42 487 130.65 490.94 133.03C494.88 135.41 498.61 137.94 502.15 140.55C509.22 145.77 515.53 151.28 521.1 156.76C526.66 162.25 531.5 167.72 535.52 173.01C539.54 178.3 542.81 183.38 545.18 188.11C547.55 192.82 549.1 197.16 549.65 200.85C549.93 202.69 550.01 204.35 549.85 205.78C549.84 206.14 549.75 206.48 549.7 206.8C549.65 207.13 549.6 207.44 549.5 207.73C549.42 208.02 549.34 208.3 549.26 208.56C549.17 208.82 549.06 209.05 548.96 209.28C548.79 209.74 548.56 210.11 548.37 210.43C548.27 210.59 548.19 210.74 548.11 210.87C548.01 210.99 547.93 211.1 547.85 211.2C547.52 211.62 547.36 211.81 547.36 211.81Z" fill="#E63430"/>
<path d="M565.26 168.6C565.26 168.6 565.23 168.34 565.19 167.84C565.18 167.71 565.17 167.58 565.16 167.42C565.14 167.27 565.09 167.1 565.06 166.92C564.98 166.56 564.91 166.13 564.72 165.68C564.64 165.45 564.56 165.2 564.46 164.95C564.34 164.71 564.21 164.45 564.08 164.18C563.96 163.9 563.79 163.64 563.61 163.36C563.42 163.09 563.27 162.78 563.04 162.51C562.21 161.35 561.04 160.17 559.61 159C556.74 156.64 552.71 154.45 547.8 152.53C542.89 150.6 537.08 149 530.56 147.74C524.04 146.48 516.8 145.63 509.01 145.25C501.21 144.88 492.85 144.97 484.11 145.79C479.74 146.2 475.28 146.81 470.77 147.65C466.26 148.49 461.69 149.59 457.15 151.06C452.63 152.55 448.09 154.38 443.94 157.03C441.88 158.36 439.9 159.89 438.31 161.81C437.52 162.77 436.84 163.82 436.34 164.95C435.87 166.1 435.59 167.32 435.56 168.57C435.58 169.82 435.86 171.05 436.33 172.2C436.84 173.34 437.51 174.39 438.3 175.35C439.88 177.27 441.87 178.8 443.93 180.13C448.08 182.78 452.62 184.62 457.15 186.11C461.69 187.58 466.26 188.68 470.77 189.52C475.29 190.37 479.75 190.97 484.12 191.38C492.86 192.2 501.22 192.3 509.02 191.92C516.82 191.54 524.06 190.69 530.57 189.43C537.08 188.17 542.9 186.57 547.81 184.64C552.71 182.72 556.75 180.53 559.62 178.17C561.05 176.99 562.22 175.82 563.05 174.66C563.28 174.39 563.44 174.08 563.62 173.81C563.8 173.53 563.97 173.27 564.09 172.99C564.22 172.72 564.35 172.46 564.47 172.22C564.57 171.97 564.65 171.72 564.73 171.49C564.92 171.04 564.99 170.61 565.07 170.25C565.11 170.07 565.15 169.9 565.17 169.75C565.18 169.6 565.19 169.46 565.2 169.33C565.23 168.85 565.26 168.6 565.26 168.6C565.26 168.6 565.25 168.86 565.22 169.36C565.21 169.49 565.2 169.63 565.19 169.78C565.17 169.93 565.13 170.1 565.09 170.28C565.02 170.64 564.95 171.07 564.77 171.53C564.69 171.76 564.61 172.01 564.51 172.26C564.39 172.51 564.26 172.77 564.13 173.04C564.01 173.32 563.84 173.59 563.66 173.87C563.48 174.14 563.32 174.46 563.09 174.73C562.26 175.9 561.09 177.09 559.66 178.28C556.79 180.66 552.75 182.88 547.84 184.81C542.93 186.76 537.11 188.37 530.58 189.65C524.05 190.93 516.81 191.79 509 192.18C501.19 192.56 492.82 192.48 484.06 191.66C479.68 191.25 475.21 190.65 470.69 189.8C466.16 188.96 461.58 187.86 457.03 186.38C452.49 184.88 447.93 183.05 443.75 180.37C441.68 179.02 439.67 177.48 438.06 175.53C437.26 174.56 436.57 173.48 436.04 172.31C435.56 171.13 435.27 169.86 435.25 168.57C435.27 167.28 435.57 166.01 436.05 164.83C436.57 163.66 437.26 162.59 438.07 161.62C439.68 159.67 441.69 158.13 443.76 156.79C447.94 154.12 452.5 152.28 457.04 150.79C461.59 149.31 466.17 148.21 470.7 147.38C475.22 146.54 479.69 145.94 484.07 145.52C492.82 144.71 501.2 144.62 509 145C516.81 145.39 524.06 146.25 530.58 147.53C537.1 148.8 542.92 150.42 547.84 152.37C552.75 154.31 556.79 156.52 559.66 158.9C561.09 160.09 562.26 161.27 563.09 162.45C563.32 162.73 563.48 163.04 563.66 163.31C563.84 163.59 564.01 163.86 564.13 164.14C564.26 164.41 564.39 164.67 564.51 164.92C564.61 165.17 564.69 165.42 564.77 165.65C564.95 166.11 565.02 166.54 565.09 166.9C565.12 167.08 565.17 167.25 565.19 167.4C565.2 167.56 565.21 167.7 565.22 167.82C565.25 168.34 565.26 168.6 565.26 168.6Z" fill="#E63430"/>
<path d="M541.54 114.8C541.54 114.8 541.32 114.66 540.9 114.39C540.8 114.32 540.68 114.24 540.55 114.16C540.42 114.08 540.26 114.02 540.09 113.93C539.76 113.77 539.38 113.57 538.9 113.44C538.67 113.37 538.43 113.28 538.16 113.2C537.89 113.15 537.61 113.09 537.32 113.03C537.03 112.96 536.71 112.93 536.39 112.9C536.06 112.88 535.72 112.81 535.37 112.83C533.94 112.77 532.3 112.98 530.49 113.39C526.87 114.21 522.66 116.06 518.14 118.76C513.61 121.46 508.78 125.07 503.8 129.45C498.81 133.83 493.71 139.03 488.63 144.96C483.56 150.89 478.51 157.56 473.81 164.97C471.46 168.68 469.2 172.57 467.11 176.66C465.01 180.74 463.08 185.03 461.46 189.52C459.87 194.01 458.53 198.72 458.09 203.62C457.88 206.06 457.88 208.57 458.42 210.99C458.69 212.2 459.11 213.38 459.7 214.48C460.32 215.56 461.12 216.53 462.09 217.31C463.09 218.06 464.23 218.59 465.43 218.92C466.64 219.21 467.88 219.33 469.12 219.29C471.61 219.21 474.03 218.58 476.35 217.77C480.99 216.12 485.22 213.65 489.17 210.99C493.12 208.3 496.79 205.37 500.21 202.31C503.64 199.26 506.85 196.1 509.86 192.9C515.86 186.49 521.06 179.94 525.54 173.55C530.01 167.15 533.78 160.91 536.78 154.99C539.78 149.07 542.07 143.5 543.56 138.43C545.05 133.38 545.79 128.85 545.68 125.14C545.63 123.29 545.42 121.64 545.01 120.28C544.93 119.93 544.79 119.62 544.69 119.31C544.58 119 544.48 118.7 544.33 118.44C544.2 118.17 544.07 117.91 543.95 117.67C543.81 117.43 543.67 117.22 543.54 117.02C543.3 116.6 543 116.28 542.77 115.99C542.65 115.85 542.55 115.71 542.44 115.6C542.33 115.5 542.22 115.4 542.13 115.32C541.73 114.98 541.54 114.8 541.54 114.8C541.54 114.8 541.74 114.96 542.12 115.29C542.21 115.37 542.32 115.47 542.44 115.57C542.55 115.68 542.66 115.82 542.78 115.95C543.02 116.23 543.32 116.55 543.57 116.97C543.7 117.18 543.85 117.39 543.99 117.62C544.11 117.87 544.24 118.12 544.37 118.4C544.52 118.67 544.62 118.96 544.73 119.28C544.83 119.59 544.98 119.91 545.06 120.26C545.48 121.63 545.7 123.29 545.76 125.14C545.89 128.87 545.16 133.42 543.68 138.48C542.21 143.56 539.92 149.15 536.93 155.08C533.94 161.02 530.18 167.28 525.71 173.69C521.23 180.1 516.03 186.66 510.02 193.08C507.01 196.29 503.8 199.45 500.36 202.51C496.92 205.57 493.25 208.52 489.29 211.21C485.33 213.88 481.08 216.36 476.4 218.03C474.07 218.84 471.62 219.49 469.09 219.57C467.83 219.61 466.55 219.49 465.31 219.19C464.08 218.85 462.9 218.3 461.87 217.53C460.86 216.72 460.04 215.71 459.41 214.61C458.81 213.48 458.38 212.28 458.11 211.05C457.56 208.58 457.57 206.05 457.78 203.59C458.23 198.65 459.57 193.92 461.17 189.42C462.79 184.92 464.73 180.62 466.84 176.53C468.94 172.44 471.21 168.54 473.56 164.83C478.28 157.41 483.34 150.74 488.43 144.81C493.52 138.88 498.65 133.68 503.65 129.3C508.65 124.93 513.5 121.32 518.05 118.63C522.59 115.94 526.81 114.1 530.45 113.29C532.26 112.89 533.92 112.69 535.36 112.75C535.72 112.74 536.06 112.81 536.39 112.83C536.72 112.86 537.04 112.89 537.33 112.96C537.63 113.02 537.91 113.08 538.18 113.14C538.44 113.22 538.69 113.31 538.92 113.39C539.39 113.53 539.77 113.73 540.11 113.9C540.28 113.98 540.43 114.05 540.57 114.13C540.7 114.22 540.81 114.3 540.92 114.37C541.33 114.65 541.54 114.8 541.54 114.8Z" fill="#E63430"/>
<path d="M434.7 195.39C435.64 196.33 435.64 197.86 434.7 198.8C433.76 199.74 432.23 199.74 431.29 198.8C430.35 197.86 430.35 196.33 431.29 195.39C432.23 194.45 433.76 194.45 434.7 195.39Z" fill="#E63430"/>
<path d="M570.75 120.67C570.75 122 569.67 123.08 568.34 123.08C567.01 123.08 565.93 122 565.93 120.67C565.93 119.34 567.01 118.26 568.34 118.26C569.67 118.26 570.75 119.34 570.75 120.67Z" fill="#E63430"/>
<path d="M449.93 203.32C449.93 203.66 449.66 203.93 449.32 203.93C448.98 203.93 448.71 203.66 448.71 203.32C448.71 202.98 448.98 202.71 449.32 202.71C449.66 202.71 449.93 202.98 449.93 203.32Z" fill="#E63430"/>
<path d="M463.01 135.75C463.01 136.09 462.74 136.36 462.4 136.36C462.06 136.36 461.79 136.09 461.79 135.75C461.79 135.41 462.06 135.14 462.4 135.14C462.73 135.14 463.01 135.41 463.01 135.75Z" fill="#E63430"/>
<path d="M558.64 168.6C558.64 168.94 558.37 169.21 558.03 169.21C557.69 169.21 557.42 168.94 557.42 168.6C557.42 168.26 557.69 167.99 558.03 167.99C558.36 167.98 558.64 168.26 558.64 168.6Z" fill="#E63430"/>
<path d="M567.15 140.03C567.15 140.37 566.88 140.64 566.54 140.64C566.2 140.64 565.93 140.37 565.93 140.03C565.93 139.69 566.2 139.42 566.54 139.42C566.88 139.41 567.15 139.69 567.15 140.03Z" fill="#E63430"/>
<path d="M525.85 182.07H518.27V140.82C518.27 131.11 510.37 123.21 500.66 123.21C490.95 123.21 483.05 131.11 483.05 140.82V182.07H475.47V140.82C475.47 126.93 486.77 115.63 500.66 115.63C514.55 115.63 525.85 126.93 525.85 140.82V182.07Z" fill="#E63430"/>
<g opacity="0.3">
<path d="M525.85 182.07H518.27V140.82C518.27 131.11 510.37 123.21 500.66 123.21C490.95 123.21 483.05 131.11 483.05 140.82V182.07H475.47V140.82C475.47 126.93 486.77 115.63 500.66 115.63C514.55 115.63 525.85 126.93 525.85 140.82V182.07Z" fill="black"/>
</g>
<path d="M530.16 207.27H471.16C468.71 207.27 466.72 205.28 466.72 202.83V168.16C466.72 165.71 468.71 163.72 471.16 163.72H530.16C532.61 163.72 534.6 165.71 534.6 168.16V202.83C534.61 205.28 532.62 207.27 530.16 207.27Z" fill="#E63430"/>
<g opacity="0.3">
<path d="M506.34 179.82C506.34 176.69 503.8 174.15 500.67 174.15C497.54 174.15 495 176.69 495 179.82C495 182.41 496.75 184.58 499.13 185.25V193.73H502.23V185.25C504.59 184.58 506.34 182.42 506.34 179.82Z" fill="black"/>
</g>
<path d="M470.34 203.14C470.18 203.14 470.06 195.88 470.06 186.92C470.06 177.96 470.19 170.7 470.34 170.7C470.5 170.7 470.62 177.96 470.62 186.92C470.63 195.88 470.5 203.14 470.34 203.14Z" fill="#FAFAFA"/>
<path d="M496.22 187.1C496.2 187.13 495.95 187.01 495.55 186.72C495.15 186.43 494.62 185.94 494.09 185.23C493.03 183.84 492.06 181.32 492.69 178.6C493.35 175.88 495.34 174.07 496.91 173.3C497.7 172.9 498.4 172.7 498.89 172.62C499.38 172.54 499.65 172.55 499.65 172.58C499.67 172.69 498.57 172.79 497.1 173.64C495.65 174.46 493.84 176.21 493.23 178.72C492.65 181.23 493.48 183.61 494.41 184.99C495.35 186.43 496.29 187.01 496.22 187.1Z" fill="#FAFAFA"/>
<path d="M601.45 283.61H392.44C382.29 283.61 374.07 275.38 374.07 265.24V262.98C374.07 252.83 382.3 244.61 392.44 244.61H601.45C611.6 244.61 619.82 252.84 619.82 262.98V265.24C619.82 275.38 611.6 283.61 601.45 283.61Z" fill="#F5F5F5"/>
<path d="M603.26 337.1H394.25C384.1 337.1 375.88 328.87 375.88 318.73V316.47C375.88 306.32 384.11 298.1 394.25 298.1H603.26C613.41 298.1 621.63 306.33 621.63 316.47V318.73C621.63 328.87 613.4 337.1 603.26 337.1Z" fill="#F5F5F5"/>
<path d="M412.91 263.79V258.14H415.25V263.7C415.25 265.62 416.09 266.41 417.5 266.41C418.93 266.41 419.75 265.62 419.75 263.7V258.14H422.06V263.79C422.06 266.76 420.36 268.4 417.49 268.4C414.61 268.41 412.91 266.76 412.91 263.79Z" fill="#1A2E35"/>
<path d="M423.45 267.51L424.2 265.9C424.89 266.35 425.94 266.65 426.89 266.65C427.93 266.65 428.32 266.38 428.32 265.94C428.32 264.67 423.64 265.97 423.64 262.87C423.64 261.4 424.97 260.36 427.23 260.36C428.29 260.36 429.48 260.61 430.21 261.04L429.46 262.64C428.7 262.21 427.93 262.06 427.23 262.06C426.22 262.06 425.79 262.38 425.79 262.78C425.79 264.11 430.48 262.82 430.48 265.88C430.48 267.32 429.14 268.35 426.82 268.35C425.49 268.35 424.17 267.99 423.45 267.51Z" fill="#1A2E35"/>
<path d="M439.4 264.99H433.53C433.75 265.96 434.57 266.55 435.75 266.55C436.57 266.55 437.16 266.3 437.7 265.8L438.9 267.1C438.18 267.92 437.1 268.35 435.7 268.35C433.02 268.35 431.27 266.66 431.27 264.36C431.27 262.04 433.04 260.37 435.41 260.37C437.69 260.37 439.44 261.9 439.44 264.39C439.44 264.56 439.42 264.8 439.4 264.99ZM433.51 263.68H437.33C437.17 262.7 436.44 262.07 435.43 262.07C434.4 262.06 433.67 262.68 433.51 263.68Z" fill="#1A2E35"/>
<path d="M445.76 260.36V262.44C445.57 262.43 445.43 262.41 445.26 262.41C444.02 262.41 443.2 263.09 443.2 264.57V268.23H440.95V260.48H443.1V261.5C443.64 260.75 444.56 260.36 445.76 260.36Z" fill="#1A2E35"/>
<path d="M455.03 263.79V268.23H452.78V264.14C452.78 262.89 452.2 262.31 451.21 262.31C450.13 262.31 449.35 262.97 449.35 264.4V268.23H447.1V260.48H449.25V261.39C449.85 260.73 450.76 260.37 451.82 260.37C453.64 260.36 455.03 261.43 455.03 263.79Z" fill="#1A2E35"/>
<path d="M463.92 263.81V268.23H461.82V267.26C461.4 267.97 460.6 268.34 459.46 268.34C457.64 268.34 456.56 267.33 456.56 265.99C456.56 264.62 457.52 263.67 459.89 263.67H461.68C461.68 262.7 461.1 262.14 459.89 262.14C459.07 262.14 458.22 262.41 457.66 262.86L456.85 261.29C457.7 260.68 458.95 260.35 460.19 260.35C462.55 260.36 463.92 261.46 463.92 263.81ZM461.67 265.78V264.99H460.13C459.08 264.99 458.75 265.38 458.75 265.9C458.75 266.46 459.23 266.84 460.02 266.84C460.76 266.83 461.41 266.49 461.67 265.78Z" fill="#1A2E35"/>
<path d="M479.06 263.79V268.23H476.81V264.14C476.81 262.89 476.25 262.31 475.34 262.31C474.33 262.31 473.63 262.96 473.63 264.34V268.23H471.38V264.14C471.38 262.89 470.85 262.31 469.91 262.31C468.91 262.31 468.21 262.96 468.21 264.34V268.23H465.96V260.48H468.11V261.37C468.69 260.71 469.55 260.36 470.55 260.36C471.63 260.36 472.55 260.78 473.1 261.63C473.72 260.84 474.73 260.36 475.9 260.36C477.73 260.36 479.06 261.43 479.06 263.79Z" fill="#1A2E35"/>
<path d="M488.72 264.99H482.85C483.07 265.96 483.89 266.55 485.07 266.55C485.89 266.55 486.48 266.3 487.02 265.8L488.22 267.1C487.5 267.92 486.42 268.35 485.02 268.35C482.34 268.35 480.6 266.66 480.6 264.36C480.6 262.04 482.37 260.37 484.74 260.37C487.02 260.37 488.77 261.9 488.77 264.39C488.76 264.56 488.73 264.8 488.72 264.99ZM482.82 263.68H486.64C486.48 262.7 485.75 262.07 484.74 262.07C483.71 262.06 482.98 262.68 482.82 263.68Z" fill="#1A2E35"/>
<path d="M503.58 264.28C503.58 266.86 502.4 268.33 500.63 268.33C499.65 268.33 498.96 267.9 498.66 267.08C498.16 267.89 497.33 268.33 496.19 268.33C494.33 268.33 492.86 266.86 492.86 264.68C492.86 262.52 494.32 261.05 496.19 261.05C497.14 261.05 497.89 261.38 498.41 262V261.15H500.37V265.82C500.37 266.51 500.67 266.74 501.06 266.74C501.72 266.74 502.13 265.98 502.13 264.3C502.13 261.37 499.97 259.36 496.77 259.36C493.56 259.36 491.41 261.55 491.41 264.56C491.41 267.63 493.52 269.81 496.71 269.81C497.62 269.81 498.64 269.62 499.55 269.18L500.01 270.51C499.13 270.96 497.85 271.2 496.71 271.2C492.54 271.2 489.79 268.37 489.79 264.57C489.79 260.81 492.57 258 496.77 258C500.81 258 503.58 260.67 503.58 264.28ZM498.43 264.69C498.43 263.44 497.67 262.73 496.63 262.73C495.58 262.73 494.84 263.46 494.84 264.69C494.84 265.93 495.58 266.68 496.63 266.68C497.67 266.68 498.43 265.96 498.43 264.69Z" fill="#1A2E35"/>
<path d="M518.28 263.79V268.23H516.03V264.14C516.03 262.89 515.47 262.31 514.56 262.31C513.55 262.31 512.85 262.96 512.85 264.34V268.23H510.6V264.14C510.6 262.89 510.07 262.31 509.13 262.31C508.13 262.31 507.43 262.96 507.43 264.34V268.23H505.18V260.48H507.33V261.37C507.91 260.71 508.77 260.36 509.77 260.36C510.85 260.36 511.77 260.78 512.32 261.63C512.94 260.84 513.95 260.36 515.12 260.36C516.95 260.36 518.28 261.43 518.28 263.79Z" fill="#1A2E35"/>
<path d="M527.16 263.81V268.23H525.06V267.26C524.64 267.97 523.84 268.34 522.7 268.34C520.88 268.34 519.8 267.33 519.8 265.99C519.8 264.62 520.76 263.67 523.13 263.67H524.92C524.92 262.7 524.34 262.14 523.13 262.14C522.31 262.14 521.46 262.41 520.9 262.86L520.09 261.29C520.94 260.68 522.19 260.35 523.43 260.35C525.79 260.36 527.16 261.46 527.16 263.81ZM524.91 265.78V264.99H523.37C522.32 264.99 521.99 265.38 521.99 265.9C521.99 266.46 522.47 266.84 523.26 266.84C524 266.83 524.65 266.49 524.91 265.78Z" fill="#1A2E35"/>
<path d="M528.92 258.14C528.92 257.43 529.48 256.89 530.32 256.89C531.16 256.89 531.72 257.41 531.72 258.1C531.72 258.85 531.16 259.4 530.32 259.4C529.48 259.4 528.92 258.85 528.92 258.14ZM529.19 260.48H531.44V268.23H529.19V260.48Z" fill="#1A2E35"/>
<path d="M533.53 257.54H535.78V268.24H533.53V257.54Z" fill="#1A2E35"/>
<path d="M537.32 266.94C537.32 266.1 537.94 265.56 538.72 265.56C539.5 265.56 540.12 266.11 540.12 266.94C540.12 267.76 539.5 268.35 538.72 268.35C537.94 268.35 537.32 267.76 537.32 266.94Z" fill="#1A2E35"/>
<path d="M540.97 264.36C540.97 262.02 542.77 260.37 545.3 260.37C546.93 260.37 548.21 261.08 548.77 262.35L547.03 263.29C546.61 262.55 545.99 262.22 545.29 262.22C544.15 262.22 543.26 263.01 543.26 264.37C543.26 265.73 544.15 266.52 545.29 266.52C546 266.52 546.62 266.2 547.03 265.45L548.77 266.4C548.21 267.64 546.92 268.36 545.3 268.36C542.77 268.35 540.97 266.69 540.97 264.36Z" fill="#1A2E35"/>
<path d="M549.39 264.36C549.39 262.02 551.19 260.37 553.66 260.37C556.13 260.37 557.91 262.03 557.91 264.36C557.91 266.69 556.12 268.35 553.66 268.35C551.19 268.35 549.39 266.69 549.39 264.36ZM555.63 264.36C555.63 263.02 554.78 262.21 553.66 262.21C552.54 262.21 551.67 263.02 551.67 264.36C551.67 265.7 552.53 266.51 553.66 266.51C554.78 266.5 555.63 265.7 555.63 264.36Z" fill="#1A2E35"/>
<path d="M572.51 263.79V268.23H570.26V264.14C570.26 262.89 569.7 262.31 568.79 262.31C567.78 262.31 567.08 262.96 567.08 264.34V268.23H564.83V264.14C564.83 262.89 564.3 262.31 563.36 262.31C562.36 262.31 561.66 262.96 561.66 264.34V268.23H559.41V260.48H561.56V261.37C562.14 260.71 563 260.36 564 260.36C565.08 260.36 566 260.78 566.55 261.63C567.17 260.84 568.18 260.36 569.35 260.36C571.18 260.36 572.51 261.43 572.51 263.79Z" fill="#1A2E35"/>
<path d="M443.03 317.8L446.68 319.78L445.04 322.53L441.36 320.35L441.43 324.4H438.28L438.31 320.31L434.63 322.52L433.02 319.77L436.67 317.79L433.02 315.78L434.63 313.03L438.31 315.24L438.28 311.15H441.43L441.36 315.24L445.04 313.03L446.68 315.78L443.03 317.8Z" fill="#1A2E35"/>
<path d="M458.22 317.8L461.87 319.78L460.23 322.53L456.55 320.35L456.62 324.4H453.47L453.5 320.31L449.82 322.52L448.21 319.77L451.86 317.79L448.21 315.78L449.82 313.03L453.5 315.24L453.47 311.15H456.62L456.55 315.24L460.23 313.03L461.87 315.78L458.22 317.8Z" fill="#1A2E35"/>
<path d="M473.42 317.8L477.07 319.78L475.43 322.53L471.75 320.35L471.82 324.4H468.67L468.7 320.31L465.02 322.52L463.41 319.77L467.06 317.79L463.41 315.78L465.02 313.03L468.7 315.24L468.67 311.15H471.82L471.75 315.24L475.43 313.03L477.07 315.78L473.42 317.8Z" fill="#1A2E35"/>
<path d="M488.62 317.8L492.27 319.78L490.63 322.53L486.95 320.35L487.02 324.4H483.87L483.9 320.31L480.22 322.52L478.61 319.77L482.26 317.79L478.61 315.78L480.22 313.03L483.9 315.24L483.87 311.15H487.02L486.95 315.24L490.63 313.03L492.27 315.78L488.62 317.8Z" fill="#1A2E35"/>
<path d="M503.82 317.8L507.47 319.78L505.83 322.53L502.15 320.35L502.22 324.4H499.07L499.1 320.31L495.42 322.52L493.81 319.77L497.46 317.79L493.81 315.78L495.42 313.03L499.1 315.24L499.07 311.15H502.22L502.15 315.24L505.83 313.03L507.47 315.78L503.82 317.8Z" fill="#1A2E35"/>
<path d="M519.02 317.8L522.67 319.78L521.03 322.53L517.35 320.35L517.42 324.4H514.27L514.3 320.31L510.62 322.52L509.01 319.77L512.66 317.79L509.01 315.78L510.62 313.03L514.3 315.24L514.27 311.15H517.42L517.35 315.24L521.03 313.03L522.67 315.78L519.02 317.8Z" fill="#1A2E35"/>
<path d="M534.22 317.8L537.87 319.78L536.23 322.53L532.55 320.35L532.62 324.4H529.47L529.5 320.31L525.82 322.52L524.21 319.77L527.86 317.79L524.21 315.78L525.82 313.03L529.5 315.24L529.47 311.15H532.62L532.55 315.24L536.23 313.03L537.87 315.78L534.22 317.8Z" fill="#1A2E35"/>
<path d="M549.42 317.8L553.07 319.78L551.43 322.53L547.75 320.35L547.82 324.4H544.67L544.7 320.31L541.02 322.52L539.41 319.77L543.06 317.79L539.41 315.78L541.02 313.03L544.7 315.24L544.67 311.15H547.82L547.75 315.24L551.43 313.03L553.07 315.78L549.42 317.8Z" fill="#1A2E35"/>
<path d="M715.62 603.82H421.72C414.77 603.82 409.14 598.19 409.14 591.24V439.12C409.14 432.17 414.77 426.54 421.72 426.54H715.62C722.57 426.54 728.2 432.17 728.2 439.12V591.25C728.2 598.19 722.57 603.82 715.62 603.82Z" fill="white"/>
<path d="M715.62 603.82C715.62 603.76 716.48 603.84 718.1 603.52C719.69 603.17 722.13 602.35 724.43 600.07C725.56 598.94 726.6 597.42 727.28 595.57C727.65 594.65 727.84 593.63 727.98 592.56C728.06 591.49 728.05 590.35 728.04 589.17C728.03 584.44 728.01 578.98 727.99 572.84C727.95 548.25 727.9 512.7 727.83 468.78C727.82 463.29 727.82 457.67 727.81 451.92C727.81 449.05 727.8 446.14 727.8 443.2C727.73 440.26 728.11 437.25 726.91 434.56C725.82 431.87 723.73 429.56 721.08 428.24C719.76 427.57 718.31 427.15 716.83 427C715.36 426.89 713.76 426.96 712.22 426.94C705.99 426.94 699.64 426.95 693.18 426.95C667.35 426.96 639.75 426.98 610.71 427C552.62 427.01 488.77 427.03 421.74 427.04C419.73 427.05 417.73 427.56 415.96 428.5C414.22 429.48 412.68 430.86 411.6 432.54C410.53 434.22 409.82 436.15 409.7 438.14C409.6 440.13 409.67 442.27 409.65 444.32C409.65 452.6 409.65 460.82 409.65 468.98C409.65 485.3 409.64 501.39 409.64 517.2C409.64 533.01 409.63 548.53 409.63 563.74C409.63 571.34 409.62 578.86 409.62 586.3C409.63 588.15 409.59 590.04 409.65 591.84C409.73 593.62 410.21 595.36 411.04 596.93C412.7 600.06 415.78 602.36 419.2 603.08C420.89 603.48 422.69 603.31 424.51 603.35C426.31 603.35 428.11 603.35 429.9 603.35C433.49 603.35 437.05 603.35 440.59 603.36C447.67 603.36 454.65 603.37 461.53 603.37C475.29 603.38 488.65 603.39 501.56 603.4C527.39 603.42 551.45 603.44 573.42 603.46C617.34 603.53 652.88 603.58 677.47 603.62C689.74 603.66 699.27 603.69 705.76 603.72C708.98 603.74 711.44 603.76 713.12 603.77C714.77 603.79 715.62 603.82 715.62 603.82C715.62 603.82 714.77 603.86 713.11 603.87C711.43 603.88 708.97 603.9 705.75 603.92C699.26 603.94 689.73 603.97 677.46 604.02C652.87 604.06 617.33 604.11 573.41 604.18C551.44 604.2 527.38 604.22 501.55 604.24C488.63 604.25 475.28 604.26 461.52 604.27C454.64 604.27 447.66 604.28 440.58 604.28C437.04 604.28 433.48 604.28 429.89 604.29C428.1 604.29 426.3 604.29 424.5 604.29C422.72 604.25 420.86 604.43 418.99 604C415.3 603.22 411.98 600.75 410.19 597.37C409.3 595.68 408.78 593.8 408.69 591.88C408.63 589.99 408.67 588.16 408.66 586.3C408.66 578.86 408.65 571.34 408.65 563.74C408.65 548.53 408.64 533.01 408.64 517.2C408.64 501.39 408.63 485.31 408.63 468.98C408.63 460.82 408.63 452.6 408.63 444.32C408.65 442.23 408.58 440.22 408.68 438.06C408.82 435.9 409.59 433.8 410.75 431.98C411.92 430.15 413.58 428.66 415.48 427.6C417.4 426.58 419.57 426.03 421.75 426.02C488.78 426.03 552.64 426.05 610.72 426.06C639.76 426.08 667.36 426.09 693.19 426.11C699.65 426.11 705.99 426.12 712.23 426.12C713.8 426.14 715.31 426.07 716.92 426.19C718.51 426.35 720.05 426.81 721.46 427.52C724.28 428.94 726.51 431.4 727.66 434.27C728.25 435.7 728.56 437.24 728.58 438.76C728.58 440.25 728.59 441.73 728.59 443.2C728.59 446.14 728.58 449.04 728.58 451.92C728.57 457.67 728.57 463.29 728.56 468.78C728.49 512.7 728.44 548.25 728.4 572.84C728.38 578.98 728.37 584.44 728.35 589.17C728.35 590.35 728.36 591.49 728.27 592.59C728.11 593.68 727.91 594.72 727.53 595.66C726.82 597.55 725.75 599.08 724.59 600.22C722.23 602.51 719.74 603.31 718.13 603.63C717.31 603.76 716.68 603.83 716.26 603.82C715.83 603.83 715.62 603.82 715.62 603.82Z" fill="#1A2E35"/>
<path d="M520.3 489.18V491.39H511.07V479.47H520.08V481.68H513.81V484.27H519.35V486.42H513.81V489.18H520.3Z" fill="#1A2E35"/>
<path d="M533.44 479.47V491.39H531.18L525.23 484.15V491.39H522.5V479.47H524.78L530.71 486.71V479.47H533.44Z" fill="#1A2E35"/>
<path d="M538.74 481.72H534.92V479.47H545.31V481.72H541.49V491.39H538.73V481.72H538.74Z" fill="#1A2E35"/>
<path d="M556.03 489.18V491.39H546.8V479.47H555.81V481.68H549.54V484.27H555.07V486.42H549.54V489.18H556.03Z" fill="#1A2E35"/>
<path d="M565.82 491.39L563.52 488.07H563.39H560.99V491.39H558.23V479.47H563.39C566.57 479.47 568.57 481.12 568.57 483.8C568.57 485.59 567.67 486.9 566.12 487.56L568.79 491.39H565.82ZM563.24 481.72H560.99V485.88H563.24C564.93 485.88 565.78 485.1 565.78 483.8C565.77 482.49 564.92 481.72 563.24 481.72Z" fill="#1A2E35"/>
<path d="M574.82 485.43C574.82 481.84 577.58 479.26 581.29 479.26C583.35 479.26 585.07 480.01 586.2 481.37L584.43 483.01C583.63 482.09 582.62 481.61 581.43 481.61C579.2 481.61 577.61 483.18 577.61 485.43C577.61 487.68 579.19 489.25 581.43 489.25C582.62 489.25 583.63 488.77 584.43 487.84L586.2 489.48C585.08 490.86 583.36 491.61 581.28 491.61C577.58 491.6 574.82 489.03 574.82 485.43Z" fill="#1A2E35"/>
<path d="M587.05 485.43C587.05 481.89 589.81 479.26 593.57 479.26C597.32 479.26 600.09 481.87 600.09 485.43C600.09 488.99 597.31 491.59 593.57 491.59C589.81 491.6 587.05 488.98 587.05 485.43ZM597.31 485.43C597.31 483.16 595.71 481.61 593.58 481.61C591.45 481.61 589.85 483.16 589.85 485.43C589.85 487.69 591.45 489.25 593.58 489.25C595.71 489.25 597.31 487.7 597.31 485.43Z" fill="#1A2E35"/>
<path d="M602.18 479.47H607.6C611.5 479.47 614.18 481.82 614.18 485.43C614.18 489.04 611.51 491.39 607.6 491.39H602.18V479.47ZM607.46 489.13C609.83 489.13 611.38 487.72 611.38 485.43C611.38 483.14 609.83 481.73 607.46 481.73H604.94V489.12H607.46V489.13Z" fill="#1A2E35"/>
<path d="M625.49 489.18V491.39H616.26V479.47H625.27V481.68H619V484.27H624.54V486.42H619V489.18H625.49Z" fill="#1A2E35"/>
<path d="M475.06 571.12H446.1C441.8 571.12 438.31 567.63 438.31 563.33V518.23C438.31 513.93 441.8 510.44 446.1 510.44H475.06C479.36 510.44 482.85 513.93 482.85 518.23V563.33C482.86 567.63 479.37 571.12 475.06 571.12Z" fill="#ECECEC"/>
<path d="M530.69 571.12H501.73C497.43 571.12 493.94 567.63 493.94 563.33V518.23C493.94 513.93 497.43 510.44 501.73 510.44H530.69C534.99 510.44 538.48 513.93 538.48 518.23V563.33C538.49 567.63 535 571.12 530.69 571.12Z" fill="#ECECEC"/>
<path d="M586.32 571.12H557.36C553.06 571.12 549.57 567.63 549.57 563.33V518.23C549.57 513.93 553.06 510.44 557.36 510.44H586.32C590.62 510.44 594.11 513.93 594.11 518.23V563.33C594.11 567.63 590.62 571.12 586.32 571.12Z" fill="#ECECEC"/>
<path d="M641.95 571.12H612.99C608.69 571.12 605.2 567.63 605.2 563.33V518.23C605.2 513.93 608.69 510.44 612.99 510.44H641.95C646.25 510.44 649.74 513.93 649.74 518.23V563.33C649.74 567.63 646.25 571.12 641.95 571.12Z" fill="#ECECEC"/>
<path d="M697.58 571.12H668.62C664.32 571.12 660.83 567.63 660.83 563.33V518.23C660.83 513.93 664.32 510.44 668.62 510.44H697.58C701.88 510.44 705.37 513.93 705.37 518.23V563.33C705.37 567.63 701.88 571.12 697.58 571.12Z" fill="#ECECEC"/>
<path d="M470.29 545.46C470.29 549.79 466.94 552.6 462.4 552.6C456.17 552.6 452.89 548.13 452.89 540.72C452.89 532.7 457.16 528.57 463.42 528.57C465.45 528.57 467.35 528.91 468.8 529.79L468.09 531.18C466.87 530.4 465.21 530.1 463.42 530.1C458.1 530.1 454.62 533.59 454.62 540.46C454.62 541.17 454.65 542.22 454.82 543.3C455.8 540.19 458.78 538.43 462.37 538.43C467.11 538.42 470.29 541.2 470.29 545.46ZM468.56 545.5C468.56 542.12 466.12 539.91 462.13 539.91C458.24 539.91 455.56 542.38 455.56 545.56C455.56 548.34 457.9 551.11 462.33 551.11C466.02 551.12 468.56 548.92 468.56 545.5Z" fill="#E63430"/>
<path d="M525.32 545.87H520.34V552.44H518.65V545.87H505.14V544.62L518.01 528.74H519.94L507.31 544.35H518.68V538.56H520.34V544.35H525.32V545.87Z" fill="#E63430"/>
<path d="M582.69 555.8C582.69 556.08 578.07 556.31 572.37 556.31C566.67 556.31 562.05 556.08 562.05 555.8C562.05 555.52 566.67 555.29 572.37 555.29C578.07 555.29 582.69 555.52 582.69 555.8Z" fill="#E63430"/>
<path d="M429.4 449.06C432.067 449.06 434.23 446.898 434.23 444.23C434.23 441.563 432.067 439.4 429.4 439.4C426.732 439.4 424.57 441.563 424.57 444.23C424.57 446.898 426.732 449.06 429.4 449.06Z" fill="#1A2E35"/>
<path d="M448.15 444.23C448.15 446.9 445.99 449.06 443.32 449.06C440.65 449.06 438.49 446.9 438.49 444.23C438.49 441.56 440.65 439.4 443.32 439.4C445.99 439.4 448.15 441.56 448.15 444.23Z" fill="#1A2E35"/>
<path d="M456.99 449.06C459.657 449.06 461.82 446.898 461.82 444.23C461.82 441.563 459.657 439.4 456.99 439.4C454.322 439.4 452.16 441.563 452.16 444.23C452.16 446.898 454.322 449.06 456.99 449.06Z" fill="#1A2E35"/>
<path d="M728.68 457.84C728.68 458.12 657.25 458.35 569.15 458.35C481.02 458.35 409.6 458.12 409.6 457.84C409.6 457.56 481.02 457.33 569.15 457.33C657.24 457.33 728.68 457.56 728.68 457.84Z" fill="#1A2E35"/>
<path d="M756.26 765.33C782.08 754.37 811.97 732.81 825.31 706.38C797.45 717.57 772.9 738.54 756.26 765.33Z" fill="#1A2E35"/>
<path d="M761.75 724.31C787.57 713.35 817.46 691.79 830.8 665.36C802.94 676.54 778.39 697.51 761.75 724.31Z" fill="#1A2E35"/>
<path d="M769.22 684.41C795.04 673.45 824.93 651.89 838.27 625.46C810.41 636.64 785.86 657.61 769.22 684.41Z" fill="#1A2E35"/>
<path d="M778.58 642.64C802.94 628.19 830.09 602.67 840.21 574.65C813.86 589.61 791.94 613.79 778.58 642.64Z" fill="#1A2E35"/>
<path d="M788.59 610.67C806.34 587.45 822.88 552.91 822.67 522.97C803.24 547.47 791.12 578.66 788.59 610.67Z" fill="#1A2E35"/>
<path d="M783.63 625.87C780.05 594.48 767.83 555.01 747.1 531.47C750.4 565.1 763.39 598.68 783.63 625.87Z" fill="#1A2E35"/>
<path d="M775.28 660.2C768.96 627.83 752.99 587.81 729.45 565.11C735.65 599.84 751.95 633.66 775.28 660.2Z" fill="#1A2E35"/>
<path d="M765.7 702.08C759.38 669.72 743.41 629.69 719.87 606.99C726.07 641.71 742.37 675.53 765.7 702.08Z" fill="#1A2E35"/>
<path d="M758 753.48C751.68 721.11 735.71 681.09 712.17 658.39C718.37 693.12 734.67 726.94 758 753.48Z" fill="#1A2E35"/>
<path d="M789.79 604.52C789.77 604.52 789.71 604.68 789.59 605C789.46 605.38 789.3 605.86 789.1 606.45C788.67 607.8 788.07 609.68 787.31 612.05C785.76 616.91 783.66 624 781.2 632.79C778.73 641.58 776.01 652.1 773.2 663.85C770.45 675.6 767.64 688.58 765.05 702.26C762.49 715.96 760.4 729.07 758.7 741.02C757.05 752.98 755.76 763.78 754.87 772.86C753.97 781.94 753.35 789.31 753.03 794.4C752.87 796.89 752.75 798.85 752.66 800.27C752.63 800.89 752.61 801.39 752.59 801.8C752.58 802.14 752.58 802.32 752.6 802.32C752.62 802.32 752.65 802.15 752.69 801.8C752.73 801.4 752.79 800.9 752.86 800.28C752.99 798.87 753.18 796.91 753.42 794.43C753.86 789.35 754.59 782 755.58 772.93C756.56 763.86 757.92 753.08 759.62 741.14C761.37 729.21 763.48 716.12 766.04 702.43C768.63 688.76 771.4 675.79 774.11 664.04C776.86 652.3 779.51 641.77 781.89 632.96C784.26 624.15 786.25 617.04 787.69 612.15C788.37 609.75 788.91 607.86 789.3 606.5C789.46 605.9 789.59 605.41 789.69 605.02C789.78 604.7 789.81 604.52 789.79 604.52Z" fill="#1A2E35"/>
<path d="M743.68 782.43C754.63 759.5 762.59 727.26 757.22 702.1C745.07 726.42 740.26 755 743.68 782.43Z" fill="#375A64"/>
<path d="M725.47 752.74C736.42 729.81 744.38 697.57 739.01 672.41C726.86 696.73 722.04 725.31 725.47 752.74Z" fill="#375A64"/>
<path d="M709.13 722.55C720.08 699.62 728.04 667.38 722.67 642.22C710.53 666.54 705.71 695.12 709.13 722.55Z" fill="#375A64"/>
<path d="M693.04 689.99C701.18 665.72 705.27 632.64 696.96 608.43C687.79 634.26 686.4 663.27 693.04 689.99Z" fill="#375A64"/>
<path d="M682.57 663.33C681.77 637.51 674.18 605.17 658.14 586.1C658.53 613.78 667.22 641.25 682.57 663.33Z" fill="#375A64"/>
<path d="M687.41 676.13C668.42 658.21 639.54 640.42 613.58 638.09C633.58 657.63 659.84 671.16 687.41 676.13Z" fill="#375A64"/>
<path d="M700.22 703.29C678.94 686.43 647.31 670.59 619.98 670.53C642.44 688.99 670.98 700.64 700.22 703.29Z" fill="#375A64"/>
<path d="M716.23 736.05C694.95 719.19 663.32 703.35 635.99 703.29C658.45 721.74 686.99 733.4 716.23 736.05Z" fill="#375A64"/>
<path d="M738.52 773.75C717.24 756.89 685.61 741.05 658.28 740.99C680.74 759.45 709.28 771.1 738.52 773.75Z" fill="#375A64"/>
<path d="M680.08 658.64C680.06 658.65 680.11 658.79 680.2 659.07C680.32 659.4 680.46 659.8 680.64 660.29C681.08 661.43 681.67 662.98 682.42 664.93C683.97 668.96 686.34 674.74 689.38 681.84C695.46 696.03 704.46 715.4 715.64 736.15C721.25 746.52 726.86 756.25 732.12 765C737.43 773.72 742.34 781.5 746.63 787.92C750.9 794.35 754.44 799.5 756.96 803C758.19 804.7 759.16 806.04 759.87 807.03C760.18 807.45 760.44 807.78 760.65 808.06C760.83 808.29 760.93 808.4 760.94 808.39C760.95 808.38 760.88 808.25 760.73 808C760.54 807.71 760.31 807.35 760.03 806.91C759.35 805.9 758.43 804.52 757.27 802.78C754.84 799.21 751.39 794.01 747.2 787.54C742.99 781.08 738.14 773.27 732.88 764.54C727.67 755.77 722.09 746.04 716.49 735.69C705.32 714.97 696.24 695.68 690.01 681.56C686.89 674.5 684.43 668.77 682.77 664.78C681.95 662.85 681.3 661.33 680.82 660.21C680.61 659.74 680.43 659.35 680.29 659.03C680.17 658.77 680.1 658.64 680.08 658.64Z" fill="#1A2E35"/>
<path d="M691.53 785.2H800.32V806.16H789.14L779.72 865.96H712.48L702.8 806.16H691.53V785.2Z" fill="#E63430"/>
<path d="M691.53 805.72C691.53 805.44 715.71 805.21 745.53 805.21C775.36 805.21 799.53 805.44 799.53 805.72C799.53 806 775.36 806.23 745.53 806.23C715.71 806.23 691.53 806 691.53 805.72Z" fill="#1A2E35"/>
<path d="M68.4001 865.99H50.7401L44.2001 786.51H64.9901L68.4001 865.99Z" fill="#1A2E35"/>
<path d="M221.42 865.99H239.08L245.62 786.51H224.83L221.42 865.99Z" fill="#1A2E35"/>
<path d="M257.76 796.57L30.5 801.91L23.58 655.12C22.9 640.75 34.37 628.72 48.76 628.72H242.39C257 628.72 268.55 641.1 267.54 655.68L257.76 796.57Z" fill="#E63430"/>
<path d="M269.41 654.62C269.41 654.64 269.2 654.66 268.78 654.67C268.3 654.68 267.69 654.7 266.92 654.73C265.21 654.76 262.81 654.79 259.76 654.84C253.47 654.86 244.49 654.89 233.41 654.93C211.17 654.97 180.43 654.72 146.51 655.5C112.57 656.63 81.8101 656.44 59.5701 656.1C48.4501 655.92 39.4501 655.71 33.2301 655.52C30.1701 655.42 27.7801 655.33 26.0701 655.27C25.3001 655.23 24.6801 655.2 24.2101 655.18C23.7901 655.15 23.5801 655.13 23.5801 655.11C23.5801 655.09 23.8001 655.08 24.2201 655.07C24.7001 655.07 25.3101 655.06 26.0801 655.06C27.7901 655.07 30.1901 655.09 33.2401 655.11C39.5301 655.17 48.5101 655.26 59.5801 655.36C81.8201 655.51 112.55 655.59 146.48 654.46C180.43 653.67 211.16 654.04 233.4 654.19C244.47 654.29 253.45 654.37 259.74 654.42C262.8 654.46 265.2 654.48 266.9 654.5C267.67 654.52 268.29 654.53 268.76 654.55C269.19 654.58 269.41 654.6 269.41 654.62Z" fill="#1A2E35"/>
<path d="M106.48 631.02C106.54 631.36 99.3601 631.49 91.7201 635.45C84.0301 639.31 79.7201 645.05 79.4701 644.8C79.3801 644.73 80.3101 643.22 82.2801 641.15C84.2401 639.08 87.3401 636.54 91.2401 634.54C95.1501 632.55 99.0301 631.54 101.85 631.16C104.7 630.77 106.48 630.91 106.48 631.02Z" fill="#1A2E35"/>
<path d="M226.66 451.17L249.7 493.25L283.45 474.38L299.86 479.8C299.86 479.8 258.46 524.69 251.74 526.98C245.02 529.27 232.3 529.68 225.03 520.58C218.41 512.29 199.13 468.78 199.13 468.78L226.66 451.17Z" fill="#FFC19D"/>
<path d="M321.5 423.7C320.9 422.96 319.96 422.58 319.01 422.71L302.96 424.92C301.55 425.14 300.3 425.94 299.53 427.14L266.2 478.36L268.76 479.79L286.51 479.23L322 424.33L321.5 423.7Z" fill="#1A2E35"/>
<path d="M310.14 430.36C310.48 430.66 311.08 430.53 311.48 430.08C311.88 429.62 311.93 429.01 311.58 428.71C311.24 428.41 310.64 428.54 310.24 428.99C309.84 429.44 309.8 430.06 310.14 430.36Z" fill="white"/>
<path d="M322 424.33C322.01 424.4 320.9 424.61 318.9 424.94C316.73 425.28 313.86 425.72 310.39 426.26C308.58 426.53 306.61 426.81 304.51 427.12C303.5 427.21 302.6 427.73 302.03 428.58C301.41 429.54 300.78 430.52 300.13 431.52C297.5 435.57 294.63 439.99 291.62 444.64C285.56 453.93 280.03 462.32 275.98 468.36C274.01 471.27 272.38 473.67 271.15 475.49C269.99 477.16 269.32 478.07 269.27 478.03C269.21 477.99 269.78 477.02 270.84 475.28C272.01 473.42 273.55 470.96 275.41 467.98C279.31 461.84 284.75 453.4 290.81 444.1C293.85 439.47 296.74 435.06 299.38 431.02C300.04 430.02 300.69 429.04 301.32 428.08C302.02 427.03 303.25 426.38 304.37 426.31C306.48 426.04 308.45 425.79 310.27 425.56C313.76 425.15 316.64 424.8 318.83 424.55C320.87 424.35 322 424.26 322 424.33Z" fill="#375A64"/>
<path d="M304.2 442.64C304.2 442.64 302.77 442.38 301.99 446.3C301.21 450.21 298.68 461.44 298.68 461.44L291.18 457.46L281.8 458.68C281.8 458.68 279.75 460.57 281.25 461.6C282.75 462.63 288.68 463.68 288.68 463.68L293.05 469.96L280.51 463.91C280.51 463.91 276.32 465 277.55 467.56C278.78 470.11 287.23 478.11 287.23 478.11L280.95 477.63L273.48 473.09C273.48 473.09 271.19 473.19 272.04 475.15C272.9 477.1 280.67 484.16 280.67 484.16L290.09 488.73C290.09 488.73 295.23 488.33 295.73 486.82C296.22 485.31 296.35 483.15 296.35 483.15C296.35 483.15 299.08 482.41 299.59 481.09C300.1 479.77 299.77 477.67 299.77 477.67C299.77 477.67 304.06 478.42 304.59 476.03C305.12 473.64 304.68 468.93 304.24 467.09C303.81 465.25 306.07 448.17 305.89 447.65C305.73 447.14 306.89 441.51 304.2 442.64Z" fill="#FFC19D"/>
<path d="M296.07 486.83C296.1 486.94 295.19 487.34 293.61 487.59C292.04 487.85 289.79 487.87 287.4 487.31C285.01 486.74 283.01 485.7 281.73 484.76C280.43 483.82 279.8 483.06 279.88 482.97C280.06 482.73 283.04 485.31 287.63 486.36C292.19 487.5 296.02 486.54 296.07 486.83Z" fill="#FF9C6A"/>
<path d="M293.84 483.45C293.69 483.67 292.02 482.79 290.24 481.33C288.45 479.87 287.27 478.4 287.45 478.22C287.64 478.03 289.1 479.16 290.85 480.59C292.59 482.02 293.99 483.23 293.84 483.45Z" fill="#FF9C6A"/>
<path d="M298.79 475.32C298.65 475.54 296.99 474.68 295.32 473.13C293.64 471.59 292.66 470 292.87 469.84C293.08 469.67 294.36 470.93 295.98 472.42C297.59 473.92 298.95 475.1 298.79 475.32Z" fill="#FF9C6A"/>
<path d="M304.01 468.77C303.75 468.88 302.81 467.11 301.31 465.18C299.83 463.24 298.37 461.87 298.54 461.65C298.69 461.44 300.51 462.54 302.08 464.59C303.66 466.64 304.25 468.69 304.01 468.77Z" fill="#FF9C6A"/>
<path d="M310.38 772.06C310.44 772.06 310.49 771.5 310.33 770.51C310.17 769.53 309.76 768.09 308.76 766.57C308.5 766.2 308.25 765.8 307.83 765.43C307.43 765.07 306.74 764.79 306.08 765.03C305.75 765.14 305.42 765.44 305.3 765.81C305.18 766.19 305.24 766.56 305.34 766.86C305.56 767.48 305.88 767.93 306.16 768.44C306.77 769.46 307.27 770.48 308.05 771.64C308.44 772.23 309.33 772.72 310.13 772.58C310.92 772.48 311.56 772.1 312.14 771.69C313.26 770.88 314.25 769.95 315.09 768.97C315.51 768.48 315.9 767.97 316.25 767.45C316.58 766.94 316.98 766.42 317.13 765.71C317.28 765.02 317.02 764.12 316.24 763.81C315.45 763.52 314.81 763.92 314.37 764.23C313.48 764.97 312.94 765.73 312.4 766.47C311.36 767.94 310.79 769.29 310.47 770.22C310.15 771.17 310.08 771.71 310.13 771.73C310.29 771.8 310.82 769.61 312.93 766.86C313.45 766.21 314.1 765.41 314.83 764.86C315.2 764.6 315.66 764.43 315.94 764.57C316.24 764.68 316.4 765.12 316.3 765.55C316.21 765.99 315.88 766.46 315.53 766.96C315.19 767.44 314.81 767.92 314.41 768.39C313.6 769.32 312.65 770.19 311.6 770.96C311.09 771.33 310.54 771.63 310.02 771.69C309.5 771.75 309.1 771.55 308.76 771.11C308.11 770.17 307.49 769.01 306.9 768.05C306.61 767.55 306.27 767.06 306.12 766.64C305.96 766.2 306.05 765.91 306.36 765.79C307.07 765.5 307.76 766.3 308.24 766.98C310.23 769.77 310.2 772.12 310.38 772.06Z" fill="#1A2E35"/>
<path d="M270.2 773.43L250.24 816.68L218.04 801.8L238.68 748.28L270.2 773.43Z" fill="#FFC19D"/>
<path d="M254.01 813.79L242.35 836.02C242.35 836.02 272.19 866.88 269.39 873.77L199.24 840.13L218.51 795.54L254.01 813.79Z" fill="#375A64"/>
<path d="M222.12 822.59C220.58 822.31 218.91 823.39 218.57 824.91C218.23 826.43 219.31 828.14 220.84 828.45C222.37 828.76 224.41 827.53 224.59 825.97C224.76 824.42 223.38 822.48 221.82 822.55" fill="#E1E1E1"/>
<g opacity="0.6">
<path d="M199.24 840.14L202.16 834.55L268.33 868.89C268.33 868.89 270.8 871.75 269.39 873.78L199.24 840.14Z" fill="white"/>
</g>
<path d="M243.66 836.21C243.48 836.55 241.7 835.88 239.48 836.17C237.26 836.41 235.68 837.47 235.43 837.19C235.15 836.97 236.64 835.17 239.33 834.86C242.01 834.53 243.89 835.94 243.66 836.21Z" fill="#1A2E35"/>
<path d="M249.56 842.79C249.48 843.16 247.72 843.03 245.86 843.92C243.98 844.76 242.93 846.18 242.6 846C242.25 845.9 242.98 843.78 245.31 842.72C247.63 841.63 249.71 842.46 249.56 842.79Z" fill="#1A2E35"/>
<path d="M249.52 853.6C249.17 853.52 249.52 851.58 251.3 850.13C253.07 848.66 255.04 848.7 255.05 849.05C255.11 849.42 253.59 849.93 252.14 851.15C250.67 852.33 249.87 853.73 249.52 853.6Z" fill="#1A2E35"/>
<path d="M247.01 827.65C246.72 827.89 245.37 826.67 243.37 825.87C241.39 825.03 239.57 824.96 239.53 824.58C239.45 824.24 241.53 823.67 243.87 824.65C246.22 825.6 247.31 827.46 247.01 827.65Z" fill="#1A2E35"/>
<path d="M260.59 808.02L313.19 676.38C313.19 676.38 312.01 653.92 307.87 646.83C303.73 639.74 178.43 598.36 178.43 598.36C178.43 598.36 146.51 590.68 125.24 598.36C103.96 606.04 88.0001 632.64 90.9601 647.42C93.9201 662.2 106.39 673.05 106.39 673.05L198.53 675.79L248.75 694.11L214.93 791.04L260.59 808.02Z" fill="#1A2E35"/>
<path d="M307.37 718.07L308.56 765.68L273.1 766.55L267.99 709.41L307.37 718.07Z" fill="#FFC19D"/>
<path d="M310.67 761.43L310.02 786.53C310.02 786.53 350.42 801.04 350.95 808.47L273.15 809.26L270.76 760.74L310.67 761.43Z" fill="#375A64"/>
<path d="M285.93 783.4C284.43 783.83 283.41 785.53 283.77 787.05C284.14 788.57 285.86 789.62 287.37 789.22C288.88 788.82 290.17 786.81 289.64 785.34C289.11 783.87 287.02 782.74 285.65 783.49" fill="#E1E1E1"/>
<g opacity="0.6">
<path d="M273.15 809.25L273.3 802.94L347.84 804.54C347.84 804.54 351.32 806.01 350.95 808.46L273.15 809.25Z" fill="white"/>
</g>
<path d="M311.28 786.12C311.27 786.5 309.37 786.69 307.52 787.93C305.63 789.12 304.68 790.78 304.33 790.63C303.98 790.56 304.52 788.28 306.8 786.82C309.05 785.34 311.35 785.77 311.28 786.12Z" fill="#1A2E35"/>
<path d="M319.47 789.41C319.56 789.78 317.92 790.44 316.65 792.06C315.33 793.64 315.02 795.38 314.64 795.37C314.28 795.43 314 793.21 315.62 791.23C317.22 789.23 319.46 789.05 319.47 789.41Z" fill="#1A2E35"/>
<path d="M324.2 799.13C323.86 799.21 323.31 797.32 324.26 795.23C325.2 793.13 326.98 792.29 327.15 792.61C327.37 792.92 326.23 794.05 325.47 795.78C324.67 797.48 324.58 799.09 324.2 799.13Z" fill="#1A2E35"/>
<path d="M310.5 776.95C310.34 777.3 308.6 776.79 306.45 776.96C304.3 777.08 302.64 777.82 302.44 777.5C302.22 777.23 303.83 775.8 306.36 775.64C308.89 775.46 310.68 776.65 310.5 776.95Z" fill="#1A2E35"/>
<path d="M286.66 585.88C286.66 585.88 307.91 584.18 310.27 607.23C312.63 630.28 314.96 737.85 314.96 737.85L265.31 741.99L257.63 632.06L178.43 598.37C178.43 598.37 272.48 582.93 286.66 585.88Z" fill="#1A2E35"/>
<path d="M199.09 554.78C199.09 554.78 211.98 590.93 209.53 594.96C207.07 598.99 173.92 615.57 173.92 615.57L90.9501 647.43C90.9501 647.43 82.4301 633.87 82.4301 613.05C82.4301 592.23 111.29 554.78 111.29 554.78H199.09Z" fill="#1A2E35"/>
<path d="M174.5 596.53C174.49 596.54 174.63 596.61 174.89 596.74C175.19 596.88 175.58 597.06 176.07 597.29C177.16 597.78 178.7 598.46 180.66 599.33C184.73 601.1 190.58 603.65 197.91 606.84C212.71 613.21 233.45 622.14 257.45 632.47L257.18 632.09C257.93 642.95 258.75 654.68 259.59 666.81C261.61 695.17 263.47 721.33 264.94 742.02L264.97 742.39L265.34 742.36C280.44 741.03 292.83 739.95 301.51 739.19C305.78 738.79 309.13 738.48 311.47 738.26C312.57 738.15 313.44 738.06 314.07 737.99C314.66 737.92 314.96 737.88 314.96 737.86C314.96 737.84 314.65 737.85 314.06 737.88C313.42 737.92 312.55 737.97 311.45 738.04C309.1 738.21 305.75 738.46 301.47 738.77C292.79 739.46 280.39 740.43 265.27 741.63L265.67 741.97C264.25 721.28 262.45 695.12 260.51 666.75C259.66 654.62 258.83 642.89 258.07 632.03L258.05 631.76L257.8 631.65C233.75 621.44 212.96 612.62 198.13 606.32C190.76 603.23 184.88 600.76 180.78 599.05C178.79 598.23 177.24 597.6 176.13 597.14C175.63 596.94 175.23 596.79 174.92 596.67C174.65 596.56 174.51 596.51 174.5 596.53Z" fill="#375A64"/>
<path d="M108.52 600.14C108.54 600.2 109.37 599.97 110.85 599.5C112.5 598.97 114.59 598.29 117.1 597.49C122.37 595.82 129.68 593.49 138.01 592.21C146.33 590.93 154.03 591.32 159.41 592.49C164.81 593.61 167.92 595.15 167.99 594.97C168.01 594.92 167.26 594.5 165.83 593.88C164.4 593.26 162.27 592.5 159.55 591.85C154.13 590.5 146.29 590 137.87 591.3C129.45 592.6 122.12 595.04 116.89 596.88C114.27 597.81 112.18 598.6 110.73 599.17C109.29 599.74 108.5 600.08 108.52 600.14Z" fill="#375A64"/>
<path d="M120.25 581.09C120.27 581.24 123.03 580.7 127.5 581.05C129.73 581.21 132.39 581.55 135.35 581.89C138.31 582.24 141.55 582.64 144.91 583.28C151.65 584.48 157.45 586.83 161.17 589.31C164.92 591.75 166.68 593.98 166.81 593.85C166.85 593.82 166.47 593.22 165.61 592.29C164.75 591.36 163.42 590.07 161.54 588.77C157.84 586.09 151.91 583.58 145.09 582.37C141.69 581.73 138.42 581.35 135.45 581.05C132.48 580.75 129.81 580.48 127.54 580.4C125.27 580.32 123.43 580.45 122.17 580.64C120.91 580.82 120.24 581.03 120.25 581.09Z" fill="#375A64"/>
<path d="M156.89 290.58C147.34 288.96 138.95 292.63 130.9 298.01C122.85 303.39 116.79 311.51 113.29 320.54C109.6 330.05 108.71 340.75 111.54 350.55C114.37 360.35 121.08 369.12 130.18 373.74C142.6 380.05 158.48 377.85 169.59 369.45C180.7 361.05 187.05 347.16 187.58 333.24C187.95 323.65 185.66 313.84 180.3 305.88C174.94 297.92 166.39 291.97 156.89 290.58Z" fill="#1A2E35"/>
<path d="M129.74 323.04C131.14 319.39 130.59 315.31 131.15 311.44C132.37 302.92 139.23 296.08 147.18 292.76C154.57 289.67 163.59 290.34 172.5 293.22C178.6 295.19 184.34 298.63 188.41 303.59C193.81 310.17 195.71 319.46 193.33 327.63L149.72 321.28C145.64 324.66 141.46 328.09 136.5 329.98C135.05 330.53 133.48 330.95 131.95 330.71C130.41 330.47 128.92 329.42 128.56 327.91C128.16 326.25 129.14 324.63 129.74 323.04Z" fill="#1A2E35"/>
<path d="M173.43 305.26L135.36 313.33C131.68 313.58 128.79 316.6 128.72 320.29L129.18 402.69C129.21 408.32 131.1 413.78 134.55 418.23L138.18 422.91C146.46 433.59 163.23 432.51 169.55 420.57C169.99 419.74 170.3 419 170.43 418.41C170.56 417.67 170.75 417.18 170.79 416.55L171.52 408.52C171.89 401.18 171.94 393.73 171.94 393.8C171.94 393.8 187.52 391.83 191.51 371.76C193.5 361.78 193.63 345.29 193.3 331.79C193 319.63 185.55 304.45 173.43 305.26Z" fill="#FFC19D"/>
<path d="M187.5 347.24C187.5 348.61 186.33 349.74 184.9 349.76C183.47 349.78 182.32 348.69 182.32 347.32C182.33 345.95 183.49 344.82 184.92 344.8C186.35 344.78 187.51 345.87 187.5 347.24Z" fill="#1A2E35"/>
<path d="M189.39 340.21C189.06 340.54 187.15 339.01 184.36 338.91C181.58 338.77 179.48 340.12 179.19 339.77C179.05 339.61 179.4 339.02 180.31 338.4C181.21 337.79 182.73 337.22 184.47 337.29C186.21 337.37 187.64 338.06 188.46 338.75C189.29 339.44 189.55 340.06 189.39 340.21Z" fill="#1A2E35"/>
<path d="M162.52 346.62C162.52 347.99 161.35 349.12 159.92 349.14C158.49 349.16 157.34 348.07 157.34 346.7C157.34 345.33 158.51 344.2 159.94 344.18C161.37 344.15 162.52 345.25 162.52 346.62Z" fill="#1A2E35"/>
<path d="M162.92 339.53C162.58 339.86 160.68 338.33 157.89 338.23C155.11 338.09 153.01 339.44 152.72 339.09C152.58 338.93 152.93 338.34 153.84 337.72C154.74 337.11 156.26 336.54 158 336.61C159.74 336.69 161.17 337.38 161.99 338.07C162.81 338.76 163.08 339.38 162.92 339.53Z" fill="#1A2E35"/>
<path d="M171.28 360.73C171.27 360.57 173.02 360.34 175.84 360.09C176.55 360.04 177.23 359.93 177.37 359.45C177.56 358.94 177.29 358.16 176.98 357.32C176.38 355.57 175.75 353.74 175.08 351.82C172.46 343.99 170.59 337.56 170.9 337.46C171.22 337.36 173.6 343.62 176.22 351.45C176.85 353.38 177.45 355.22 178.02 356.98C178.26 357.8 178.69 358.74 178.28 359.79C178.07 360.31 177.53 360.68 177.07 360.79C176.61 360.91 176.21 360.9 175.85 360.91C173.04 360.95 171.29 360.89 171.28 360.73Z" fill="#1A2E35"/>
<path d="M171.93 393.79C171.93 393.79 158.31 394.14 145.16 385.52C145.16 385.52 151.42 399.77 171.71 398.66L171.93 393.79Z" fill="#FF9C6A"/>
<path d="M169.84 367.4C168.89 366.04 167.16 365.24 165.41 365.36C164.2 365.44 162.95 365.98 162.18 366.94C161.41 367.9 161.2 369.29 161.83 370.25C162.54 371.34 164.1 371.64 165.45 371.32C166.8 370.99 167.97 370.16 169.1 369.33C169.41 369.1 169.73 368.86 169.93 368.54C170.13 368.22 170.19 367.79 169.97 367.5" fill="#FF9C6A"/>
<path d="M163 362.34C163.45 362.33 163.34 365.36 165.85 367.61C168.35 369.87 171.59 369.65 171.6 370.07C171.64 370.26 170.86 370.63 169.5 370.61C168.16 370.6 166.23 370.1 164.7 368.72C163.17 367.34 162.56 365.56 162.5 364.31C162.43 363.05 162.8 362.32 163 362.34Z" fill="#1A2E35"/>
<path d="M162.76 331.25C162.46 332 159.69 331.53 156.4 331.8C153.11 332 150.43 332.86 150.03 332.16C149.85 331.83 150.34 331.13 151.43 330.44C152.52 329.75 154.23 329.12 156.2 328.98C158.17 328.84 159.96 329.22 161.13 329.75C162.31 330.28 162.89 330.9 162.76 331.25Z" fill="#1A2E35"/>
<path d="M189.05 327.99C188.54 328.6 186.64 327.87 184.33 327.75C182.03 327.55 180.05 328.01 179.62 327.33C179.43 327 179.77 326.38 180.65 325.81C181.52 325.25 182.94 324.81 184.53 324.92C186.11 325.03 187.47 325.66 188.24 326.34C189.04 327.02 189.28 327.69 189.05 327.99Z" fill="#1A2E35"/>
<path d="M122.76 317.16C126.71 305.57 143.94 289.77 156.14 290.86L175.41 302.95C174.1 309.57 168.85 315.26 162.35 317.1C158.88 318.08 154.72 318.29 152.61 321.21C150.46 324.2 151.59 328.63 149.58 331.72C146.79 336 139.41 335.64 137.29 340.29C136.36 342.32 136.78 344.77 135.82 346.78C134.54 349.46 127.62 352.75 124.81 351.8C122 350.85 122.08 346.02 121.21 343.48C119.71 339.13 120.41 336.91 120.98 334.51C122.33 328.82 120.88 322.69 122.76 317.16Z" fill="#1A2E35"/>
<path d="M133.13 354.35C133.18 352.85 131.58 349.23 130.11 348.94C126.17 348.17 119 348.21 118.55 358.28C117.92 372.05 131.88 369.84 131.92 369.44C131.94 369.14 132.94 359.54 133.13 354.35Z" fill="#FFC19D"/>
<path d="M127.94 364.04C127.88 363.99 127.69 364.2 127.28 364.36C126.88 364.52 126.19 364.62 125.49 364.32C124.06 363.72 122.94 361.36 122.99 358.87C123.01 357.61 123.33 356.43 123.82 355.47C124.29 354.48 124.97 353.81 125.71 353.71C126.45 353.57 126.94 354.04 127.1 354.43C127.27 354.82 127.17 355.1 127.24 355.12C127.28 355.16 127.55 354.9 127.46 354.33C127.42 354.05 127.27 353.72 126.96 353.44C126.64 353.16 126.16 353 125.65 353.03C124.58 353.06 123.58 353.99 123.05 355.05C122.45 356.11 122.07 357.44 122.04 358.85C122 361.63 123.3 364.29 125.27 364.95C126.23 365.25 127.05 364.99 127.48 364.69C127.9 364.37 127.99 364.06 127.94 364.04Z" fill="#FF9C6A"/>
<path d="M119.82 313.59C119.86 309.28 114.48 306.46 110.29 305.49C106.09 304.51 101.66 305.79 97.8799 307.86C95.6699 309.07 93.4399 310.79 92.9499 313.26C92.4599 315.73 94.8299 318.68 97.1899 317.79C92.6699 319.34 90.3799 325.38 92.7299 329.53C95.0799 333.69 101.44 334.83 105.09 331.75C103.91 335.7 101.34 339.21 97.9299 341.52C105.01 342.53 112.53 339.5 116.94 333.87C121.36 328.25 122.49 320.22 119.82 313.59Z" fill="#1A2E35"/>
<path d="M110.26 335.49C110.16 335.51 109.79 333.94 109.75 331.36C109.7 328.78 110.08 325.18 111.34 321.42C112.61 317.67 114.49 314.57 116.09 312.55C117.69 310.52 118.93 309.5 119 309.57C119.25 309.75 114.63 314.32 112.2 321.71C109.66 329.06 110.57 335.5 110.26 335.49Z" fill="#FF735D"/>
<path d="M171.42 298.79C172.69 304.4 181.21 311.58 184.95 315.95C192.09 324.28 193.49 327.04 193.42 345.66C196.79 339.23 199.37 332.93 199.11 325.68C198.85 318.43 196.18 311.16 191.14 305.94C186.09 300.71 178.6 297.75 171.42 298.79Z" fill="#1A2E35"/>
<path d="M229.82 451.99C229.82 451.99 214.98 427.25 210.86 422.24C207 417.55 202.02 414.78 198.7 413.33C196.85 412.52 194.91 411.97 192.92 411.62L171.58 406.89C171.58 406.89 171.54 421.46 156.28 422.36C141.02 423.26 128.16 402 128.16 402C128.16 402 103.5 405.81 97.6 408.85C91.7 411.88 82.43 415.74 77.33 441.29L73.75 466.28L116.27 470.21L120.34 533.39L141.43 548.07C141.43 548.07 199.89 563.27 203.62 564.27C207.36 565.27 208.59 470.21 208.59 470.21C208.59 470.21 223.6 460.5 229.82 451.99Z" fill="#1A2E35"/>
<path d="M201.83 441.37C201.89 441.35 202.17 442 202.65 443.19C203.14 444.38 203.76 446.14 204.45 448.33C205.83 452.71 207.35 458.91 208.21 465.89C209.06 472.87 209.08 479.25 208.79 483.84C208.65 486.14 208.47 487.99 208.29 489.26C208.12 490.53 207.99 491.23 207.93 491.23C207.87 491.22 207.88 490.51 207.96 489.23C208.04 487.95 208.13 486.1 208.19 483.82C208.32 479.25 208.21 472.92 207.36 466C206.51 459.08 205.09 452.91 203.86 448.51C203.25 446.31 202.72 444.53 202.33 443.31C201.96 442.08 201.78 441.39 201.83 441.37Z" fill="#375A64"/>
<path d="M200.02 544.86L119.97 527.43L116.27 470.21L80.67 466.92C80.67 466.92 81.99 506.04 83.36 517.66C85.33 534.38 95.22 557.21 101 561.77C106.78 566.33 203.62 564.27 203.62 564.27L200.02 544.86Z" fill="#FFC19D"/>
<path d="M245.46 555.23C244.9 556.35 243.73 557.08 242.48 556.97C242.23 556.95 241.97 556.9 241.7 556.81C239.93 556.24 240.1 552.64 240.1 552.64L231.62 551.25C231.62 551.25 220.59 558.36 216.66 563.08C212.74 567.8 202.72 563.98 202.72 563.98L199.25 545.9L214.87 531.78C214.87 531.78 213.91 532.62 214.99 529.98C216.07 527.34 220.97 528.34 220.97 528.34C221.73 527.03 224.94 526.57 224.94 526.57L238.64 528.15C241.46 528.48 243.99 530.06 245.5 532.46L251.29 541.63C251.29 541.63 254.35 548.23 253.86 549.77C253.12 552.09 250.67 551.57 250.67 551.57C250.67 551.57 250 555.91 248.86 556.06C247.71 556.19 245.46 555.23 245.46 555.23Z" fill="#FFC19D"/>
<path d="M216.31 542.24C216.32 542.38 218.15 542.22 221.07 542.34C223.99 542.48 228.03 542.99 232.25 544.43C234.36 545.14 236.31 546 238.01 546.89C239.67 547.82 241.39 548.59 241.92 549.79C242.19 550.38 242.07 550.98 241.77 551.42C241.48 551.86 241.09 552.15 240.74 552.29C240.02 552.59 239.56 552.38 239.54 552.47C239.51 552.49 239.96 552.85 240.85 552.61C241.28 552.49 241.77 552.21 242.17 551.7C242.58 551.22 242.81 550.35 242.49 549.56C242.19 548.76 241.51 548.14 240.79 547.64C240.04 547.15 239.26 546.65 238.39 546.18C236.67 545.22 234.68 544.32 232.52 543.6C228.2 542.13 224.04 541.7 221.08 541.72C218.1 541.76 216.29 542.15 216.31 542.24Z" fill="#FF9C6A"/>
<path d="M215.35 550.98C215.37 551.24 220.94 551.01 227.79 551.41C234.64 551.79 240.15 552.65 240.2 552.39C240.22 552.28 238.86 551.92 236.63 551.52C234.4 551.13 231.29 550.73 227.84 550.53C224.39 550.34 221.25 550.38 218.99 550.52C216.73 550.66 215.34 550.86 215.35 550.98Z" fill="#FF9C6A"/>
<path d="M245.38 554.88C245.43 554.87 245.49 554.37 245.55 553.42C245.61 552.48 245.66 551.11 245.56 549.41C245.5 548.56 245.41 547.63 245.18 546.63C244.96 545.63 244.49 544.58 243.83 543.65C242.6 541.78 240.88 539.85 238.7 538.39C236.53 536.96 234.35 535.74 232.15 535.08C229.97 534.42 227.92 534.26 226.23 534.18C224.54 534.12 223.17 534.16 222.23 534.19C221.29 534.23 220.77 534.28 220.77 534.34C220.76 534.48 222.86 534.55 226.2 534.79C227.86 534.94 229.84 535.17 231.91 535.84C233.96 536.5 236.1 537.71 238.21 539.1C240.32 540.51 241.92 542.28 243.17 544.09C244.49 545.82 244.74 547.8 244.95 549.45C245.27 552.78 245.19 554.89 245.38 554.88Z" fill="#FF9C6A"/>
<path d="M225.6 530.03C225.6 530.16 227.65 530.21 230.92 530.59C234.07 531.07 239.11 531.3 241.99 535.65C245.1 539.6 247.75 543.33 248.9 546.39C250.13 549.43 250.02 551.53 250.2 551.52C250.25 551.52 250.33 551 250.28 550.07C250.24 549.13 250.04 547.77 249.48 546.18C248.43 542.95 245.8 539.08 242.67 535.1C241.87 534.1 241.01 533.16 240.01 532.41C239.01 531.65 237.85 531.21 236.79 530.9C234.63 530.29 232.64 530.11 230.98 529.98C227.65 529.76 225.59 529.92 225.6 530.03Z" fill="#FF9C6A"/>
<path d="M219.65 560.16C219.67 560.18 219.95 559.97 220.46 559.54C221.05 559.07 221.81 558.46 222.75 557.7C224.77 556.14 227.78 553.91 231.75 551.5L231.56 551.54C234.09 551.97 236.94 552.46 240.03 552.98L239.74 552.62C239.72 553.31 239.76 553.99 239.9 554.69C240.04 555.38 240.26 556.12 240.86 556.73C241.17 557.02 241.62 557.2 241.98 557.25C242.36 557.35 242.77 557.38 243.17 557.32C243.98 557.2 244.74 556.78 245.28 556.15C245.42 556 245.54 555.82 245.65 555.65L245.73 555.51L245.77 555.44L245.79 555.41C245.9 555.37 244.84 555.75 245.29 555.59H245.3L245.32 555.6L245.59 555.71C245.95 555.85 246.31 555.98 246.69 556.1C247.06 556.22 247.45 556.32 247.85 556.39C248.05 556.42 248.26 556.45 248.48 556.46C248.69 556.47 248.94 556.48 249.27 556.31C249.75 555.97 249.92 555.57 250.1 555.19C250.27 554.81 250.41 554.42 250.52 554.02C250.75 553.23 250.92 552.44 251.06 551.62L250.56 551.96C251.66 552.15 252.96 551.89 253.72 550.88C254.06 550.41 254.34 549.83 254.3 549.17C254.27 548.58 254.14 548.06 254 547.53C253.41 545.45 252.57 543.45 251.66 541.43L251.65 541.41L251.63 541.38C250.65 539.82 249.6 538.16 248.54 536.49C247.88 535.45 247.23 534.42 246.58 533.39C245.93 532.4 245.35 531.28 244.43 530.39C243.55 529.5 242.49 528.8 241.36 528.35C240.23 527.86 238.97 527.74 237.87 527.62C233.33 527.11 229 526.62 224.96 526.17L224.9 526.16L224.85 526.17C224.06 526.3 223.31 526.49 222.59 526.77C221.88 527.06 221.13 527.38 220.62 528.15L221.1 528C219.65 527.4 217.97 527.4 216.7 528.25C215.42 529.09 214.84 530.44 214.52 531.72L214.62 531.54C210.14 535.57 206.48 538.86 203.86 541.22C202.65 542.33 201.69 543.22 200.96 543.89C200.3 544.51 199.97 544.85 199.99 544.87C200.01 544.89 200.39 544.6 201.08 544.03C201.84 543.39 202.84 542.55 204.09 541.49C206.75 539.19 210.48 535.97 215.04 532.03L215.11 531.97L215.14 531.85C215.43 530.73 216.01 529.49 217.06 528.84C218.08 528.15 219.55 528.17 220.77 528.68L221.07 528.81L221.25 528.54C221.54 528.08 222.19 527.74 222.85 527.5C223.51 527.26 224.24 527.08 224.96 526.96H224.86C228.9 527.44 233.23 527.95 237.76 528.48C238.92 528.61 240 528.71 241.03 529.16C242.06 529.58 243.01 530.21 243.81 531.01C244.62 531.79 245.17 532.84 245.84 533.87C246.49 534.9 247.14 535.93 247.8 536.97C248.86 538.64 249.91 540.3 250.89 541.86L250.86 541.81C251.75 543.79 252.59 545.79 253.16 547.77C253.29 548.26 253.42 548.77 253.44 549.22C253.49 549.61 253.29 550.03 253.04 550.38C252.55 551.08 251.55 551.29 250.72 551.16L250.29 551.09L250.22 551.5C250.09 552.27 249.93 553.06 249.71 553.8C249.51 554.5 249.2 555.35 248.82 555.63C248.8 555.64 248.66 555.69 248.47 555.67C248.3 555.67 248.13 555.64 247.95 555.62C247.6 555.56 247.24 555.47 246.89 555.36C246.54 555.25 246.19 555.13 245.85 555L245.6 554.9L245.59 554.89H245.58C246.03 554.73 244.97 555.11 245.08 555.07L245.07 555.1L245.04 555.15L244.98 555.26C244.89 555.4 244.8 555.54 244.69 555.66C244.27 556.16 243.67 556.49 243.05 556.59C242.74 556.64 242.43 556.61 242.12 556.54C241.78 556.49 241.56 556.4 241.35 556.22C240.54 555.38 240.43 553.88 240.42 552.68V552.37L240.13 552.32C237.03 551.84 234.17 551.39 231.64 550.99L231.53 550.97L231.44 551.02C227.47 553.52 224.51 555.82 222.54 557.47C221.56 558.3 220.82 558.97 220.34 559.43C219.88 559.89 219.63 560.14 219.65 560.16Z" fill="#FF9C6A"/>
<path d="M349.32 502.63L243.88 503.49C240.46 503.49 237.19 505.13 236.68 508.52L225.16 585.37H170.85C169.1 585.37 167.68 586.79 167.68 588.54C167.68 590.29 169.1 591.71 170.85 591.71H224.21H234.34H344.31L356.17 510.6C356.8 506.4 353.56 502.63 349.32 502.63Z" fill="#E1E1E1"/>
<path d="M349.32 502.63C349.32 502.63 349.89 502.56 350.98 502.79C352.04 503.04 353.7 503.69 355.01 505.46C355.66 506.33 356.16 507.49 356.31 508.83C356.48 510.19 356.09 511.62 355.92 513.17C355.48 516.28 354.97 519.85 354.4 523.87C352.08 539.98 348.73 563.2 344.62 591.75L344.58 592.03H344.3C299.41 592.06 240.43 592.09 176.01 592.13C174.5 592.13 172.99 592.13 171.48 592.13C170.78 592.16 169.81 592.12 169.08 591.67C168.33 591.26 167.75 590.57 167.46 589.77C166.83 588.16 167.58 586.19 169.1 585.39C169.82 584.95 170.79 584.92 171.48 584.94H173.71C179.65 584.94 185.53 584.94 191.34 584.94C202.95 584.94 214.26 584.95 225.15 584.95L224.74 585.3C228.89 557.78 232.76 532.1 236.23 509.07C236.35 507.61 237.01 506.03 238.18 505.05C239.32 504.03 240.77 503.5 242.21 503.27C243.68 503.05 245.07 503.17 246.46 503.12C247.85 503.11 249.23 503.1 250.6 503.09C256.08 503.05 261.37 503.02 266.47 502.98C276.68 502.92 286.11 502.86 294.68 502.8C311.8 502.71 325.45 502.64 334.84 502.59C339.51 502.58 343.12 502.58 345.58 502.57C346.79 502.58 347.71 502.58 348.35 502.58C349 502.61 349.32 502.63 349.32 502.63C349.32 502.63 349 502.66 348.38 502.67C347.73 502.68 346.81 502.7 345.61 502.73C343.14 502.77 339.53 502.82 334.87 502.89C325.47 502.99 311.83 503.15 294.71 503.34C286.14 503.42 276.7 503.52 266.5 503.62C261.4 503.67 256.1 503.72 250.63 503.77C249.26 503.78 247.88 503.8 246.49 503.81C245.1 503.86 243.68 503.75 242.34 503.96C241 504.17 239.67 504.68 238.66 505.58C237.62 506.48 237.08 507.74 236.95 509.18C233.51 532.22 229.68 557.9 225.58 585.43L225.53 585.78H225.18C214.28 585.78 202.98 585.79 191.37 585.79C185.57 585.79 179.69 585.79 173.74 585.79H171.51C170.72 585.77 170.14 585.8 169.55 586.13C168.39 586.74 167.82 588.24 168.3 589.47C168.52 590.08 168.97 590.61 169.54 590.92C170.13 591.26 170.72 591.29 171.52 591.27C173.03 591.27 174.54 591.27 176.05 591.27C240.46 591.31 299.45 591.34 344.34 591.37L344.02 591.65C348.25 563.12 351.69 539.91 354.08 523.81C354.68 519.79 355.22 516.22 355.69 513.12C355.88 511.57 356.27 510.14 356.12 508.85C355.99 507.56 355.52 506.42 354.9 505.57C353.65 503.83 352.04 503.15 351 502.88C349.9 502.62 349.32 502.67 349.32 502.63Z" fill="#1A2E35"/>
<path d="M292.13 552.78C295.775 552.78 298.73 549.825 298.73 546.18C298.73 542.535 295.775 539.58 292.13 539.58C288.485 539.58 285.53 542.535 285.53 546.18C285.53 549.825 288.485 552.78 292.13 552.78Z" fill="white"/>
<path d="M229.43 590.98C229.58 591 232.94 571.44 236.93 547.28C240.92 523.11 244.04 503.51 243.89 503.48C243.74 503.46 240.39 523.02 236.39 547.19C232.39 571.35 229.28 590.96 229.43 590.98Z" fill="#1A2E35"/>
</g>
<defs>
<clipPath id="clip0_3_6609">
<rect width="842" height="873.78" fill="white"/>
</clipPath>
</defs>
</svg>
