<svg width="640" height="648" viewBox="0 0 640 648" fill="none" xmlns="http://www.w3.org/2000/svg">
<path d="M143.69 401.02C136.01 401.68 128.48 404.2 121.87 408.32C118.82 410.22 115.79 412.71 114.8 416.26C114.59 417.01 114.53 417.94 115.08 418.47C115.49 418.86 116.1 418.9 116.65 418.91C127.75 418.98 138.93 411.39 143.69 401.02Z" fill="#B3BCBC"/>
<path d="M142.88 400.85C136.66 400.73 130.39 400.6 124.29 399.35C118.18 398.1 112.18 395.64 107.53 391.36C106.12 390.06 104.76 388.38 104.82 386.43C118.98 386.72 132.75 390.6 142.88 400.85Z" fill="#B3BCBC"/>
<path d="M143.55 401.02C139.21 396.49 135.2 391.48 132.72 385.63C130.24 379.79 129.4 373 131.45 366.98C135.7 369.51 138.15 374.33 139.89 379.08C142.58 386.42 144.11 394.21 144.39 402.05" fill="#B3BCBC"/>
<path d="M164.07 410.46C159.24 415.26 156.72 421.75 155.45 428.55C154.18 435.35 154.99 442.56 157.74 448.87C162.71 444.49 164.37 437.25 164.48 430.49C164.59 423.73 163.42 417.32 164.05 410.6" fill="#B3BCBC"/>
<path d="M167.85 411.58C155.66 403.99 147.68 389.64 147.47 374.91C158.57 383.7 166.58 397.16 167.85 411.58Z" fill="#B3BCBC"/>
<path d="M189.74 416.85C184.69 420.29 180.66 425.29 178.28 431.03C175.9 436.78 175.2 443.26 176.28 449.41C176.43 450.25 176.73 451.22 177.52 451.46C178.2 451.67 178.9 451.2 179.44 450.72C183.89 446.77 185.92 440.64 186.93 434.67C187.94 428.7 188.15 422.55 189.84 416.75" fill="#B3BCBC"/>
<path d="M188.81 416.36C180.35 410.05 173.69 401.19 169.86 391.16C168.35 387.2 167.3 382.6 169.12 378.78C169.28 378.45 169.48 378.11 169.82 378.01C170.14 377.91 170.48 378.07 170.77 378.23C173.45 379.68 175.62 382.01 177.32 384.59C179.03 387.18 180.31 390.03 181.59 392.87C183.95 398.12 186.99 403.38 187.42 409.16C187.52 410.53 187.75 411.92 188.01 413.27C188.28 414.62 188.53 414.97 188.68 416.08" fill="#B3BCBC"/>
<path d="M222.84 397.29C214.1 390.12 208.66 377.42 208.79 365.88C208.8 365.03 208.91 364.04 209.61 363.59C210.68 362.91 211.94 364.09 212.65 365.16C218.87 374.6 222.44 385.88 222.84 397.29Z" fill="#B3BCBC"/>
<path d="M227.01 397.1C239.53 391.78 249.57 379.69 253.46 366.26C246.33 367.56 239.68 371.52 235.01 377.25C230.33 382.98 227.07 389.6 227.01 397.1Z" fill="#B3BCBC"/>
<path d="M225.03 389.35C223.72 374.88 230.28 359.67 241.07 350.37C243.2 356.1 242.11 362.68 239.49 368.18C236.87 373.68 232.85 378.32 228.88 382.87C227.33 384.63 225.13 386.96 225.03 389.35Z" fill="#B3BCBC"/>
<path d="M199.61 363.99C197.11 357.12 194.59 350.19 190.78 343.99C186.97 337.79 181.74 332.31 175.16 329.56C177.64 344.81 186.39 358.07 199.87 364.7" fill="#B3BCBC"/>
<path d="M211.07 339.98C208.74 322.93 214.83 303.13 227.09 291.49C231.52 308.63 224.97 329.62 211.07 339.98Z" fill="#B3BCBC"/>
<path d="M208.75 345.48C219.4 339.56 232.13 339.55 243.84 336.44C246.34 335.77 248.88 334.83 250.73 332.95C252.58 331.08 253.57 328.08 252.52 325.63C251.65 323.6 249.55 322.35 247.43 322.01C245.31 321.67 243.15 322.11 241.06 322.66C228.29 326.03 217.78 334.03 209.37 344.54" fill="#B3BCBC"/>
<path d="M208.25 356.73C210.88 355.69 212.46 356.28 215.27 356.45C224.8 357.06 234.46 355.35 243.26 351.5C244.18 351.1 245.25 350.39 245.1 349.37C244.98 348.48 244 348.04 243.16 347.82C237.14 346.21 230.71 346.9 224.75 348.73C218.78 350.56 213.18 351.53 207.95 356.32" fill="#B3BCBC"/>
<path d="M171.61 319.64C184.83 321.11 198.58 316.46 208.4 307.19C208.85 306.77 209.31 306.28 209.37 305.66C209.51 304.26 207.69 303.66 206.33 303.63C192.68 303.37 180.15 308.59 171.61 319.64Z" fill="#B3BCBC"/>
<path d="M176.98 311.08C181.47 295.11 193.82 281.75 209.02 276.4C207.82 284.68 203.26 292.18 197.33 297.87C191.41 303.57 184.43 307.83 176.98 311.08Z" fill="#B3BCBC"/>
<path d="M160.07 294.09C152.77 285.84 148.22 278.38 141.14 269.9C140.57 269.22 139.8 268.48 138.97 268.72C137.81 269.06 137.89 270.79 138.28 271.97C141.7 282.21 149.95 290.58 159.91 293.91" fill="#B3BCBC"/>
<path d="M160.17 295.56C163.29 287.3 164.13 279.02 164.03 270.14C163.95 263.97 162.86 257.34 158.68 252.95C154.67 255.94 152.55 261.12 152.23 266.22C151.91 271.33 153.2 276.4 154.9 281.21C156.59 286.02 158.71 290.67 160.17 295.56Z" fill="#B3BCBC"/>
<path d="M171.25 280.65C180.49 265.81 187.15 249.24 190.8 231.98C185.35 233.49 181.31 238.26 178.39 243.27C171.72 254.71 168.8 267.53 171 280.69" fill="#B3BCBC"/>
<path d="M167.63 297.37C174.63 293.07 181.55 288.44 187.17 282.34C192.69 276.34 196.78 269.11 200.81 261.96C201.14 261.37 201.49 260.7 201.34 260.03C201.18 259.3 200.45 258.83 199.73 258.76C199.01 258.69 198.31 258.94 197.63 259.21C189.87 262.34 183.58 268.58 178.87 275.69C174.17 282.8 170.89 289.44 167.63 297.37Z" fill="#B3BCBC"/>
<path d="M142.65 342.62C131.54 336.82 124.02 325.82 120.94 313.34C126.7 315.49 130.94 320.63 134.1 326.06C137.26 331.48 139.54 337.83 143.12 342.97" fill="#B3BCBC"/>
<path d="M118.33 347.12C107.15 355.47 99.64 368.91 98.23 383.11C104.38 379.73 108.98 373.85 112.16 367.43C115.33 361.01 117.21 354 119.06 347.05" fill="#B3BCBC"/>
<path d="M103.49 352.23C97.77 355.97 92.08 359.31 88.08 364.99C84.09 370.67 82.07 378.07 83.71 384.89C89.18 381.56 93.35 376.27 96.4 370.51C99.45 364.74 101.48 358.47 103.49 352.23Z" fill="#B3BCBC"/>
<path d="M121.19 338.77C113.95 339.25 106.54 339.77 99.9 342.8C93.26 345.83 87.44 351.92 86.7 359.4C93.29 358.62 99.07 354.64 104.37 350.51C109.67 346.38 116.13 341.27 122.45 339.22" fill="#B3BCBC"/>
<path d="M121.41 339.01C107 337.02 92.87 324.31 87.85 310.18C101.81 315.38 113.9 325.77 121.41 339.01Z" fill="#B3BCBC"/>
<path d="M126.9 297.38C125.73 292.4 123.97 287.59 122.6 282.66C121.23 277.73 120.24 272.61 120.68 267.5C121.13 262.39 123.15 257.28 126.96 254C132.9 267.53 132.97 283.69 127.15 297.28" fill="#B3BCBC"/>
<path d="M126.38 305.57C121.12 303.89 114.49 301.21 108.99 301.18C103.48 301.15 97.7001 303.04 94.1801 307.43C104.39 312.11 116.74 311.4 126.38 305.57Z" fill="#B3BCBC"/>
<path d="M123.82 300.25C118.89 297.1 113.91 293.92 109.78 289.71C105.65 285.5 102.4 280.1 101.74 274.14C112.75 279.52 121.15 287.94 124.12 300.17" fill="#B3BCBC"/>
<path d="M107.1 269.97C103.27 259.13 106.37 246.55 112.65 237.01C113.44 235.81 114.34 234.62 115.58 233.93C116.82 233.24 118.48 233.18 119.54 234.14C120.94 235.4 120.71 237.68 120.31 239.56C117.95 250.48 113.43 260.9 107.1 269.97Z" fill="#B3BCBC"/>
<path d="M101.96 262.67C98.16 256.72 94.31 250.67 92.19 243.88C90.07 237.09 89.85 229.35 93.15 223.08C98.17 228.17 99.87 235.8 100.5 243.05C101.13 250.3 100.96 257.74 103.18 264.65" fill="#B3BCBC"/>
<path d="M104.67 266.7C97.87 261.92 91.72 253.91 83.93 251.19C78.48 249.29 72.38 249.86 67.13 247.45C68.45 252.49 72.15 256.6 76.5 259.24C80.85 261.88 85.83 263.19 90.79 264.1C95.75 265.01 99.77 265.47 104.67 266.7Z" fill="#B3BCBC"/>
<path d="M242.15 456.34C241.98 456.47 210.71 413.62 172.3 360.64C133.88 307.64 102.87 264.59 103.04 264.46C103.21 264.33 134.48 307.17 172.9 360.17C211.31 413.15 242.32 456.21 242.15 456.34Z" fill="#B3BCBC"/>
<path d="M185.14 299.46C185.18 299.49 184.78 300.14 184.02 301.28C183.18 302.54 182.11 304.17 180.81 306.12C178.12 310.21 174.48 315.92 170.75 322.41C167.13 328.94 163.48 334.78 162.48 339.59C161.97 341.98 162.14 343.99 162.46 345.31C162.78 346.64 163.15 347.31 163.09 347.34C163.07 347.35 162.96 347.19 162.78 346.88C162.62 346.55 162.38 346.06 162.18 345.39C161.76 344.06 161.5 341.97 161.96 339.48C162.42 337 163.54 334.21 165.03 331.31C166.52 328.41 168.23 325.27 170.11 322.01C173.86 315.51 177.57 309.82 180.38 305.8C181.78 303.79 182.96 302.19 183.78 301.1C184.62 300.01 185.1 299.43 185.14 299.46Z" fill="#B3BCBC"/>
<path d="M175.12 259.99C175.15 260 175.11 260.28 175.03 260.81C174.93 261.43 174.8 262.2 174.64 263.14C174.25 265.26 173.71 268.15 173.06 271.68C171.64 278.97 169.71 288.86 167.57 299.79C165.43 310.76 163.97 320.79 163.2 328.07C162.81 331.71 162.57 334.67 162.43 336.72C162.36 337.67 162.3 338.45 162.26 339.08C162.21 339.62 162.18 339.9 162.15 339.9C162.12 339.9 162.11 339.61 162.11 339.07C162.11 338.53 162.1 337.73 162.14 336.7C162.19 334.65 162.36 331.68 162.68 328.02C163.31 320.7 164.69 310.63 166.84 299.64C169.02 288.67 171.05 278.75 172.54 271.57C173.29 268.07 173.9 265.19 174.35 263.08C174.56 262.15 174.74 261.39 174.88 260.78C175.02 260.26 175.1 259.99 175.12 259.99Z" fill="#B3BCBC"/>
<path d="M164.99 311.27C164.76 311.32 163.78 307.05 162.16 301.93C160.56 296.8 158.7 292.86 158.9 292.75C159.07 292.64 161.25 296.48 162.87 301.68C163.69 304.27 164.26 306.66 164.6 308.4C164.95 310.15 165.09 311.24 164.99 311.27Z" fill="#B3BCBC"/>
<path d="M165.98 351.14C165.96 351.19 165.3 351.04 164.12 350.72C162.8 350.35 161.12 349.88 159.12 349.32C154.9 348.12 149.07 346.46 142.62 344.71C136.16 342.96 130.3 341.45 126.05 340.35C124.04 339.82 122.36 339.38 121.03 339.04C119.85 338.72 119.2 338.52 119.21 338.46C119.22 338.41 119.89 338.51 121.1 338.74C122.3 338.97 124.04 339.34 126.18 339.81C130.46 340.77 136.35 342.2 142.82 343.95C149.28 345.7 155.09 347.45 159.28 348.78C161.37 349.45 163.06 350.01 164.22 350.42C165.37 350.84 166 351.09 165.98 351.14Z" fill="#B3BCBC"/>
<path d="M150.38 346.75C150.36 346.93 146.35 345.98 142.37 342.88C139.53 340.73 137.64 338.2 136.9 336.96L137.18 336.78C137.42 337.37 137.53 337.7 137.47 337.73C137.42 337.76 137.21 337.48 136.88 336.94L137.16 336.76C138.1 337.84 140.05 340.17 142.81 342.27C146.67 345.26 150.46 346.52 150.38 346.75Z" fill="#B3BCBC"/>
<path d="M130.43 341.36C130.42 341.51 129.09 341.15 127.09 341.77C125.09 342.35 122.65 344.03 120.25 346.26C117.82 348.45 115.87 350.71 114.54 352.4C113.2 354.1 112.44 355.21 112.35 355.14C112.27 355.09 112.88 353.87 114.12 352.06C115.37 350.26 117.29 347.9 119.76 345.67C122.19 343.42 124.8 341.72 126.96 341.24C129.12 340.72 130.47 341.3 130.43 341.36Z" fill="#B3BCBC"/>
<path d="M125.64 340.01C125.66 340.14 123.88 340.5 121.1 341.44C118.33 342.37 114.59 343.98 110.84 346.45C107.09 348.93 104.1 351.76 102.12 353.97C100.13 356.18 99.07 357.71 98.96 357.63C98.92 357.6 99.15 357.19 99.6 356.48C100.05 355.76 100.77 354.77 101.72 353.61C103.62 351.28 106.62 348.33 110.43 345.8C114.25 343.29 118.09 341.72 120.94 340.92C122.36 340.51 123.53 340.25 124.35 340.14C125.18 340 125.64 339.96 125.64 340.01Z" fill="#B3BCBC"/>
<path d="M136.28 310.33C136.15 310.5 131.95 307.22 126.91 303C121.86 298.79 117.88 295.24 118.01 295.07C118.14 294.9 122.33 298.18 127.38 302.4C132.43 306.61 136.41 310.16 136.28 310.33Z" fill="#B3BCBC"/>
<path d="M136.45 310.2C136.32 310.4 133.54 308.18 129.52 306.84C125.5 305.4 122.02 305.82 122 305.6C121.98 305.51 122.84 305.24 124.27 305.2C125.7 305.15 127.68 305.39 129.75 306.1C133.93 307.5 136.58 310.07 136.45 310.2Z" fill="#B3BCBC"/>
<path d="M225.56 433.43C225.5 433.49 224.62 432.54 222.83 431.08C221.05 429.61 218.3 427.7 214.67 425.8C207.41 421.96 196.62 418.32 184.41 415.77C178.31 414.44 172.47 413.25 167.22 411.84C161.97 410.44 157.33 408.83 153.56 407.14C149.79 405.46 146.89 403.75 144.98 402.44C144.03 401.78 143.3 401.25 142.82 400.87C142.34 400.49 142.1 400.28 142.11 400.26C142.15 400.2 143.18 400.97 145.13 402.19C147.08 403.41 149.99 405.03 153.76 406.64C157.52 408.25 162.15 409.8 167.39 411.15C172.62 412.51 178.45 413.68 184.56 415.01C196.8 417.57 207.65 421.31 214.91 425.31C218.54 427.3 221.27 429.3 223.01 430.85C223.88 431.63 224.53 432.26 224.94 432.72C225.37 433.17 225.58 433.41 225.56 433.43Z" fill="#B3BCBC"/>
<path d="M230.55 369.65C230.6 369.68 230.21 370.5 229.56 371.98C228.92 373.48 228.08 375.68 227.32 378.49C226.56 381.3 225.91 384.72 225.48 388.56C225.05 392.4 224.83 396.65 224.7 401.13C224.45 410.09 224.01 418.19 224.46 424.03C224.66 426.95 224.96 429.3 225.22 430.91C225.47 432.53 225.63 433.42 225.57 433.43C225.54 433.44 225.47 433.22 225.36 432.8C225.26 432.38 225.08 431.77 224.93 430.96C224.58 429.35 224.19 427 223.93 424.07C223.34 418.19 223.7 410.05 223.95 401.1C224.08 396.62 224.33 392.34 224.8 388.47C225.27 384.6 225.99 381.15 226.82 378.33C227.65 375.51 228.59 373.31 229.31 371.84C229.66 371.1 230 370.56 230.2 370.18C230.4 369.82 230.52 369.64 230.55 369.65Z" fill="#B3BCBC"/>
<path d="M240.2 381.58C240.27 381.66 239.01 382.92 236.97 384.95C234.95 386.99 232.12 389.79 229.64 393.39C227.19 397.01 225.7 400.78 224.97 403.57C224.22 406.37 224.24 408.2 224.11 408.19C224.07 408.19 224.01 407.74 224.02 406.91C224.03 406.08 224.15 404.88 224.46 403.44C225.07 400.55 226.51 396.66 229.03 392.95C231.58 389.26 234.5 386.49 236.62 384.55C238.75 382.62 240.13 381.51 240.2 381.58Z" fill="#B3BCBC"/>
<path d="M224.16 406.01C223.89 406.05 223.65 402.19 222.4 397.72C221.05 393.28 219.09 389.99 219.33 389.86C219.41 389.81 219.97 390.58 220.73 391.92C221.48 393.26 222.44 395.2 223.11 397.49C223.78 399.78 224.04 401.94 224.16 403.48C224.28 405.04 224.26 406 224.16 406.01Z" fill="#B3BCBC"/>
<path d="M216.97 328.03C216.99 328.04 216.87 328.31 216.62 328.8C216.32 329.36 215.95 330.07 215.5 330.93C214.99 331.84 214.39 332.97 213.77 334.32C213.14 335.66 212.35 337.16 211.67 338.9C211.31 339.76 210.93 340.67 210.53 341.6C210.14 342.54 209.81 343.56 209.43 344.59C208.63 346.64 207.99 348.91 207.27 351.27C205.96 356.04 204.8 361.38 204.09 367.06C203.43 372.75 203.28 378.22 203.41 383.18C203.55 385.66 203.63 388.02 203.92 390.21C204.05 391.31 204.12 392.37 204.28 393.38C204.44 394.39 204.59 395.36 204.74 396.29C204.99 398.15 205.4 399.8 205.69 401.27C205.97 402.74 206.28 403.98 206.56 405C206.8 405.95 206.99 406.73 207.14 407.35C207.27 407.89 207.32 408.18 207.29 408.19C207.27 408.2 207.16 407.93 206.99 407.4C206.8 406.79 206.56 406.02 206.27 405.09C205.95 404.09 205.59 402.85 205.28 401.38C204.95 399.92 204.5 398.27 204.22 396.4C204.06 395.47 203.89 394.49 203.71 393.48C203.54 392.46 203.45 391.39 203.31 390.29C203 388.09 202.89 385.71 202.73 383.22C202.55 378.22 202.69 372.71 203.35 366.97C204.07 361.24 205.25 355.87 206.61 351.07C207.36 348.69 208.03 346.42 208.85 344.36C209.25 343.33 209.59 342.31 210 341.37C210.41 340.43 210.81 339.53 211.19 338.67C211.91 336.93 212.73 335.45 213.4 334.11C214.06 332.77 214.7 331.66 215.24 330.77C215.75 329.94 216.16 329.25 216.49 328.71C216.79 328.25 216.95 328.01 216.97 328.03Z" fill="#B3BCBC"/>
<path d="M204.08 366.17C204.02 366.2 203.55 364.93 203.91 362.86C204.24 360.81 205.59 358.11 208 356.11C210.41 354.13 213.06 353.19 214.93 352.63C216.83 352.09 218.03 351.91 218.05 352C218.08 352.11 216.92 352.48 215.09 353.15C213.28 353.83 210.75 354.83 208.47 356.71C206.2 358.59 204.87 361.07 204.43 362.97C203.96 364.89 204.22 366.16 204.08 366.17Z" fill="#B3BCBC"/>
<path d="M203.21 373.32C202.98 373.35 202.83 370 200.86 366.56C198.94 363.09 196.19 361.3 196.34 361.11C196.39 361.03 197.13 361.36 198.17 362.19C199.21 363.01 200.49 364.38 201.51 366.18C202.52 367.98 203.04 369.81 203.21 371.15C203.39 372.48 203.29 373.32 203.21 373.32Z" fill="#B3BCBC"/>
<path d="M201.37 461.86C214.16 477.58 231.04 490.57 250.62 501.74L282.58 476.9C277.48 454.74 269.84 434.61 258.59 417.38L201.37 461.86Z" fill="#B3BCBC"/>
<path d="M272.66 447.98C272.78 448.15 262.36 456.47 249.39 466.55C236.41 476.64 225.79 484.68 225.67 484.5C225.55 484.33 235.96 476.01 248.94 465.92C261.92 455.85 272.54 447.81 272.66 447.98Z" fill="#B3BCBC"/>
<path d="M276.26 454.48C276.38 454.65 266.62 462.46 254.46 471.91C242.29 481.37 232.33 488.89 232.2 488.72C232.08 488.55 241.84 480.74 254.01 471.29C266.17 461.84 276.13 454.31 276.26 454.48Z" fill="#B3BCBC"/>
<path d="M222.71 462.12C222.88 461.99 225.48 465.3 228.53 469.51C231.58 473.72 233.92 477.24 233.75 477.37C233.58 477.5 230.98 474.19 227.93 469.98C224.89 465.77 222.55 462.25 222.71 462.12Z" fill="#B3BCBC"/>
<path d="M239.84 448.81C240.01 448.68 242.7 452.11 245.86 456.47C249.02 460.83 251.45 464.47 251.28 464.6C251.11 464.73 248.42 461.3 245.26 456.94C242.1 452.58 239.67 448.94 239.84 448.81Z" fill="#B3BCBC"/>
<path d="M255.81 436.19C255.98 436.06 258.72 439.56 261.94 444.01C265.16 448.46 267.64 452.17 267.48 452.3C267.31 452.43 264.57 448.93 261.35 444.48C258.12 440.02 255.65 436.31 255.81 436.19Z" fill="#B3BCBC"/>
<path d="M265.39 428.95C265.51 429.12 253.27 438.85 238.06 450.68C222.84 462.51 210.4 471.96 210.27 471.79C210.15 471.62 222.38 461.89 237.61 450.06C252.82 438.23 265.26 428.78 265.39 428.95Z" fill="#B3BCBC"/>
<path d="M174.01 106.35C175.99 106.21 179.88 103.98 179.89 103.98C179.93 103.96 177.69 101.77 177.54 101.65C175.73 100.25 171.44 98.63 169.37 100.15C167.88 101.24 167.83 103.39 168.98 104.75C170.14 106.14 172.32 106.47 174.01 106.35Z" fill="#1A2E35"/>
<path d="M181.33 117.43C183.13 116.78 186.11 113.82 186.35 113.58C187.93 115.32 189.7 116.97 191.57 118.54C192.64 119.44 193.74 120.31 194.86 121.17C194.29 120.86 193.79 120.58 193.71 120.55C191.61 119.69 187.05 119.31 185.45 121.34C184.29 122.8 184.79 124.88 186.25 125.89C187.74 126.92 189.93 126.64 191.52 126.06C193.14 125.47 195.73 123 196.41 122.34C196.84 122.66 197.27 122.99 197.7 123.32C199.78 124.87 201.86 126.4 203.85 127.98C204.55 128.53 205.23 129.11 205.9 129.67C205.4 129.39 204.97 129.16 204.9 129.13C202.8 128.27 198.24 127.89 196.64 129.92C195.48 131.38 195.98 133.46 197.44 134.47C198.93 135.49 201.12 135.22 202.71 134.64C204.25 134.08 206.67 131.82 207.48 131.04C208.16 131.64 208.83 132.25 209.46 132.87C209.88 133.3 210.31 133.69 210.71 134.15C211.11 134.59 211.51 135.04 211.91 135.47C212.64 136.34 213.4 137.23 214.09 138.1C214.58 138.7 215.03 139.28 215.49 139.86C214.8 139.3 213.41 138.24 213.29 138.16C211.34 136.98 206.89 135.89 205.01 137.64C203.65 138.9 203.84 141.04 205.13 142.26C206.45 143.51 208.65 143.58 210.31 143.25C212.14 142.9 215.4 140.55 215.8 140.25C216.55 141.22 217.28 142.16 217.95 143.07C219.43 145.07 220.71 146.88 221.77 148.44L223.24 147.64C222.11 146.05 220.74 144.18 219.13 142.11C218.37 141.13 217.53 140.09 216.67 139.03C216.88 138.78 218.05 137.35 218.99 135.87C220.79 136.54 224.49 136.45 224.97 136.44C225.08 137.68 225.18 138.88 225.26 140.02C225.43 142.4 225.52 144.54 225.58 146.37L227.17 145.51C227.08 143.84 226.95 141.96 226.76 139.89C226.65 138.63 226.51 137.29 226.35 135.92C226.82 135.78 230.64 134.64 232.06 133.39C233.35 132.26 234.68 130.44 234.58 128.6C234.48 126.79 233 125.29 231.19 125.59C228.69 126 226.7 130.26 226.36 132.58C226.34 132.72 226.28 134.22 226.25 135.18C226.18 134.62 226.12 134.07 226.05 133.5C225.91 132.36 225.73 131.22 225.54 130C225.43 129.41 225.32 128.82 225.21 128.22C225.11 127.62 224.93 127.01 224.8 126.39C224.45 124.97 224.04 123.56 223.59 122.14C224.56 122.01 227.98 121.48 229.42 120.56C230.86 119.64 232.45 118.06 232.62 116.22C232.79 114.42 231.54 112.7 229.71 112.71C227.18 112.72 224.59 116.63 223.91 118.86C223.87 119 223.55 120.66 223.4 121.57C223.12 120.72 222.85 119.87 222.54 119.02C221.65 116.57 220.68 114.11 219.72 111.66C219.43 110.91 219.14 110.16 218.85 109.4C219.19 109.36 223.28 108.82 224.89 107.79C226.33 106.87 227.92 105.29 228.09 103.45C228.26 101.65 227.01 99.93 225.18 99.95C222.65 99.96 220.06 103.87 219.38 106.1C219.33 106.27 218.88 108.66 218.79 109.27C218.16 107.61 217.54 105.96 217 104.3C216.25 102.01 215.63 99.72 215.19 97.46C215.35 97.44 219.61 96.9 221.27 95.85C222.71 94.93 224.3 93.35 224.47 91.51C224.64 89.71 223.39 87.99 221.56 88C219.03 88.01 216.44 91.92 215.76 94.15C215.71 94.33 215.22 96.9 215.17 97.37C215.14 97.24 215.1 97.1 215.08 96.96C214.64 94.54 214.51 92.14 214.5 89.88C214.49 88.57 214.55 87.32 214.63 86.1C215.43 86.08 219.11 85.97 220.7 85.19C222.23 84.44 223.97 83.05 224.34 81.24C224.7 79.46 223.64 77.62 221.82 77.43C219.3 77.16 216.32 80.74 215.4 82.88C215.35 83 214.97 84.24 214.71 85.15C214.76 84.6 214.79 84.03 214.85 83.51C215.05 81.54 215.35 79.74 215.63 78.16C215.8 77.26 215.96 76.45 216.13 75.69C216.91 75.25 220.04 73.43 221.08 72C222.1 70.61 223.03 68.54 222.55 66.76C222.08 65.01 220.32 63.88 218.62 64.58C216.26 65.54 215.21 70.14 215.35 72.48C215.36 72.68 215.9 75.82 215.95 75.8C215.95 75.8 215.99 75.78 216 75.77C215.83 76.5 215.65 77.28 215.48 78.13C215.17 79.71 214.83 81.51 214.59 83.48C214.34 85.45 214.13 87.61 214.1 89.89C214.07 92.18 214.15 94.6 214.54 97.07C214.54 97.1 214.55 97.13 214.56 97.15C214.23 96.46 213.24 94.57 213.15 94.44C211.85 92.52 208.26 89.6 205.84 90.37C204.1 90.93 203.4 92.95 204.08 94.62C204.78 96.33 206.75 97.34 208.39 97.77C210.24 98.25 214.3 97.49 214.63 97.43C215.03 99.78 215.62 102.17 216.34 104.54C216.75 105.9 217.21 107.26 217.69 108.61C217.38 108.03 217.11 107.5 217.06 107.44C215.76 105.52 212.17 102.6 209.75 103.37C208.01 103.93 207.31 105.95 207.99 107.62C208.69 109.33 210.66 110.34 212.3 110.77C213.96 111.2 217.44 110.63 218.36 110.46C218.55 110.98 218.73 111.5 218.92 112.01C219.83 114.49 220.75 116.96 221.57 119.41C221.86 120.27 222.12 121.13 222.38 122C222.11 121.48 221.87 121.05 221.83 120.98C220.53 119.06 216.94 116.14 214.52 116.91C212.78 117.47 212.08 119.49 212.76 121.16C213.46 122.87 215.43 123.88 217.07 124.31C218.66 124.73 221.87 124.22 222.96 124.03C223.2 124.92 223.44 125.81 223.64 126.69C223.76 127.29 223.91 127.86 224 128.47C224.1 129.07 224.2 129.67 224.3 130.26C224.45 131.4 224.61 132.58 224.72 133.7C224.81 134.48 224.88 135.22 224.95 135.97C224.67 135.11 224.08 133.43 224.02 133.3C223.35 131.9 221.75 129.92 220.01 128.85C219.91 128.64 219.8 128.45 219.67 128.26C218.62 126.81 216.59 126.41 215.24 127.68C213.37 129.45 213.99 134.14 214.93 136.27C214.99 136.4 215.74 137.69 216.22 138.5C215.86 138.07 215.52 137.65 215.15 137.21C214.42 136.34 213.67 135.49 212.86 134.58C212.46 134.15 212.05 133.72 211.63 133.29C211.23 132.85 210.75 132.44 210.31 132C209.27 131.02 208.17 130.07 207.03 129.15C207.76 128.49 210.34 126.09 211.05 124.5C211.76 122.91 212.24 120.69 211.4 119.05C210.58 117.45 208.63 116.73 207.11 117.79C205.01 119.25 204.93 123.98 205.55 126.23C205.59 126.37 206.21 127.93 206.57 128.79C205.89 128.24 205.21 127.69 204.5 127.15C202.45 125.61 200.33 124.12 198.23 122.62C197.58 122.16 196.95 121.7 196.31 121.23C196.57 121 199.69 118.22 200.49 116.44C201.2 114.85 201.68 112.63 200.84 110.99C200.02 109.39 198.07 108.68 196.55 109.73C194.44 111.19 194.37 115.92 194.99 118.17C195.04 118.34 195.93 120.59 196.19 121.15C194.78 120.13 193.38 119.1 192.05 118.02C190.2 116.54 188.47 114.98 186.9 113.35C187.02 113.24 190.29 110.36 191.11 108.53C191.82 106.94 192.3 104.72 191.46 103.08C190.64 101.48 188.69 100.77 187.17 101.82C185.06 103.28 184.99 108.01 185.61 110.26C185.66 110.44 186.63 112.86 186.83 113.28C186.74 113.18 186.63 113.09 186.54 112.99C184.88 111.22 183.5 109.29 182.28 107.42C181.57 106.33 180.95 105.25 180.38 104.19C181.04 103.72 184.04 101.53 184.96 99.96C185.84 98.46 186.55 96.31 185.89 94.58C185.24 92.9 183.38 91.96 181.76 92.84C179.51 94.05 178.93 98.74 179.31 101.05C179.33 101.18 179.68 102.43 179.94 103.34C179.69 102.86 179.41 102.36 179.18 101.89C178.3 100.13 177.59 98.46 176.98 96.98C176.64 96.13 176.35 95.36 176.08 94.64C176.5 93.83 178.13 90.52 178.25 88.73C178.36 86.98 178.03 84.73 176.68 83.52C175.36 82.33 173.29 82.4 172.24 83.94C170.78 86.09 172.36 90.53 173.72 92.4C173.84 92.56 175.96 94.87 175.98 94.83C175.98 94.83 176 94.79 176 94.78C176.24 95.48 176.51 96.23 176.82 97.05C177.4 98.55 178.07 100.24 178.93 102.02C179.78 103.81 180.74 105.73 181.94 107.65C183.14 109.58 184.49 111.55 186.14 113.39C186.16 113.41 186.18 113.43 186.2 113.45C185.56 113.07 183.72 112.06 183.57 112C181.47 111.14 176.91 110.76 175.31 112.79C174.15 114.25 174.65 116.33 176.11 117.34C177.55 118.28 179.74 118.01 181.33 117.43Z" fill="#1A2E35"/>
<path d="M214.31 85.67C214.36 85.67 213.66 82.57 213.59 82.38C212.83 80.17 210.11 76.38 207.57 76.46C205.75 76.52 204.56 78.28 204.79 80.07C205.03 81.91 206.67 83.43 208.14 84.29C209.88 85.3 214.31 85.67 214.31 85.67Z" fill="#1A2E35"/>
<path d="M487.99 37.6L479.07 40.9L475.26 28.84C468.23 6.6 445.78 -5.31 425.24 2.3C404.69 9.91 393.71 34.2 400.74 56.45L404.55 68.51L395.6 71.82C388.64 74.4 384.87 82.7 387.26 90.25L412.07 168.75C414.49 176.41 422.17 180.49 429.13 177.91L521.52 143.68C528.59 141.06 532.36 132.73 529.94 125.08L505.13 46.58C502.75 39.05 495.07 34.98 487.99 37.6ZM417.58 50.21C413.73 38.02 419.74 24.7 431.01 20.53C442.26 16.36 454.56 22.89 458.42 35.08L462.23 47.14L421.4 62.27L417.58 50.21ZM469.52 119.86L475.86 139.91C476.13 140.76 475.66 141.62 474.87 141.92L466 145.2C465.32 145.45 464.45 145.08 464.19 144.23L457.85 124.18C450.98 123.88 444.61 119.17 442.22 111.62C439.16 101.92 443.95 91.32 452.93 87.99C461.91 84.66 471.7 89.86 474.76 99.56C477.16 107.11 474.79 115.07 469.52 119.86Z" fill="#B3BCBC"/>
<path d="M478.69 40.69C478.77 40.93 462.16 47.37 441.58 55.08C421 62.79 404.25 68.83 404.16 68.59C404.08 68.35 420.69 61.91 441.27 54.2C461.85 46.5 478.6 40.45 478.69 40.69Z" fill="#1A1D1E"/>
<path d="M498.3 43.99C498.32 43.98 498.38 44.14 498.5 44.46C498.63 44.83 498.8 45.29 499 45.86C499.44 47.17 500.06 48.98 500.85 51.29C502.44 56.09 504.7 62.92 507.49 71.33C510.27 79.82 513.57 89.9 517.23 101.09C519.04 106.71 521.01 112.54 522.91 118.7C523.79 121.8 524.51 125.11 524.21 128.54C524.06 130.24 523.61 131.95 522.81 133.5C522 135.04 520.86 136.39 519.54 137.49C516.88 139.69 513.76 140.98 510.76 142.14C507.74 143.26 504.76 144.37 501.84 145.46C495.99 147.63 490.35 149.72 484.97 151.71C474.22 155.67 464.54 159.24 456.39 162.25C448.29 165.2 441.71 167.6 437.09 169.28C434.86 170.07 433.09 170.7 431.83 171.15C431.27 171.34 430.81 171.49 430.45 171.61C430.14 171.71 429.98 171.75 429.97 171.74C429.96 171.73 430.12 171.65 430.42 171.52C430.77 171.38 431.21 171.2 431.77 170.97C433.02 170.48 434.76 169.8 436.97 168.94C441.57 167.19 448.11 164.7 456.17 161.63C464.31 158.57 473.97 154.93 484.69 150.9C490.06 148.89 495.7 146.78 501.54 144.59C504.46 143.5 507.44 142.39 510.45 141.26C513.44 140.11 516.47 138.84 518.98 136.76C520.22 135.72 521.27 134.47 522.03 133.05C522.77 131.62 523.18 130.04 523.33 128.44C523.62 125.22 522.94 122 522.08 118.95C520.22 112.85 518.24 106.96 516.46 101.35C512.87 90.14 509.63 80.04 506.9 71.53C504.23 63.08 502.06 56.22 500.53 51.4C499.81 49.07 499.25 47.23 498.84 45.91C498.67 45.32 498.53 44.85 498.42 44.47C498.33 44.17 498.29 44 498.3 43.99Z" fill="#1A1D1E"/>
<path d="M449.57 19.27C449.52 19.35 448.65 18.79 446.95 18.08C445.24 17.41 442.66 16.62 439.39 16.51C436.14 16.39 432.19 16.91 428.24 18.69C424.31 20.45 420.43 23.59 417.66 27.85C414.83 32.09 413.59 37.01 413.59 41.46C413.55 45.93 414.47 49.92 415.35 53.19C416.26 56.46 417.2 59.06 417.81 60.86C418.43 62.66 418.77 63.67 418.71 63.69C418.65 63.71 418.21 62.76 417.49 60.99C416.77 59.22 415.75 56.66 414.75 53.37C413.78 50.09 412.78 46.06 412.77 41.45C412.72 36.87 413.99 31.71 416.92 27.32C419.8 22.9 423.83 19.68 427.92 17.9C432.02 16.1 436.1 15.64 439.43 15.85C442.78 16.05 445.4 16.95 447.09 17.74C447.93 18.17 448.57 18.51 448.97 18.81C449.38 19.09 449.59 19.25 449.57 19.27Z" fill="#1A1D1E"/>
<path d="M450.36 89.42C450.35 89.4 450.65 89.24 451.24 88.97C451.82 88.69 452.72 88.33 453.91 87.97C455.09 87.58 456.61 87.3 458.41 87.2C460.2 87.11 462.3 87.3 464.48 88.14C468.9 89.75 472.98 94.43 474.98 100.64C475.94 103.77 476.03 107.41 475.06 110.93C474.03 114.43 472.14 117.8 469.4 120.62L469.51 120.14C471.81 126.67 474.31 133.78 476.92 141.18L477.08 141.63L476.64 141.78C475.39 142.22 474.04 142.68 472.68 143.15C469.76 144.16 466.89 145.16 464.07 146.14L463.64 146.29L463.5 145.85C461.13 138.42 458.53 131.41 456.64 124.71L457.01 125.02C453.47 124.77 450.28 123.23 447.75 121.23C445.2 119.2 443.25 116.69 441.94 114.04C440.65 111.38 440 108.56 440.11 105.97C440.17 103.37 440.75 101.02 441.56 99.04C443.17 95.04 445.58 92.53 447.36 91.16C449.18 89.78 450.36 89.42 450.36 89.42C450.4 89.5 449.26 89.95 447.53 91.37C445.83 92.79 443.54 95.3 442.03 99.23C440.52 103.06 439.87 108.57 442.56 113.71C443.85 116.25 445.76 118.66 448.22 120.6C450.67 122.52 453.73 123.96 457.06 124.17L457.35 124.19L457.43 124.48C459.34 131.13 461.95 138.11 464.34 145.57L463.77 145.28C466.59 144.3 469.46 143.3 472.38 142.29C473.74 141.82 475.08 141.35 476.34 140.92L476.06 141.52C473.47 134.12 470.98 127 468.7 120.46L468.61 120.2L468.82 119.99C471.41 117.34 473.3 114.05 474.29 110.72C475.23 107.36 475.18 103.9 474.28 100.88C472.39 94.86 468.5 90.28 464.28 88.67C462.2 87.83 460.16 87.6 458.41 87.65C456.66 87.71 455.15 87.95 453.97 88.28C451.6 88.88 450.39 89.5 450.36 89.42Z" fill="#1A1D1E"/>
<path d="M421.2 629.64L244.19 628.79C222.9 628.69 205.72 610.74 205.81 588.69L207.69 129.11C207.78 107.05 225.12 89.24 246.43 89.35L423.44 90.2C444.73 90.3 461.91 108.25 461.82 130.3L459.94 589.88C459.84 611.94 442.5 629.74 421.2 629.64Z" fill="#375A64"/>
<path d="M423.18 106.05L388.86 105.89C384.26 105.87 380.51 109.89 380.49 114.87L380.46 121.32C380.44 126.3 376.69 130.32 372.09 130.3L305.19 129.98C300.59 129.96 296.87 125.9 296.89 120.92L296.92 114.47C296.94 109.49 293.22 105.43 288.62 105.41L276.55 105.35L246.51 105.21C231.59 105.14 219.44 117.61 219.38 133.06L217.55 581.65C217.49 597.09 229.52 609.66 244.43 609.74L421.09 610.58C436.01 610.65 448.15 598.18 448.22 582.73L450.05 134.14C450.12 118.7 438.08 106.12 423.18 106.05Z" fill="white"/>
<path d="M399.4 550.73L268.04 550.1C266.68 550.09 265.58 548.56 265.59 546.67L265.74 511.08C265.75 509.19 266.86 507.67 268.22 507.68L399.58 508.31C400.94 508.32 402.04 509.85 402.03 511.74L401.88 547.33C401.87 549.21 400.76 550.74 399.4 550.73Z" fill="#F8C6C5"/>
<path d="M294.214 237.892L248.634 237.674L248.592 246.334L294.172 246.552L294.214 237.892Z" fill="#F8C6C5"/>
<path d="M427.87 291.03C427.86 290.99 428.25 291.05 428.91 290.78C429.53 290.53 430.51 289.75 430.63 288.31C430.62 285.38 430.62 281.13 430.61 275.67C430.61 272.92 430.61 269.87 430.61 266.53C430.61 265.69 430.61 264.84 430.61 263.97C430.63 263.08 430.63 262.25 430.11 261.57C429.64 260.89 428.85 260.45 428.01 260.45C427.1 260.45 426.18 260.45 425.23 260.45C417.69 260.43 409.11 260.42 399.63 260.4C361.66 260.25 309.27 260.05 251.4 259.83C250.64 259.82 249.89 260.21 249.45 260.85C248.96 261.5 248.98 262.27 248.99 263.25C248.98 265.11 248.97 266.97 248.97 268.82C248.95 272.52 248.94 276.2 248.92 279.85C248.91 281.68 248.9 283.49 248.9 285.3C248.93 286.17 248.82 287.21 248.97 287.88C249.15 288.62 249.68 289.24 250.35 289.53C250.7 289.68 251.03 289.73 251.45 289.72L252.75 289.73L255.34 289.74C257.06 289.75 258.78 289.76 260.48 289.77C274.13 289.85 287.29 289.92 299.84 289.99C324.92 290.15 347.5 290.29 366.48 290.41C385.42 290.56 400.76 290.69 411.4 290.78C416.68 290.84 420.79 290.89 423.61 290.93C424.98 290.96 426.04 290.98 426.79 290.99C427.5 290.99 427.87 291.03 427.87 291.03C427.87 291.03 427.5 291.06 426.79 291.07C426.04 291.08 424.99 291.09 423.61 291.1C420.78 291.11 416.67 291.12 411.39 291.13C400.75 291.11 385.41 291.09 366.46 291.07C347.48 291.01 324.9 290.93 299.82 290.85C287.28 290.8 274.11 290.75 260.46 290.69C258.75 290.68 257.04 290.68 255.32 290.67L252.73 290.66L251.43 290.65C250.99 290.66 250.44 290.59 249.98 290.38C249.05 289.98 248.31 289.12 248.07 288.1C247.93 287.58 247.96 287.06 247.96 286.63L247.97 285.27C247.98 283.46 247.98 281.64 247.99 279.81C248 276.16 248.02 272.48 248.03 268.78C248.04 266.93 248.04 265.07 248.05 263.21C248.06 262.73 248.02 262.31 248.1 261.74C248.18 261.2 248.38 260.69 248.69 260.25C249.3 259.36 250.34 258.82 251.39 258.83C309.26 259.16 361.65 259.46 399.62 259.68C409.1 259.75 417.68 259.82 425.22 259.87C426.16 259.88 427.09 259.89 428 259.89C428.99 259.9 429.94 260.43 430.48 261.24C431.09 262.03 431.08 263.11 431.05 263.94C431.04 264.81 431.04 265.67 431.03 266.5C431 269.84 430.97 272.89 430.95 275.64C430.88 281.11 430.83 285.37 430.8 288.3C430.65 289.83 429.58 290.62 428.93 290.85C428.25 291.12 427.87 291.03 427.87 291.03Z" fill="#E1E1E1"/>
<path d="M344.233 271.382L260.863 270.984L260.824 279.084L344.194 279.483L344.233 271.382Z" fill="#F8C6C5"/>
<path d="M293.894 316.923L248.314 316.705L248.272 325.365L293.852 325.583L293.894 316.923Z" fill="#F8C6C5"/>
<path d="M426.7 370.06C426.7 370.03 427.07 370.06 427.75 369.85C428.39 369.63 429.43 369.08 429.99 367.77C430.29 367.12 430.32 366.34 430.3 365.44C430.3 364.55 430.29 363.58 430.29 362.52C430.29 360.41 430.28 357.98 430.28 355.24C430.28 352.5 430.28 349.46 430.28 346.13C430.28 345.3 430.28 344.45 430.28 343.58C430.32 342.7 430.22 341.89 429.76 341.16C429.33 340.44 428.64 339.87 427.83 339.61C427.04 339.35 426.09 339.49 425.15 339.45C417.64 339.43 409.09 339.42 399.64 339.4C361.81 339.25 309.59 339.05 251.93 338.83C250.33 338.79 248.85 340.14 248.69 341.78C248.64 343.53 248.66 345.46 248.64 347.28C248.62 350.97 248.61 354.63 248.59 358.27C248.58 360.09 248.57 361.9 248.57 363.71C248.6 364.61 248.48 365.55 248.68 366.27C248.88 367.03 249.35 367.71 249.97 368.15C250.62 368.6 251.32 368.77 252.17 368.74L254.75 368.75C256.46 368.76 258.17 368.77 259.87 368.78C273.47 368.85 286.59 368.93 299.09 369C324.08 369.16 346.58 369.3 365.5 369.42C384.38 369.57 399.67 369.7 410.27 369.79C415.53 369.85 419.62 369.9 422.44 369.94C423.81 369.97 424.86 369.99 425.61 370C426.33 370.03 426.7 370.06 426.7 370.06C426.7 370.06 426.33 370.09 425.62 370.1C424.87 370.11 423.82 370.12 422.45 370.13C419.63 370.14 415.54 370.15 410.28 370.16C399.68 370.14 384.39 370.12 365.51 370.1C346.6 370.04 324.09 369.97 299.1 369.89C286.6 369.84 273.48 369.79 259.88 369.73C258.18 369.72 256.47 369.71 254.76 369.71L252.18 369.7C251.31 369.75 250.25 369.53 249.47 368.95C248.67 368.38 248.07 367.51 247.81 366.54C247.55 365.51 247.7 364.62 247.66 363.72C247.67 361.92 247.67 360.1 247.68 358.28C247.69 354.64 247.71 350.98 247.72 347.29C247.74 345.42 247.71 343.65 247.77 341.69C247.97 339.58 249.87 337.84 251.93 337.89C309.6 338.22 361.81 338.52 399.64 338.74C409.09 338.81 417.64 338.88 425.15 338.93C426.08 338.98 427.01 338.83 427.97 339.13C428.9 339.43 429.68 340.09 430.16 340.91C430.67 341.72 430.78 342.75 430.73 343.59C430.72 344.46 430.72 345.31 430.71 346.14C430.68 349.47 430.65 352.51 430.63 355.25C430.6 357.98 430.58 360.41 430.56 362.53C430.55 363.58 430.54 364.55 430.53 365.45C430.55 366.32 430.5 367.19 430.16 367.86C429.54 369.22 428.44 369.76 427.77 369.95C427.07 370.13 426.7 370.06 426.7 370.06Z" fill="#E1E1E1"/>
<path d="M293.554 399.353L247.974 399.136L247.933 407.796L293.513 408.013L293.554 399.353Z" fill="#F8C6C5"/>
<path d="M426.36 452.49C426.36 452.46 426.73 452.49 427.41 452.29C428.06 452.07 429.09 451.52 429.65 450.21C429.95 449.56 429.98 448.78 429.96 447.88C429.96 446.99 429.95 446.02 429.95 444.96C429.95 442.85 429.94 440.42 429.94 437.68C429.94 434.94 429.94 431.9 429.94 428.57C429.94 427.74 429.94 426.89 429.94 426.02C429.98 425.14 429.88 424.33 429.42 423.6C428.99 422.88 428.3 422.31 427.49 422.05C426.7 421.79 425.75 421.93 424.81 421.89C417.3 421.87 408.75 421.86 399.3 421.84C361.47 421.69 309.26 421.49 251.59 421.27C249.99 421.23 248.51 422.58 248.35 424.22C248.3 425.97 248.32 427.89 248.3 429.72C248.28 433.41 248.27 437.07 248.25 440.71C248.24 442.53 248.23 444.34 248.23 446.15C248.26 447.05 248.13 447.99 248.34 448.71C248.54 449.47 249.01 450.15 249.63 450.59C250.28 451.04 250.98 451.21 251.83 451.18L254.41 451.19C256.13 451.2 257.83 451.21 259.53 451.22C273.13 451.3 286.25 451.37 298.75 451.44C323.74 451.6 346.24 451.74 365.16 451.86C384.04 452.01 399.33 452.14 409.93 452.23C415.19 452.29 419.29 452.34 422.1 452.38C423.47 452.41 424.52 452.43 425.27 452.44C425.99 452.46 426.36 452.49 426.36 452.49C426.36 452.49 425.99 452.52 425.28 452.53C424.53 452.54 423.48 452.55 422.11 452.56C419.29 452.57 415.2 452.58 409.94 452.59C399.34 452.57 384.05 452.55 365.17 452.53C346.26 452.47 323.75 452.4 298.76 452.31C286.26 452.26 273.14 452.21 259.54 452.15C257.84 452.14 256.13 452.13 254.42 452.13L251.84 452.12C250.97 452.17 249.91 451.95 249.13 451.37C248.33 450.8 247.73 449.93 247.47 448.96C247.21 447.93 247.36 447.04 247.33 446.14C247.34 444.34 247.34 442.52 247.35 440.71C247.36 437.07 247.38 433.41 247.39 429.72C247.41 427.85 247.38 426.08 247.44 424.12C247.64 422.01 249.54 420.27 251.6 420.32C309.27 420.65 361.48 420.95 399.31 421.17C408.76 421.24 417.31 421.31 424.82 421.36C425.75 421.41 426.68 421.26 427.64 421.56C428.56 421.86 429.35 422.52 429.83 423.34C430.34 424.15 430.45 425.18 430.4 426.02C430.39 426.89 430.39 427.74 430.38 428.57C430.35 431.9 430.33 434.94 430.3 437.68C430.27 440.41 430.25 442.84 430.23 444.96C430.22 446.01 430.21 446.98 430.2 447.87C430.22 448.75 430.17 449.61 429.83 450.28C429.21 451.64 428.11 452.18 427.44 452.37C426.73 452.56 426.36 452.49 426.36 452.49Z" fill="#E1E1E1"/>
<path d="M343.913 350.423L260.543 350.025L260.504 358.125L343.874 358.523L343.913 350.423Z" fill="#F8C6C5"/>
<path d="M268.11 437.51C268.1 439.73 266.46 441.53 264.45 441.52C262.44 441.51 260.81 439.7 260.82 437.48C260.83 435.26 262.47 433.46 264.48 433.47C266.5 433.48 268.12 435.29 268.11 437.51Z" fill="#F8C6C5"/>
<path d="M279.41 437.57C279.4 439.79 277.76 441.59 275.75 441.58C273.74 441.57 272.11 439.76 272.12 437.54C272.13 435.32 273.77 433.52 275.78 433.53C277.79 433.53 279.42 435.34 279.41 437.57Z" fill="#F8C6C5"/>
<path d="M290.7 437.62C290.69 439.84 289.05 441.64 287.04 441.63C285.03 441.62 283.4 439.81 283.41 437.59C283.42 435.37 285.06 433.57 287.07 433.58C289.08 433.58 290.71 435.4 290.7 437.62Z" fill="#F8C6C5"/>
<path d="M301.99 437.67C301.98 439.89 300.34 441.69 298.33 441.68C296.32 441.67 294.69 439.86 294.7 437.64C294.71 435.42 296.35 433.62 298.36 433.63C300.38 433.64 302 435.45 301.99 437.67Z" fill="#F8C6C5"/>
<path d="M313.29 437.73C313.28 439.95 311.64 441.75 309.63 441.74C307.62 441.73 305.99 439.92 306 437.7C306.01 435.48 307.65 433.68 309.66 433.69C311.67 433.69 313.3 435.5 313.29 437.73Z" fill="#F8C6C5"/>
<path d="M324.58 437.78C324.57 440 322.93 441.8 320.92 441.79C318.91 441.78 317.28 439.97 317.29 437.75C317.3 435.53 318.94 433.73 320.95 433.74C322.97 433.75 324.59 435.56 324.58 437.78Z" fill="#F8C6C5"/>
<path d="M335.88 437.83C335.87 440.05 334.23 441.85 332.22 441.84C330.21 441.83 328.58 440.02 328.59 437.8C328.6 435.58 330.24 433.78 332.25 433.79C334.26 433.8 335.89 435.61 335.88 437.83Z" fill="#F8C6C5"/>
<path d="M347.17 437.89C347.16 440.11 345.52 441.91 343.51 441.9C341.5 441.89 339.87 440.08 339.88 437.86C339.89 435.64 341.53 433.84 343.54 433.85C345.55 433.86 347.18 435.67 347.17 437.89Z" fill="#F8C6C5"/>
<path d="M358.46 437.94C358.45 440.16 356.81 441.96 354.8 441.95C352.79 441.94 351.16 440.13 351.17 437.91C351.18 435.69 352.82 433.89 354.83 433.9C356.85 433.91 358.47 435.72 358.46 437.94Z" fill="#F8C6C5"/>
<path d="M342.42 172.98C344.8 171.94 346.5 169.4 346.51 166.4C346.53 162.47 343.65 159.27 340.09 159.25C336.53 159.23 333.63 162.41 333.62 166.34C333.61 169.37 335.32 171.95 337.73 172.99C327.81 174.54 328.26 185.7 328.26 185.7L351.71 185.81C351.72 185.8 352.26 174.52 342.42 172.98Z" fill="#E63430"/>
<path opacity="0.1" d="M342.42 172.98C344.8 171.94 346.5 169.4 346.51 166.4C346.53 162.47 343.65 159.27 340.09 159.25C336.53 159.23 333.63 162.41 333.62 166.34C333.61 169.37 335.32 171.95 337.73 172.99C327.81 174.54 328.26 185.7 328.26 185.7L351.71 185.81C351.72 185.8 352.26 174.52 342.42 172.98Z" fill="black"/>
<path d="M380.549 193.112L296.909 192.712L296.859 203.072L380.499 203.472L380.549 193.112Z" fill="#F8C6C5"/>
<path opacity="0.2" d="M380.549 193.112L296.909 192.712L296.859 203.072L380.499 203.472L380.549 193.112Z" fill="white"/>
<path d="M592.93 636.52C592.93 636.66 461.94 636.77 300.39 636.77C138.78 636.77 7.81995 636.66 7.81995 636.52C7.81995 636.38 138.78 636.27 300.39 636.27C461.93 636.27 592.93 636.38 592.93 636.52Z" fill="#1A2E35"/>
<path d="M109.56 401.29C108.7 398.47 106.01 396.37 103.16 396.29C103.9 394.14 102.47 391.64 100.45 390.74C98.43 389.83 96.05 390.24 94.05 391.22C92.64 391.91 91.33 392.88 89.81 393.23C87.81 393.7 85.75 393.05 83.7 392.98C79.53 392.84 75.37 395.34 73.43 399.17C72.75 400.51 72.33 401.99 71.58 403.29C70.98 404.33 70.18 405.24 69.59 406.28C67.87 409.31 68.16 413.42 70.28 416.16L99.06 409.31C101.4 410.99 104.78 410.94 107.08 409.19C109.37 407.43 110.42 404.11 109.56 401.29Z" fill="#1A2E35"/>
<path d="M175.8 510.93L148.08 508.09L146.47 523L177.78 521.87L175.8 510.93Z" fill="#FFC19D"/>
<path d="M196.85 519.67C196.49 520.19 195.85 520.47 195.25 520.31C195.13 520.28 195.01 520.23 194.88 520.17C194.05 519.74 194.42 517.92 194.42 517.92L190.36 516.53C190.36 516.53 184.39 519.26 182.09 521.35C179.79 523.43 175.17 520.68 175.17 520.68L174.87 511.2L183.64 505.27C183.64 505.27 183.1 505.62 183.84 504.36C184.57 503.1 186.91 504.01 186.91 504.01C187.39 503.41 189 503.43 189 503.43L195.61 505.34C196.97 505.73 198.09 506.74 198.65 508.09L200.78 513.22C200.78 513.22 201.77 516.83 201.41 517.57C200.87 518.69 199.7 518.23 199.7 518.23C199.7 518.23 199.03 520.38 198.46 520.37C197.89 520.34 196.85 519.67 196.85 519.67Z" fill="#FFC19D"/>
<path d="M183.79 520.11C183.8 520.12 183.95 520.04 184.24 519.86C184.56 519.67 184.99 519.42 185.51 519.11C186.63 518.48 188.28 517.59 190.42 516.68H190.32C191.53 517.1 192.89 517.58 194.37 518.1L194.26 517.89C194.2 518.24 194.16 518.59 194.18 518.96C194.2 519.32 194.25 519.72 194.49 520.08C194.62 520.25 194.83 520.38 195 520.43C195.18 520.51 195.38 520.56 195.58 520.56C195.99 520.57 196.39 520.41 196.71 520.14C196.79 520.07 196.86 520 196.93 519.91L196.98 519.85L197 519.82L197.01 519.8C197.07 519.79 196.52 519.9 196.75 519.85L196.76 519.86L196.88 519.94C197.04 520.04 197.21 520.14 197.39 520.23C197.57 520.32 197.75 520.4 197.94 520.47C198.04 520.5 198.14 520.54 198.24 520.56C198.34 520.58 198.46 520.6 198.64 520.55C198.9 520.41 199.02 520.22 199.14 520.05C199.25 519.87 199.35 519.68 199.44 519.49C199.62 519.11 199.76 518.72 199.89 518.31L199.62 518.44C200.15 518.63 200.8 518.6 201.26 518.15C201.47 517.94 201.65 517.67 201.68 517.33C201.71 517.03 201.69 516.75 201.66 516.47C201.53 515.36 201.27 514.28 200.98 513.18V513.17L200.97 513.16C200.61 512.29 200.22 511.36 199.83 510.42C199.59 509.84 199.35 509.26 199.11 508.68C198.87 508.12 198.67 507.51 198.29 506.98C197.93 506.46 197.46 506.02 196.94 505.69C196.42 505.35 195.81 505.19 195.28 505.04C193.09 504.42 191 503.82 189.05 503.26L189.02 503.25H189C188.6 503.25 188.22 503.29 187.84 503.37C187.47 503.46 187.07 503.56 186.77 503.91L187.02 503.87C186.35 503.45 185.53 503.31 184.84 503.64C184.15 503.96 183.75 504.61 183.5 505.23L183.56 505.15C181.04 506.84 178.99 508.22 177.52 509.21C176.84 509.68 176.3 510.05 175.89 510.34C175.52 510.6 175.33 510.75 175.34 510.76C175.35 510.77 175.56 510.66 175.94 510.42C176.36 510.16 176.92 509.81 177.62 509.37C179.11 508.41 181.19 507.07 183.74 505.44L183.78 505.41L183.8 505.35C184.03 504.8 184.41 504.22 184.98 503.97C185.54 503.7 186.26 503.83 186.81 504.19L186.95 504.28L187.06 504.15C187.24 503.94 187.59 503.82 187.93 503.75C188.27 503.68 188.65 503.65 189.01 503.65L188.96 503.64C190.91 504.21 193 504.82 195.18 505.45C195.74 505.61 196.26 505.75 196.73 506.06C197.2 506.36 197.62 506.75 197.95 507.23C198.29 507.69 198.47 508.27 198.73 508.85C198.97 509.42 199.21 510 199.45 510.59C199.84 511.53 200.23 512.45 200.59 513.33L200.58 513.3C200.86 514.38 201.12 515.46 201.25 516.52C201.28 516.78 201.3 517.05 201.27 517.28C201.26 517.48 201.13 517.68 200.98 517.84C200.68 518.15 200.18 518.19 199.78 518.05L199.58 517.98L199.51 518.18C199.39 518.56 199.25 518.95 199.08 519.31C198.93 519.65 198.71 520.06 198.5 520.17C198.49 520.17 198.41 520.18 198.33 520.16C198.25 520.15 198.16 520.12 198.08 520.09C197.91 520.03 197.74 519.96 197.58 519.87C197.42 519.79 197.25 519.7 197.1 519.6L196.98 519.53H196.97C197.2 519.48 196.65 519.59 196.71 519.58L196.7 519.59L196.68 519.62L196.64 519.67C196.59 519.73 196.53 519.8 196.47 519.85C196.22 520.07 195.91 520.19 195.59 520.19C195.43 520.19 195.28 520.15 195.14 520.09C194.98 520.04 194.87 519.97 194.78 519.86C194.45 519.37 194.51 518.59 194.6 517.98L194.62 517.82L194.48 517.77C193 517.27 191.62 516.82 190.41 516.41L190.36 516.39L190.31 516.41C188.16 517.36 186.53 518.3 185.43 518.98C184.88 519.32 184.47 519.6 184.19 519.8C183.92 519.98 183.78 520.09 183.79 520.11Z" fill="#FF9C6A"/>
<path d="M187.67 506.65C187.65 506.7 188.4 507.15 189.73 507.67C191.06 508.2 192.98 508.76 195.22 509L195.02 508.81C195.08 509.17 195.15 509.55 195.23 509.94C195.79 512.48 196.87 514.6 197.81 515.98C198.28 516.67 198.71 517.2 199.03 517.54C199.35 517.88 199.54 518.05 199.56 518.03C199.62 517.98 198.94 517.2 198.08 515.79C197.22 514.39 196.22 512.3 195.67 509.83C195.59 509.46 195.52 509.09 195.46 508.73L195.43 508.55L195.26 508.53C193.07 508.31 191.16 507.81 189.83 507.37C188.49 506.94 187.7 506.59 187.67 506.65Z" fill="#FF9C6A"/>
<path d="M193.44 511.76C193.33 511.76 193.47 513.76 194.51 515.94C195.53 518.13 196.95 519.48 197.02 519.4C197.12 519.31 195.89 517.86 194.91 515.74C193.92 513.63 193.58 511.74 193.44 511.76Z" fill="#FF9C6A"/>
<path d="M174.27 517.67C174.26 517.68 174.33 517.74 174.46 517.83C174.59 517.93 174.8 518.06 175.08 518.2C175.64 518.49 176.52 518.84 177.68 518.95C178.83 519.06 180.29 518.9 181.71 518.14C183.12 517.4 184.49 516.06 185.26 514.23L184.99 514.35C186.45 514.9 188.1 515.28 189.82 515.39C190.44 515.43 191.05 515.43 191.66 515.41C192.26 515.38 192.88 515.35 193.47 515.11C193.75 515 194.08 514.79 194.23 514.46C194.39 514.13 194.39 513.76 194.27 513.43C194.15 513.11 193.91 512.84 193.61 512.7C193.36 512.59 193.11 512.48 192.86 512.37C190.89 511.52 189.09 510.85 187.55 510.34C186.02 509.83 184.76 509.47 183.89 509.24C183.02 509.01 182.53 508.92 182.52 508.95C182.51 508.98 182.99 509.14 183.84 509.42C184.7 509.7 185.93 510.11 187.45 510.66C188.96 511.21 190.75 511.91 192.7 512.78C192.94 512.89 193.19 513 193.44 513.11C193.64 513.2 193.79 513.38 193.87 513.6C193.94 513.82 193.94 514.07 193.84 514.27C193.75 514.47 193.55 514.6 193.3 514.71C192.81 514.91 192.23 514.94 191.64 514.97C191.05 515 190.45 514.99 189.85 514.95C188.17 514.84 186.56 514.48 185.13 513.96L184.94 513.89L184.86 514.08C184.15 515.81 182.87 517.1 181.53 517.83C180.19 518.58 178.8 518.76 177.69 518.69C176.57 518.62 175.7 518.32 175.13 518.08C174.58 517.82 174.29 517.64 174.27 517.67Z" fill="#FF9C6A"/>
<path d="M85.8699 474.04C79.1199 473.98 73.6599 468.18 73.5699 461L73.0499 417.76C72.5599 406.15 78.4999 396.17 89.4099 395.97L90.4199 396.01C100.58 396.46 108.71 405.13 109.11 415.96C109.48 426.03 109.88 435.76 109.6 441.14C109.04 452.28 98.3999 453.38 98.3999 453.38C98.3799 453.38 98.3699 457.54 98.3799 460.81C98.3899 468.15 92.7699 474.11 85.8699 474.04Z" fill="#FFC19D"/>
<path d="M98.41 453.44C98.41 453.44 91.8 453.56 84.95 448.55C84.95 448.55 87.9 457.07 98.38 456.53L98.41 453.44Z" fill="#FF9C6A"/>
<path d="M105.25 425.86C105.25 426.7 104.57 427.39 103.75 427.4C102.93 427.41 102.26 426.74 102.27 425.9C102.27 425.06 102.95 424.37 103.77 424.36C104.59 424.34 105.26 425.02 105.25 425.86Z" fill="#1A2E35"/>
<path d="M106.7 420.78C106.51 420.98 105.41 420.04 103.8 419.97C102.19 419.88 100.98 420.71 100.81 420.49C100.73 420.39 100.93 420.03 101.46 419.65C101.98 419.28 102.86 418.93 103.86 418.98C104.86 419.03 105.69 419.46 106.16 419.88C106.64 420.31 106.79 420.69 106.7 420.78Z" fill="#1A2E35"/>
<path d="M90.6599 425.86C90.6599 426.7 89.9799 427.39 89.1599 427.4C88.3399 427.41 87.6699 426.74 87.6799 425.9C87.6799 425.06 88.3599 424.37 89.1799 424.36C89.9999 424.34 90.6599 425.02 90.6599 425.86Z" fill="#1A2E35"/>
<path d="M90.9199 420.48C90.7299 420.68 89.6299 419.74 88.0199 419.67C86.4099 419.58 85.1999 420.41 85.0299 420.19C84.9499 420.09 85.1499 419.73 85.6799 419.35C86.1999 418.98 87.0799 418.63 88.0799 418.68C89.0799 418.73 89.9099 419.16 90.3799 419.58C90.8599 420.01 91.0099 420.39 90.9199 420.48Z" fill="#1A2E35"/>
<path d="M96.1799 433.89C96.1799 433.79 97.1799 433.65 98.8099 433.5C99.2199 433.47 99.6099 433.4 99.6999 433.11C99.8099 432.8 99.6599 432.32 99.4799 431.8C99.1299 430.72 98.7699 429.6 98.3999 428.42C96.8999 423.6 95.8299 419.65 96.0099 419.59C96.1899 419.53 97.5599 423.38 99.0599 428.19C99.4199 429.38 99.7699 430.51 100.09 431.59C100.23 432.09 100.47 432.67 100.24 433.32C100.12 433.64 99.8099 433.87 99.5399 433.93C99.2699 434 99.0399 434 98.8399 434C97.1899 434.03 96.1799 433.99 96.1799 433.89Z" fill="#1A2E35"/>
<path d="M91.6499 415.15C91.4099 415.58 89.8699 415.05 87.9699 414.92C86.0699 414.75 84.48 415.04 84.3 414.58C84.22 414.36 84.5599 413.98 85.2399 413.66C85.9199 413.34 86.9499 413.1 88.0799 413.19C89.2199 413.28 90.1999 413.67 90.8299 414.1C91.4699 414.51 91.7499 414.94 91.6499 415.15Z" fill="#1A2E35"/>
<path d="M106.96 415.74C106.62 416.12 105.32 415.68 103.74 415.62C102.17 415.51 100.82 415.8 100.53 415.38C100.4 415.18 100.62 414.79 101.21 414.44C101.79 414.09 102.76 413.82 103.84 413.88C104.92 413.94 105.85 414.32 106.39 414.73C106.94 415.15 107.12 415.56 106.96 415.74Z" fill="#1A2E35"/>
<path d="M73.5799 426.05C73.3999 425.96 66.4799 423.47 66.4099 431.1C66.3399 438.73 73.5499 437.23 73.5599 437.01C73.5799 436.78 73.5799 426.05 73.5799 426.05Z" fill="#FFC19D"/>
<path d="M71.3999 434.09C71.3699 434.07 71.2699 434.18 71.0599 434.28C70.8499 434.38 70.4999 434.44 70.1299 434.29C69.3799 433.99 68.7499 432.7 68.7299 431.33C68.7199 430.64 68.8599 429.98 69.0999 429.43C69.3199 428.87 69.6699 428.49 70.0499 428.42C70.4299 428.33 70.6999 428.58 70.7799 428.79C70.8699 429 70.8299 429.16 70.8699 429.17C70.8899 429.19 71.0199 429.04 70.9699 428.73C70.9399 428.58 70.8599 428.4 70.6899 428.25C70.5199 428.1 70.2699 428.02 69.9999 428.05C69.4499 428.09 68.9499 428.62 68.6899 429.22C68.3999 429.82 68.2299 430.56 68.2399 431.34C68.2699 432.88 68.9999 434.32 70.0299 434.65C70.5299 434.8 70.9499 434.64 71.1699 434.46C71.3899 434.27 71.4299 434.1 71.3999 434.09Z" fill="#FF9C6A"/>
<path d="M78.71 407C79.01 405.02 80.45 403.41 82.29 402.77C83.84 402.23 85.54 402.23 87.13 402.83C91.16 404.35 98.05 406.63 99.85 405.17C102.44 403.07 103.06 401.71 103.06 401.71L104.48 403.31C105.64 402.63 102.16 398.63 99.31 397.25C95.01 395.17 88.43 393.88 84.46 395.08C79.68 396.52 75.71 399.05 73.31 403.68C70.91 408.31 70 413.71 70.14 419C70.18 420.61 69.9 425.24 71.4 425.6C72.56 425.88 74.06 426.41 73.98 428.74C73.95 429.59 74.18 430.45 74.72 431.07C76.03 432.56 77.63 431.16 78.37 429.76C79.95 426.77 80.12 423.21 80.26 419.78C80.36 417.35 80.45 414.86 79.81 412.52C79.81 412.52 78.75 409.51 78.66 407.83C78.65 407.56 78.67 407.28 78.71 407Z" fill="#1A2E35"/>
<path d="M96.46 438.02C96.5 438.14 96.17 438.42 95.51 438.57C94.86 438.72 93.85 438.68 92.92 438.15C91.98 437.62 91.41 436.78 91.17 436.13C90.92 435.48 90.96 435.03 91.08 435C91.33 434.91 91.86 436.45 93.37 437.3C94.86 438.17 96.38 437.76 96.46 438.02Z" fill="#1A2E35"/>
<path d="M103.9 539.78L69.6399 531.98L47.65 475.47C47.65 475.47 18.23 482.23 13.37 499.25C9.16995 513.97 0.49995 579.02 20.2099 619.13C25.2799 629.44 35.5999 635.84 46.7799 635.84H196.68C215.6 635.84 231.52 621.11 233.62 601.63C234.47 593.78 235.06 586.32 234.94 581.47L210.87 562.34L103.9 539.78Z" fill="#375A64"/>
<g opacity="0.3">
<path d="M195.54 559.44C206.09 573.71 218.93 586.54 234.28 594.92L235.01 575.55L206.66 554.65L195.54 559.44Z" fill="black"/>
</g>
<path d="M82.3699 464.48C82.3699 465.51 90.1599 468.83 93.6799 467.38C99.0399 465.16 98.3799 460.81 98.3799 460.81L101.35 464.06L131.19 511.14L153.37 526.3L117.87 537.94L80.6599 493.67L82.3699 464.48Z" fill="#F5F5F5"/>
<path d="M72.9699 448.68L72.1899 450.2L68.6499 457.04L53.9099 466.77L84.2099 504.07L98.0499 537.93L131.2 548.68C131.2 548.68 115.43 523.56 110.53 510.72C105.63 497.88 105.13 498.48 100.66 489.08C96.3799 480.08 92.5599 468.68 92.5599 468.68L72.9699 448.68Z" fill="#E63430"/>
<path d="M143.97 515.86L150.47 522.14L152.31 526.02L128.14 514.37L110.69 489.07C110.69 489.07 104.47 474.79 102.33 469.67C100.08 464.29 98.3999 461.24 98.3999 461.24L98.3799 457L107.2 465.23L114.55 467.5L126.83 487.6L143.97 515.86Z" fill="#E63430"/>
<path d="M136.52 492.2C136.52 492.2 133.59 485.71 131.19 480.33C125.79 468.19 113.06 467.03 113.06 467.03L127.13 507.44L144.37 520.1C144.37 520.1 149.27 521.87 149.89 520.1C149.89 520.1 153.48 506.7 153.37 506.65C153.26 506.6 141.1 502.83 141.1 502.83L136.2 491.51" fill="#E63430"/>
<path d="M162.44 479.59L145.7 508.48L163.23 507.94L178.69 481.17C179.28 480.14 178.57 478.84 177.41 478.84H163.71C163.19 478.84 162.71 479.12 162.44 479.59Z" fill="#1A2E35"/>
<path d="M98.0399 512.26L139.95 507.09L147 494.32L152.52 491.18C153.46 490.65 154.6 490.72 155.47 491.37L155.99 491.76L160.08 491.23C160.78 491.14 161.48 491.28 162.09 491.64L164.99 493.35C165.42 493.61 165.68 494.08 165.68 494.59C165.68 495.49 164.89 496.17 164.04 496.01L161.22 495.47L156.91 496.93C156.91 496.93 159.69 497.24 160.05 499.43C160.4 501.62 158.99 501.66 158.99 501.66C158.99 501.66 161.92 503.43 159.87 506C159.87 506 162.31 507.68 159.58 510.88C157.73 513.05 144.38 520.1 144.38 520.1L98.0499 537.93V512.26H98.0399Z" fill="#FFC19D"/>
<path d="M159.75 506.04C159.75 506.02 160.06 506.04 160.43 506.43C160.78 506.81 161.12 507.62 160.88 508.57C160.65 509.52 159.91 510.4 159.08 511.24C158.25 512.1 157.25 512.96 156.14 513.76C153.91 515.35 151.7 516.46 150.09 517.22C148.48 517.97 147.47 518.38 147.44 518.33C147.41 518.27 148.38 517.76 149.95 516.93C151.51 516.1 153.68 514.96 155.88 513.39C156.98 512.6 157.96 511.77 158.79 510.95C159.63 510.13 160.33 509.33 160.58 508.49C160.84 507.66 160.58 506.92 160.3 506.55C160.01 506.16 159.73 506.08 159.75 506.04Z" fill="#FF9C6A"/>
<path d="M155.81 491.88C155.84 492 154.9 492.37 153.72 492.7C152.53 493.03 151.54 493.2 151.51 493.08C151.48 492.96 152.42 492.59 153.6 492.26C154.79 491.93 155.78 491.75 155.81 491.88Z" fill="#FF9C6A"/>
<path d="M161.21 495.47C161.25 495.59 159.95 496.15 158.3 496.71C156.65 497.28 155.29 497.64 155.25 497.52C155.21 497.4 156.51 496.85 158.16 496.28C159.81 495.72 161.17 495.36 161.21 495.47Z" fill="#FF9C6A"/>
<path d="M156.19 501.27C156.07 501.26 156.01 500.88 155.86 500.45C155.72 500.02 155.55 499.69 155.64 499.6C155.72 499.51 156.11 499.77 156.28 500.3C156.45 500.83 156.3 501.29 156.19 501.27Z" fill="#FF9C6A"/>
<path d="M157.62 506.28C157.5 506.25 157.54 505.63 157.37 504.92C157.21 504.2 156.89 503.68 156.98 503.59C157.06 503.5 157.6 503.97 157.79 504.81C158 505.64 157.73 506.32 157.62 506.28Z" fill="#FF9C6A"/>
<path d="M55.0799 465.99C53.6899 466.87 41.8399 475.24 43.5699 488.97C45.2999 502.7 71.5299 533.75 76.9999 534.34L98.0399 537.92V512.25L87.9499 511.65L74.6999 484.79L55.0799 465.99Z" fill="#E63430"/>
<path d="M98.0399 511.01C98.0399 511.03 97.7799 511.06 97.2899 511.09C96.7299 511.11 96.0199 511.14 95.1699 511.17C93.2599 511.21 90.6799 511.27 87.6299 511.34H87.5199L87.4499 511.25C85.8699 509.05 84.0499 506.52 82.1199 503.83C78.9399 499.38 76.0899 495.34 74.0399 492.39C73.0599 490.96 72.2499 489.79 71.6399 488.89C71.0799 488.06 70.7799 487.59 70.8099 487.57C70.8399 487.55 71.1799 487.98 71.7899 488.78C72.4399 489.65 73.2899 490.8 74.3199 492.19C76.4399 495.08 79.3299 499.09 82.5099 503.54C84.4199 506.24 86.2299 508.78 87.7999 510.99L87.6299 510.9C90.6799 510.9 93.2599 510.9 95.1699 510.91C96.0299 510.93 96.7299 510.94 97.2999 510.95C97.7799 510.97 98.0399 510.99 98.0399 511.01Z" fill="#1A2E35"/>
<path d="M92.9199 472.07C92.8999 472.08 92.7599 471.81 92.5099 471.29C92.2399 470.7 91.8899 469.95 91.4699 469.04L91.6899 469.06C91.0599 470 90.3599 471.21 89.6599 472.68C88.9599 474.14 88.1699 475.84 87.0199 477.49L86.8499 477.73L86.6699 477.5C85.3099 475.76 83.7499 473.91 82.0699 472.01C78.3999 467.87 74.8899 464.3 72.3799 461.68C71.1699 460.41 70.1799 459.36 69.4199 458.56C68.7299 457.81 68.3599 457.39 68.3799 457.37C68.3999 457.35 68.8199 457.72 69.5499 458.43C70.3299 459.2 71.3599 460.21 72.6099 461.44C75.1799 464 78.7199 467.54 82.4099 471.69C84.0899 473.59 85.6499 475.46 86.9999 477.22L86.6499 477.23C87.7899 475.62 88.5899 473.97 89.3199 472.51C90.0499 471.05 90.7999 469.83 91.4699 468.9L91.6099 468.71L91.6999 468.92C92.0799 469.86 92.3899 470.62 92.6299 471.22C92.8499 471.77 92.9499 472.06 92.9199 472.07Z" fill="#1A2E35"/>
<path d="M107.28 465.51C107.32 465.49 107.58 465.95 107.92 466.8C108.26 467.65 108.62 468.92 109.02 470.41L109.3 471.47L108.65 470.6C107.85 469.52 106.76 468.38 105.56 467.22C104.59 466.29 103.63 465.43 102.76 464.65L103.12 464.51C102.9 466.23 103.04 467.75 102.99 468.82C102.97 469.89 102.83 470.51 102.79 470.5C102.74 470.49 102.78 469.88 102.73 468.82C102.7 467.76 102.5 466.26 102.69 464.45L102.73 464.04L103.04 464.31C103.92 465.07 104.9 465.92 105.88 466.86C107.1 468.03 108.19 469.21 108.99 470.34L108.62 470.53C108.25 469.01 107.96 467.76 107.69 466.89C107.42 466.02 107.23 465.53 107.28 465.51Z" fill="#1A2E35"/>
<path d="M137.75 507.36C137.73 507.38 137.37 507.04 136.75 506.4C136.08 505.69 135.2 504.77 134.16 503.67C133.08 502.49 131.78 501.17 130.37 499.54C129.72 498.68 129.15 497.74 128.47 496.82C127.77 495.87 127.24 494.78 126.72 493.66C125.71 491.4 124.96 489.18 124.27 487.16C123.59 485.14 122.99 483.32 122.44 481.81C121.88 480.3 121.39 479.1 121 478.3C120.61 477.5 120.36 477.07 120.4 477.04C120.41 477.03 120.49 477.13 120.62 477.32C120.74 477.52 120.96 477.8 121.16 478.2C121.61 478.98 122.15 480.17 122.75 481.67C123.35 483.17 123.98 484.98 124.68 486.99C125.39 489 126.15 491.21 127.14 493.44C127.65 494.54 128.17 495.61 128.84 496.52C129.52 497.45 130.09 498.42 130.71 499.25C132.03 500.81 133.36 502.23 134.4 503.42C135.4 504.57 136.24 505.52 136.89 506.26C137.46 506.95 137.77 507.34 137.75 507.36Z" fill="#1A2E35"/>
<path d="M149.92 521.86L229.47 519.54C230.73 519.51 231.99 519.73 233.14 520.25C236.03 521.53 241.24 524.8 244.8 532.65C249.98 544.04 274.09 592.02 274.09 592.02L249.7 604.97L219.78 547.5L127.58 539.39L128.65 531.76L149.92 521.86Z" fill="#1A2E35"/>
<path d="M242.46 594.87L255.17 617.46L256.02 623.17C256.54 626.66 259.69 629.06 263.07 628.53L301.76 622.38C303.7 622.07 304.96 619.94 304.15 618.1C303.84 617.4 303.28 616.8 302.31 616.55C299.07 615.7 274.11 606.2 274.11 606.2L263.7 584.6L242.46 594.87Z" fill="#E1E1E1"/>
<path d="M253.11 600.09C253.01 600.16 251.73 598.54 250.25 596.46C248.77 594.38 247.65 592.63 247.75 592.56C247.85 592.49 249.13 594.11 250.61 596.19C252.09 598.27 253.21 600.02 253.11 600.09Z" fill="#1A2E35"/>
<path d="M260.71 596.93C260.62 597 259.31 595.38 258.04 593.12C256.77 590.87 256.05 588.88 256.16 588.84C256.28 588.79 257.17 590.67 258.42 592.89C259.67 595.12 260.81 596.85 260.71 596.93Z" fill="#1A2E35"/>
<path d="M266.01 627.8C265.93 627.82 265.72 627.02 265.14 625.84C264.57 624.67 263.56 623.14 262.04 621.91C260.52 620.67 258.85 620.02 257.61 619.72C256.37 619.42 255.57 619.4 255.57 619.31C255.57 619.25 256.38 619.13 257.68 619.35C258.97 619.56 260.75 620.19 262.35 621.49C263.95 622.79 264.96 624.43 265.47 625.68C265.99 626.95 266.07 627.79 266.01 627.8Z" fill="#1A2E35"/>
<path d="M292.08 623.92C292.03 623.94 291.71 623.41 291.46 622.42C291.21 621.45 291.14 619.97 291.65 618.49C292.15 617.01 293.01 615.89 293.66 615.16C294.33 614.43 294.82 614.07 294.86 614.12C294.91 614.18 294.52 614.64 293.94 615.41C293.37 616.18 292.6 617.29 292.14 618.67C291.67 620.05 291.68 621.41 291.82 622.36C291.97 623.3 292.16 623.88 292.08 623.92Z" fill="#1A2E35"/>
<path d="M125.55 533.09C125.55 533.09 207.65 524.57 211.64 524.91C219 525.54 232.58 537.56 256.67 554.32C276.66 568.22 291.24 584.41 291.24 584.41L283.54 602.62C283.54 602.62 229.55 582.24 221.08 574.91C214.04 568.82 201.21 560.15 201.21 560.15L169.54 560.48L146.01 562.63C134.21 563.71 122.7 558.46 115.5 548.72L106.36 536.36L125.55 533.09Z" fill="#1A2E35"/>
<path d="M200.83 559.89C200.83 559.89 200.96 559.97 201.21 560.15C201.47 560.33 201.84 560.6 202.32 560.94C203.3 561.65 204.73 562.69 206.58 564.04C210.28 566.78 215.72 570.7 222.38 575.93C222.8 576.25 223.2 576.63 223.65 576.91C224.1 577.2 224.55 577.49 225.01 577.79C225.98 578.3 226.96 578.85 228 579.35C229.04 579.85 230.1 580.36 231.18 580.88C232.27 581.38 233.38 581.89 234.52 582.41C239.08 584.45 244.01 586.59 249.27 588.8C259.79 593.23 271.6 598.04 284.35 603.12L284.07 603.25C286.3 597.41 288.64 591.25 291.05 584.94L291.1 585.2C288.05 581.98 284.81 578.56 281.52 575.08L281.53 575.09C279.28 573.07 276.87 570.92 274.4 568.8C258.65 555.22 242.77 543.61 228.39 533.84L228.38 533.83L228.37 533.82C226.18 531.86 223.81 530.18 221.4 528.74C218.98 527.31 216.49 526.15 213.95 525.39C213.31 525.21 212.67 525.07 212.04 524.91C211.4 524.81 210.76 524.71 210.12 524.61C209.48 524.57 208.84 524.54 208.21 524.51C207.57 524.51 206.93 524.51 206.3 524.51C203.77 524.51 201.32 524.5 198.94 524.5C189.41 524.48 181.06 524.46 174.15 524.45C167.25 524.42 161.8 524.4 158.06 524.39C156.21 524.37 154.78 524.36 153.8 524.36C153.33 524.35 152.96 524.35 152.7 524.34C152.45 524.33 152.33 524.32 152.33 524.32C152.33 524.32 152.46 524.31 152.7 524.3C152.96 524.3 153.32 524.29 153.8 524.28C154.78 524.27 156.21 524.26 158.06 524.25C161.8 524.24 167.25 524.21 174.15 524.19C181.06 524.18 189.41 524.16 198.94 524.14C201.32 524.14 203.78 524.13 206.3 524.13C206.93 524.13 207.57 524.13 208.21 524.13C208.86 524.16 209.51 524.2 210.16 524.23C210.81 524.33 211.46 524.43 212.11 524.54C212.75 524.7 213.41 524.85 214.05 525.03C216.63 525.79 219.15 526.97 221.59 528.4C224.03 529.84 226.4 531.53 228.64 533.52L228.61 533.5C243.02 543.25 258.92 554.86 274.69 568.45C277.16 570.57 279.58 572.72 281.83 574.74L281.84 574.75L281.85 574.76C285.14 578.24 288.38 581.66 291.43 584.88L291.54 584.99L291.48 585.14C289.07 591.45 286.72 597.61 284.48 603.45L284.4 603.66L284.2 603.58C271.46 598.49 259.65 593.65 249.14 589.2C243.88 586.97 238.95 584.82 234.4 582.76C233.27 582.24 232.15 581.72 231.06 581.22C229.98 580.69 228.92 580.18 227.88 579.68C226.85 579.17 225.86 578.61 224.88 578.1C224.41 577.79 223.95 577.49 223.49 577.19C223.03 576.89 222.64 576.52 222.23 576.2C215.6 570.95 210.19 566.98 206.52 564.21C204.69 562.84 203.27 561.78 202.3 561.05C201.83 560.69 201.47 560.42 201.22 560.23C200.95 560 200.83 559.89 200.83 559.89Z" fill="#375A64"/>
<path d="M266.1 597.99L288.85 607.26L292.64 611.5C294.96 614.1 298.87 614.25 301.37 611.85L330.1 584.32C331.54 582.94 331.44 580.44 329.76 579.38C329.12 578.98 328.34 578.81 327.39 579.16C324.25 580.33 298.43 586.94 298.43 586.94L281.14 572.65L266.1 597.99Z" fill="#E1E1E1"/>
<path d="M266.1 597.99C266.1 597.99 266.18 597.84 266.34 597.55C266.52 597.24 266.77 596.8 267.1 596.24C267.79 595.06 268.78 593.36 270.06 591.18C272.66 586.75 276.41 580.39 281 572.59L281.1 572.42L281.25 572.54C286.33 576.72 292.19 581.55 298.57 586.8L298.4 586.76C303.3 585.48 308.45 584.14 313.8 582.74C316.47 582.02 319.18 581.29 321.94 580.55C323.32 580.17 324.7 579.79 326.09 579.37C326.44 579.27 326.78 579.16 327.12 579.04C327.45 578.93 327.84 578.79 328.23 578.77C329.02 578.71 329.82 579.04 330.39 579.6C331.57 580.73 331.62 582.72 330.7 583.99C330.48 584.32 330.18 584.58 329.93 584.82L329.15 585.57C328.63 586.07 328.11 586.57 327.59 587.06C325.52 589.05 323.47 591 321.47 592.92C317.45 596.76 313.58 600.47 309.89 604C308.04 605.76 306.25 607.48 304.5 609.15C303.63 609.98 302.76 610.81 301.92 611.62C301.51 612.02 301.05 612.44 300.56 612.75C300.06 613.05 299.53 613.32 298.97 613.47C296.75 614.14 294.33 613.45 292.82 611.89C291.38 610.32 290.06 608.8 288.77 607.36L288.83 607.4C281.8 604.5 276.12 602.15 272.17 600.51C270.23 599.7 268.72 599.07 267.68 598.64C267.18 598.43 266.8 598.27 266.52 598.15C266.22 598.05 266.1 597.99 266.1 597.99C266.1 597.99 266.25 598.04 266.52 598.15C266.81 598.26 267.2 598.42 267.72 598.62C268.78 599.04 270.31 599.65 272.28 600.43C276.22 602.01 281.9 604.29 288.91 607.11L288.94 607.12L288.96 607.15C290.25 608.58 291.6 610.12 293.02 611.64C294.45 613.11 296.75 613.75 298.84 613.11C299.37 612.97 299.86 612.71 300.33 612.43C300.8 612.12 301.21 611.75 301.63 611.34C302.48 610.53 303.33 609.7 304.21 608.86C305.95 607.18 307.75 605.46 309.59 603.69C313.27 600.15 317.14 596.44 321.15 592.59C323.16 590.67 325.2 588.71 327.27 586.72C327.79 586.22 328.31 585.72 328.83 585.22C329.33 584.71 329.94 584.23 330.33 583.7C331.13 582.6 331.08 580.86 330.08 579.91C329.59 579.43 328.92 579.15 328.25 579.2C327.91 579.22 327.61 579.33 327.25 579.45C326.9 579.57 326.55 579.68 326.2 579.78C324.81 580.2 323.42 580.58 322.04 580.96C319.28 581.7 316.56 582.43 313.89 583.14C308.54 584.53 303.39 585.86 298.48 587.13L298.38 587.16L298.3 587.1C291.94 581.83 286.1 576.99 281.03 572.78L281.27 572.74C276.64 580.46 272.86 586.76 270.23 591.14C268.91 593.32 267.89 595.02 267.18 596.2C266.83 596.77 266.56 597.21 266.37 597.52C266.21 597.83 266.1 597.99 266.1 597.99Z" fill="#1A2E35"/>
<path d="M303.42 609.55C303.36 609.62 302.76 609.07 301.64 608.43C300.53 607.79 298.87 607.11 296.94 606.97C295.01 606.83 293.27 607.25 292.09 607.72C290.9 608.19 290.22 608.64 290.18 608.57C290.15 608.52 290.76 607.95 291.95 607.38C293.13 606.8 294.95 606.29 296.98 606.44C299.01 606.59 300.73 607.36 301.83 608.11C302.93 608.85 303.46 609.5 303.42 609.55Z" fill="#1A2E35"/>
<path d="M322.92 591.21C322.89 591.26 322.34 591 321.6 590.33C320.87 589.66 320.01 588.49 319.63 586.96C319.24 585.44 319.35 584.01 319.5 583.03C319.66 582.04 319.87 581.46 319.93 581.47C320.01 581.49 319.93 582.1 319.86 583.07C319.81 584.04 319.77 585.4 320.13 586.82C320.49 588.24 321.23 589.35 321.86 590.06C322.49 590.77 322.97 591.14 322.92 591.21Z" fill="#1A2E35"/>
<path d="M186.87 559.9C185.11 551.25 181.51 542.39 174.38 537.52C168.97 533.82 162.28 532.91 155.85 532.09C111.01 526.38 66.1699 520.67 21.3299 514.96C20.1299 536.92 29.1999 564.24 38.4499 584.03C39.8899 587.1 41.5499 590.24 44.2999 592.12C47.6499 594.41 51.9499 594.39 55.9699 594.28C101.22 593.09 146.49 591.09 191.49 585.96C188.96 577.53 188.63 568.56 186.87 559.9Z" fill="#375A64"/>
<path d="M70.8099 521.26C70.8099 521.29 70.2399 521.26 69.2299 521.15C68.1399 521.03 66.6899 520.87 64.9299 520.67C61.2999 520.24 56.2999 519.6 50.7799 518.81C45.2599 518.02 40.2699 517.23 36.6799 516.58C34.8799 516.25 33.4299 515.97 32.4299 515.75C31.4299 515.53 30.8799 515.39 30.8899 515.36C30.8999 515.33 31.4599 515.4 32.4699 515.56C33.5599 515.73 34.9999 515.96 36.7399 516.24C40.3499 516.8 45.3399 517.54 50.8599 518.33C56.3399 519.11 61.2999 519.81 64.9899 520.34C66.7399 520.6 68.1799 520.81 69.2699 520.98C70.2599 521.13 70.8199 521.23 70.8099 521.26Z" fill="#1A2E35"/>
<path d="M71.51 635.84C71.5 635.84 71.46 635.75 71.37 635.57C71.28 635.36 71.16 635.1 71 634.77C70.67 634.03 70.21 632.98 69.63 631.65C69.33 630.97 69.01 630.22 68.65 629.39C68.31 628.56 67.98 627.64 67.6 626.65C66.87 624.68 65.96 622.46 65.19 619.92C64.78 618.66 64.35 617.34 63.91 615.96C63.47 614.58 63.11 613.12 62.69 611.61C61.81 608.62 61.12 605.35 60.34 601.92C58.95 595.03 57.81 587.38 57.24 579.28C56.73 571.17 56.84 563.42 57.3 556.4C57.61 552.9 57.86 549.56 58.34 546.47C58.56 544.92 58.72 543.42 58.97 541.99C59.23 540.56 59.48 539.19 59.71 537.89C60.14 535.27 60.74 532.94 61.2 530.88C61.44 529.85 61.65 528.89 61.87 528.02C62.11 527.15 62.34 526.36 62.54 525.64C62.94 524.24 63.26 523.14 63.48 522.36C63.59 522.01 63.67 521.73 63.74 521.51C63.8 521.32 63.84 521.22 63.84 521.23C63.85 521.23 63.83 521.33 63.78 521.53C63.73 521.75 63.66 522.03 63.57 522.39C63.37 523.18 63.08 524.28 62.71 525.69C62.52 526.41 62.31 527.2 62.08 528.07C61.87 528.95 61.67 529.91 61.45 530.93C61.02 532.99 60.43 535.32 60.03 537.94C59.8 539.25 59.57 540.61 59.32 542.04C59.08 543.47 58.93 544.97 58.72 546.51C58.26 549.6 58.03 552.92 57.73 556.42C57.3 563.42 57.2 571.15 57.71 579.23C58.28 587.31 59.41 594.94 60.77 601.81C61.53 605.23 62.2 608.49 63.07 611.48C63.49 612.98 63.83 614.44 64.26 615.82C64.69 617.2 65.11 618.52 65.51 619.78C66.26 622.32 67.15 624.54 67.85 626.52C68.21 627.5 68.53 628.43 68.86 629.27C69.2 630.1 69.52 630.86 69.8 631.54C70.35 632.88 70.78 633.94 71.09 634.69C71.22 635.03 71.33 635.3 71.41 635.51C71.48 635.74 71.52 635.84 71.51 635.84Z" fill="#1A2E35"/>
<path d="M70.0799 591.59C70.0699 591.73 67.6999 591.72 64.7899 591.58C61.8699 591.44 59.5099 591.22 59.5199 591.08C59.5299 590.94 61.8999 590.95 64.8199 591.09C67.7299 591.23 70.0899 591.46 70.0799 591.59Z" fill="#1A2E35"/>
<path d="M68.8599 597.95C68.8399 598.07 66.3199 597.7 63.4299 596.48C60.5299 595.27 58.4699 593.72 58.5399 593.62C58.6199 593.49 60.7599 594.84 63.6099 596.02C66.4399 597.23 68.8899 597.81 68.8599 597.95Z" fill="#1A2E35"/>
<path d="M57.0799 554.22C57.1399 554.33 55.6299 555.13 53.5799 555.32C51.5299 555.53 49.8999 555.05 49.9399 554.93C49.9599 554.78 51.5699 555.04 53.5399 554.83C55.4999 554.65 57.0299 554.08 57.0799 554.22Z" fill="#1A2E35"/>
<path d="M59.76 552.12C59.79 552.24 57.95 552.53 55.9 551.62C53.84 550.73 52.76 549.16 52.87 549.1C52.97 548.99 54.15 550.34 56.09 551.17C58.01 552.03 59.76 551.97 59.76 552.12Z" fill="#1A2E35"/>
<path d="M107.13 402.48C106.54 400.64 104.9 399.3 103.1 398.77C101.3 398.24 99.36 398.44 97.57 398.99L80.09 403.13C82.59 404.85 87.82 406.52 90.81 406.85C95.17 407.33 98.24 407.37 100.84 405.82C101.37 407.68 103.8 408.5 105.43 407.55C107.07 406.59 107.72 404.31 107.13 402.48Z" fill="#1A2E35"/>
<path d="M281.72 592.34C281.69 592.46 279.31 591.87 276.5 590.77C273.68 589.68 271.52 588.49 271.57 588.39C271.62 588.27 273.85 589.26 276.65 590.35C279.45 591.44 281.76 592.21 281.72 592.34Z" fill="#1A2E35"/>
<path d="M285.58 584.6C285.52 584.71 283.56 583.63 281.1 582.41C278.64 581.18 276.6 580.27 276.65 580.15C276.69 580.04 278.81 580.76 281.29 582C283.76 583.23 285.64 584.5 285.58 584.6Z" fill="#1A2E35"/>
<path d="M146.37 529.79L181.61 530.24L224.15 521.51C225.53 521.23 226.58 520.08 226.79 518.65L232.57 478.98C232.86 477.02 231.22 475.34 229.33 475.66L185.84 482.99C184.6 483.2 183.65 484.23 183.49 485.51L178.64 525.85L146.42 525.69C145.32 525.68 144.43 526.61 144.43 527.74C144.43 528.85 145.29 529.76 146.37 529.79Z" fill="#E1E1E1"/>
<path d="M146.37 529.79C146.37 529.79 146.13 529.83 145.7 529.68C145.29 529.53 144.63 529.09 144.43 528.17C144.34 527.72 144.38 527.17 144.67 526.67C144.95 526.18 145.47 525.75 146.13 525.65C147.42 525.6 148.89 525.64 150.55 525.63C157.2 525.65 166.8 525.67 178.65 525.7L178.49 525.84C179.88 514.23 181.52 500.47 183.34 485.24C183.54 484.23 184.26 483.34 185.2 482.97C185.68 482.77 186.16 482.75 186.62 482.66L188.02 482.42C189.89 482.1 191.78 481.78 193.7 481.46C197.52 480.81 201.43 480.15 205.4 479.48C209.37 478.81 213.41 478.13 217.51 477.44C219.56 477.09 221.62 476.75 223.7 476.4C224.74 476.22 225.78 476.05 226.83 475.87L228.4 475.61C228.92 475.54 229.44 475.38 230.04 475.43C231.25 475.52 232.34 476.43 232.69 477.63C232.88 478.21 232.84 478.89 232.74 479.43L232.49 481.13C232.16 483.39 231.83 485.63 231.51 487.86C230.86 492.31 230.22 496.7 229.59 501C228.96 505.31 228.34 509.53 227.74 513.67C227.59 514.7 227.44 515.73 227.29 516.75C227.22 517.26 227.14 517.77 227.07 518.28C227.01 518.77 226.91 519.34 226.66 519.82C226.19 520.79 225.28 521.51 224.27 521.73C223.31 521.93 222.36 522.12 221.42 522.32C206.33 525.4 192.83 528.15 181.65 530.43H181.63H181.61C170.67 530.26 161.87 530.13 155.78 530.03C152.75 529.97 150.41 529.93 148.8 529.9C148.01 529.88 147.41 529.87 146.99 529.86C146.58 529.81 146.37 529.79 146.37 529.79C146.37 529.79 146.58 529.78 146.99 529.78C147.41 529.78 148.01 529.78 148.8 529.78C150.41 529.79 152.76 529.81 155.78 529.83C161.87 529.89 170.67 529.98 181.61 530.09H181.58C192.75 527.78 206.24 525 221.33 521.88C222.27 521.69 223.22 521.49 224.17 521.29C225.07 521.09 225.87 520.46 226.28 519.6C226.5 519.17 226.58 518.71 226.65 518.19C226.72 517.68 226.8 517.17 226.87 516.66C227.02 515.64 227.17 514.61 227.32 513.58C227.92 509.45 228.53 505.22 229.16 500.91C229.79 496.6 230.42 492.22 231.07 487.76C231.39 485.53 231.72 483.29 232.05 481.03L232.3 479.33C232.4 478.75 232.42 478.25 232.27 477.73C231.97 476.71 231.03 475.93 230 475.85C229.52 475.81 229 475.95 228.47 476.03L226.9 476.29C225.85 476.47 224.81 476.64 223.77 476.82C221.69 477.17 219.63 477.52 217.58 477.86C213.48 478.55 209.44 479.23 205.47 479.9C201.5 480.57 197.59 481.22 193.77 481.87C191.86 482.19 189.96 482.51 188.09 482.82L186.69 483.05C186.22 483.14 185.75 483.17 185.35 483.34C184.54 483.66 183.91 484.43 183.74 485.31C181.89 500.53 180.22 514.27 178.81 525.87L178.79 526.01H178.65C166.79 525.92 157.2 525.85 150.55 525.8C148.9 525.8 147.41 525.75 146.15 525.78C145.53 525.86 145.03 526.26 144.77 526.72C144.5 527.19 144.45 527.71 144.53 528.14C144.71 529.03 145.33 529.47 145.73 529.63C146.13 529.8 146.37 529.77 146.37 529.79Z" fill="#1A2E35"/>
<path d="M187.25 484.24C187.37 484.26 186.2 494.79 184.64 507.77C183.08 520.75 181.72 531.26 181.6 531.24C181.48 531.22 182.65 520.69 184.21 507.71C185.77 494.73 187.13 484.22 187.25 484.24Z" fill="#1A2E35"/>
<path d="M206.16 500.62C205.27 502.53 205.76 504.68 207.25 505.42C208.73 506.16 210.66 505.2 211.54 503.29C212.43 501.38 211.94 499.23 210.45 498.49C208.97 497.76 207.05 498.71 206.16 500.62Z" fill="white"/>
<path d="M593.75 498.65C593.76 498.65 593.73 498.76 593.67 498.96C593.6 499.18 593.51 499.48 593.39 499.86C593.13 500.65 592.76 501.81 592.25 503.3C591.24 506.28 589.72 510.58 587.71 515.84C583.67 526.33 577.68 540.75 569.2 555.62C567.17 559.38 565.31 563.12 563.9 566.91C562.48 570.69 561.58 574.51 561.07 578.19C560.07 585.58 560.47 592.35 561.04 597.95C561.63 603.56 562.41 608.07 562.91 611.19C563.17 612.73 563.37 613.93 563.51 614.78C563.57 615.17 563.62 615.48 563.66 615.71C563.69 615.92 563.7 616.03 563.7 616.03C563.69 616.03 563.67 615.93 563.62 615.72C563.57 615.49 563.51 615.18 563.43 614.79C563.27 613.95 563.04 612.75 562.75 611.22C562.2 608.11 561.37 603.61 560.74 597.99C560.14 592.38 559.7 585.59 560.69 578.14C561.19 574.43 562.09 570.57 563.52 566.76C564.93 562.94 566.8 559.18 568.83 555.41C577.31 540.55 583.32 526.19 587.43 515.73C589.48 510.49 591.03 506.21 592.09 503.25C592.61 501.78 593.02 500.64 593.31 499.84C593.45 499.47 593.55 499.17 593.63 498.95C593.7 498.75 593.74 498.65 593.75 498.65Z" fill="#1A2E35"/>
<path d="M586.03 548.34C586.04 548.35 585.95 548.51 585.77 548.82C585.56 549.16 585.3 549.61 584.96 550.15C584.26 551.31 583.21 552.96 581.91 555C579.32 559.08 575.62 564.65 571.91 571.02C570.06 574.22 568.43 577.33 567.05 580.22C565.66 583.11 564.57 585.79 563.7 588.05C562.85 590.32 562.19 592.18 561.79 593.48C561.59 594.09 561.42 594.58 561.29 594.97C561.17 595.31 561.1 595.48 561.09 595.48C561.08 595.48 561.12 595.29 561.21 594.94C561.32 594.55 561.46 594.05 561.63 593.43C561.99 592.11 562.6 590.24 563.42 587.94C564.26 585.65 565.33 582.95 566.7 580.04C568.07 577.13 569.7 573.99 571.55 570.79C575.28 564.4 579.01 558.86 581.67 554.82C582.98 552.84 584.06 551.22 584.83 550.05C585.19 549.52 585.48 549.09 585.7 548.76C585.91 548.48 586.02 548.33 586.03 548.34Z" fill="#1A2E35"/>
<path d="M593.67 498.65C593.87 496.63 591.76 494.61 589.92 493.9C588.08 493.19 586.03 493.42 584.11 493.86C572.99 496.41 563.8 506.35 561.82 517.97C566.95 515.34 572.24 513.02 577.64 511.04C577.34 511.13 577.03 511.22 576.73 511.31C581.95 510.26 586.65 506.7 589.2 501.87C589.69 500.94 590.12 499.94 590.87 499.22C591.6 498.5 592.78 498.12 593.67 498.65Z" fill="#375A64"/>
<path d="M593.68 498.63C598.75 495.05 605.15 493.44 611.19 494.56C617.23 495.68 622.79 499.61 625.74 505.18C628.68 510.75 628.82 517.89 625.83 523.44C623 517.35 619.97 511.01 614.7 507.02C613.47 506.09 612.07 505.23 611.38 503.82C610.57 502.18 610.9 500.16 610.21 498.47C609.36 496.39 607.02 495.78 604.84 495.66C602.66 495.55 596.34 497.63 593.68 498.63Z" fill="#375A64"/>
<path d="M593.54 498.53C598.78 496.92 604.7 499.57 608.26 503.63C611.82 507.69 613.63 513.14 614.25 518.59C614.86 524.04 614.37 529.55 613.84 535.01C609.75 528.69 606.69 521.66 604.82 514.31C603.98 510.98 603.36 507.55 601.85 504.48C600.34 501.43 596.83 499.03 593.54 498.53Z" fill="#375A64"/>
<path d="M593.37 498.65C597.55 496.64 599.91 492.12 600.45 487.37C600.99 482.63 599 477.66 595.38 474.71C591.21 478.64 589.61 485.23 591.48 490.74C592.36 493.34 593.97 495.96 593.37 498.65Z" fill="#375A64"/>
<path d="M559.93 586.53C559.92 586.53 559.83 586.31 559.67 585.88C559.5 585.45 559.3 584.8 558.98 583.99C558.37 582.35 557.42 580.02 556.12 577.19C553.53 571.53 549.44 563.95 544.31 556C539.18 548.04 534.04 541.18 529.96 536.56C527.92 534.25 526.16 532.48 524.83 531.41C524.17 530.87 523.62 530.5 523.24 530.26C522.85 530.05 522.64 529.93 522.65 529.92C522.66 529.91 522.87 530 523.28 530.19C523.68 530.4 524.25 530.75 524.93 531.28C526.3 532.32 528.11 534.07 530.18 536.36C534.33 540.95 539.52 547.8 544.66 555.77C549.8 563.74 553.86 571.36 556.39 577.07C557.66 579.92 558.57 582.29 559.14 583.94C559.44 584.76 559.62 585.42 559.76 585.86C559.88 586.3 559.94 586.53 559.93 586.53Z" fill="#1A2E35"/>
<path d="M574.98 636.03H546.39L541.93 601.75H580.3L574.98 636.03Z" fill="#E63430"/>
<path d="M601.77 560.6C598.88 554.18 591.46 549.99 584.65 550.57C586.17 551.2 587.1 552.83 587.48 554.48C587.86 556.13 587.79 557.85 587.92 559.53C588.53 567.64 593.57 574.55 598.41 580.96C601.81 585.46 605.23 589.98 609.29 593.85C608.81 582.32 608.11 570.1 601.77 560.6Z" fill="#375A64"/>
<path d="M584.65 550.66C588.97 547.21 594.56 545.78 600.02 545.72C605.48 545.66 610.87 546.88 616.17 548.27C619.35 549.1 622.58 550.03 625.3 551.93C628.02 553.83 630.18 556.89 630.24 560.29C625.75 555.18 618.52 554.19 612.11 552.27C607.77 550.96 603.58 549.1 599.15 548.14C594.73 547.18 588.57 548.31 584.65 550.66Z" fill="#375A64"/>
<path d="M585.39 549.74C583.49 547.68 584.54 542.86 586.19 540.58C587.84 538.3 590.47 537.03 593.06 536.07C596.47 534.81 600.02 533.96 603.61 533.53C603.25 535.87 601.92 537.96 600.27 539.6C598.62 541.25 596.66 542.51 594.72 543.75C591.62 545.76 588.5 547.75 585.39 549.74Z" fill="#375A64"/>
<path d="M567.6 546.97C562.18 549.43 557.98 554.02 553.94 558.5C559.94 556.99 565.71 554.51 570.99 551.19C573.09 549.87 575.17 548.39 577.57 547.83C579.97 547.28 582.66 548.38 584.66 550.1C581.26 544.93 573.02 544.51 567.6 546.97Z" fill="#375A64"/>
<path d="M565.05 583.69C568.08 576.48 566.8 567.75 570.65 560.97C573.6 555.78 579.04 552.71 584.45 550.52C585.71 554.43 585.11 558.78 583.52 562.55C581.93 566.32 579.4 569.59 576.73 572.64C573.04 576.86 569.04 580.76 565.03 584.66" fill="#375A64"/>
<path d="M582.07 601.75H539.31V609.46H582.07V601.75Z" fill="#E63430"/>
<path d="M580.64 609.71C580.64 609.83 571.39 609.93 559.97 609.93C548.55 609.93 539.3 609.83 539.3 609.71C539.3 609.59 548.55 609.49 559.97 609.49C571.39 609.49 580.64 609.59 580.64 609.71Z" fill="#1A2E35"/>
<path d="M595.64 498.95C594.14 496.26 592.63 493.55 590.67 491.21C588.71 488.86 586.24 486.87 583.36 486C579.51 484.83 575.37 485.76 571.52 486.94C567.02 488.33 562.62 490.06 558.38 492.12C563.93 494.31 570.23 494.43 575.85 492.44C578.79 491.4 581.65 491.54 584.74 491.9C588.49 492.35 593.2 495.96 595.64 498.95Z" fill="#375A64"/>
<path d="M493.47 544.64C486.73 553.52 484.49 565.38 485.24 576.65C489.19 561.72 497.65 548.1 509.15 538.2C513.54 534.42 519.16 531.42 524.61 531.42C513.41 530.39 500.42 535.48 493.47 544.64Z" fill="#375A64"/>
<path d="M509.12 526.8C505.36 527.09 501.93 529.06 498.82 531.27C494.06 534.65 489.6 538.92 487.53 544.49C495.82 534.17 509.34 528.64 522.2 530.32C518.1 528.21 513.68 526.46 509.12 526.8Z" fill="#375A64"/>
<path d="M519.65 513.47C517.47 515.03 515.81 517.6 515.92 520.35C516 522.23 516.89 523.99 518.08 525.41C519.27 526.83 521.17 528.8 522.63 529.92C524.01 523.59 525.67 516.98 527.05 510.65C524.46 511.18 521.83 511.9 519.65 513.47Z" fill="#375A64"/>
<path d="M532.38 512.86C529.44 514.81 526.82 517.44 525.39 520.74C523.96 524.04 523.36 528.2 525.17 531.3C530.3 523.41 535.92 515.5 541.84 508.23C538.59 509.56 535.32 510.9 532.38 512.86Z" fill="#375A64"/>
<path d="M543.18 523.73C536.44 523.17 529.5 526.31 525.33 531.83C528.1 530.35 531.82 529.54 534.91 529.95C543.2 531.06 551.42 532.64 559.54 534.68C556.28 528.55 549.92 524.29 543.18 523.73Z" fill="#375A64"/>
<path d="M526.11 531.29C519.76 531.65 514.21 536.71 511.99 542.88C509.77 549.05 510.53 556.05 512.93 562.15C515.33 568.25 519.25 573.57 523.4 578.55C525.49 571.13 527.58 563.67 528.5 556C529.41 548.34 528.72 538.54 526.11 531.29Z" fill="#375A64"/>
<g opacity="0.3">
<path d="M493.47 544.64C486.73 553.52 484.49 565.38 485.24 576.65C489.19 561.72 497.65 548.1 509.15 538.2C513.54 534.42 519.16 531.42 524.61 531.42C513.41 530.39 500.42 535.48 493.47 544.64Z" fill="black"/>
<path d="M509.12 526.8C505.36 527.09 501.93 529.06 498.82 531.27C494.06 534.65 489.6 538.92 487.53 544.49C495.82 534.17 509.34 528.64 522.2 530.32C518.1 528.21 513.68 526.46 509.12 526.8Z" fill="black"/>
<path d="M519.65 513.47C517.47 515.03 515.81 517.6 515.92 520.35C516 522.23 516.89 523.99 518.08 525.41C519.27 526.83 521.17 528.8 522.63 529.92C524.01 523.59 525.67 516.98 527.05 510.65C524.46 511.18 521.83 511.9 519.65 513.47Z" fill="black"/>
<path d="M532.38 512.86C529.44 514.81 526.82 517.44 525.39 520.74C523.96 524.04 523.36 528.2 525.17 531.3C530.3 523.41 535.92 515.5 541.84 508.23C538.59 509.56 535.32 510.9 532.38 512.86Z" fill="black"/>
<path d="M543.18 523.73C536.44 523.17 529.5 526.31 525.33 531.83C528.1 530.35 531.82 529.54 534.91 529.95C543.2 531.06 551.42 532.64 559.54 534.68C556.28 528.55 549.92 524.29 543.18 523.73Z" fill="black"/>
<path d="M526.11 531.29C519.76 531.65 514.21 536.71 511.99 542.88C509.77 549.05 510.53 556.05 512.93 562.15C515.33 568.25 519.25 573.57 523.4 578.55C525.49 571.13 527.58 563.67 528.5 556C529.41 548.34 528.72 538.54 526.11 531.29Z" fill="black"/>
</g>
<g opacity="0.2">
<path d="M601.77 560.6C598.88 554.18 591.46 549.99 584.65 550.57C586.17 551.2 587.1 552.83 587.48 554.48C587.86 556.13 587.79 557.85 587.92 559.53C588.53 567.64 593.57 574.55 598.41 580.96C601.81 585.46 605.23 589.98 609.29 593.85C608.81 582.32 608.11 570.1 601.77 560.6Z" fill="black"/>
<path d="M584.65 550.66C588.97 547.21 594.56 545.78 600.02 545.72C605.48 545.66 610.87 546.88 616.17 548.27C619.35 549.1 622.58 550.03 625.3 551.93C628.02 553.83 630.18 556.89 630.24 560.29C625.75 555.18 618.52 554.19 612.11 552.27C607.77 550.96 603.58 549.1 599.15 548.14C594.73 547.18 588.57 548.31 584.65 550.66Z" fill="black"/>
<path d="M585.39 549.74C583.49 547.68 584.54 542.86 586.19 540.58C587.84 538.3 590.47 537.03 593.06 536.07C596.47 534.81 600.02 533.96 603.61 533.53C603.25 535.87 601.92 537.96 600.27 539.6C598.62 541.25 596.66 542.51 594.72 543.75C591.62 545.76 588.5 547.75 585.39 549.74Z" fill="black"/>
<path d="M567.6 546.97C562.18 549.43 557.98 554.02 553.94 558.5C559.94 556.99 565.71 554.51 570.99 551.19C573.09 549.87 575.17 548.39 577.57 547.83C579.97 547.28 582.66 548.38 584.66 550.1C581.26 544.93 573.02 544.51 567.6 546.97Z" fill="black"/>
<path d="M565.05 583.69C568.08 576.48 566.8 567.75 570.65 560.97C573.6 555.78 579.04 552.71 584.45 550.52C585.71 554.43 585.11 558.78 583.52 562.55C581.93 566.32 579.4 569.59 576.73 572.64C573.04 576.86 569.04 580.76 565.03 584.66" fill="black"/>
</g>
<path d="M515.84 215.92H479.26C473.04 215.92 468 221.14 468 227.58V260.55C468 266.99 473.04 272.21 479.26 272.21H489.94L487.36 282.62L497.52 272.21H515.84C522.06 272.21 527.1 266.99 527.1 260.55V227.58C527.1 221.14 522.06 215.92 515.84 215.92Z" fill="#F8C6C5"/>
<path opacity="0.7" d="M515.84 215.92H479.26C473.04 215.92 468 221.14 468 227.58V260.55C468 266.99 473.04 272.21 479.26 272.21H489.94L487.36 282.62L497.52 272.21H515.84C522.06 272.21 527.1 266.99 527.1 260.55V227.58C527.11 221.14 522.06 215.92 515.84 215.92Z" fill="white"/>
<path d="M497.55 262.72C507.574 262.72 515.7 254.303 515.7 243.92C515.7 233.537 507.574 225.12 497.55 225.12C487.526 225.12 479.4 233.537 479.4 243.92C479.4 254.303 487.526 262.72 497.55 262.72Z" fill="#E63430"/>
<path d="M495.65 252.32C495.16 252.32 494.7 252.1 494.38 251.71L487.26 243.02C486.66 242.29 486.75 241.2 487.45 240.58C488.15 239.96 489.2 240.05 489.8 240.78L495.65 247.92L505.31 236.13C505.91 235.4 506.96 235.31 507.66 235.93C508.36 236.55 508.45 237.64 507.85 238.37L496.92 251.71C496.6 252.1 496.14 252.32 495.65 252.32Z" fill="white"/>
<path d="M413.52 342.41C413.59 343.08 413.12 343.62 412.47 343.62H400.83C400.18 343.62 399.59 343.08 399.51 342.41L396.91 318.62C396.84 317.95 397.31 317.24 397.96 317.24H409.6C410.25 317.24 410.84 317.95 410.92 318.62L413.52 342.41Z" fill="#1A2E35"/>
<path opacity="0.5" d="M409.63 318.47L412.26 342.49C412.33 343.17 411.99 343.63 411.34 343.63H401.47C400.81 343.63 399.6 343.25 399.52 342.58L396.89 318.48C396.82 317.8 397.95 317.26 398.61 317.26H408.48C409.13 317.25 409.55 317.79 409.63 318.47Z" fill="white"/>
<path d="M418.66 339.85C416.1 344.97 413.2 350.42 410.24 355.34C407.58 359.63 404.78 364.25 401.08 367.33C400.68 367.66 400.42 367.68 400.91 367.7C402.01 367.63 403.64 368.3 404.07 369.18C402.68 367.47 402.06 363.79 401.45 361.32C400.26 355.64 399.49 349.44 398.63 343.4C398.09 338.88 391.84 338.72 391.07 343.17C389.31 354.41 385.91 385.79 404.59 381.5C416.86 377.59 427.02 358.06 432.45 346.72C436.31 337.2 423.41 330.79 418.66 339.85Z" fill="#E63430"/>
<path d="M399.97 326.28L396.75 327.13C395.54 327.45 394.55 328.36 394.1 329.56L391.99 335.2C391.15 337.46 391.41 340 392.69 342.02L393.49 343.27C398.93 342.24 404.07 336.97 404.07 336.97L405.7 335.64C407.15 334.45 407.43 332.41 406.34 330.94L403.83 327.57C402.95 326.42 401.42 325.9 399.97 326.28Z" fill="#CC7A63"/>
<path d="M399.21 346.35C399.21 346.35 393.27 345.87 390.58 344.23L391.33 339.1L399.78 341.02L399.21 346.35Z" fill="#F8C6C5"/>
<path d="M399.21 346.35C399.21 346.35 393.27 345.87 390.58 344.23L391.33 339.1L399.78 341.02L399.21 346.35Z" fill="#F8C6C5"/>
<path opacity="0.6" d="M399.21 346.35C399.21 346.35 393.27 345.87 390.58 344.23L391.33 339.1L399.78 341.02L399.21 346.35Z" fill="#F8C6C5"/>
<path opacity="0.2" d="M411.22 377.87C411.95 377.29 412.61 376.7 413.24 376.1C414.61 374.78 415.82 373.46 416.97 372.12C419.24 369.46 421.15 366.7 422.98 363.94C423.12 363.73 423.26 363.5 423.39 363.29C421.23 359.64 419.01 357.21 419.01 357.21C419.01 357.21 412.48 365.72 411.22 377.87Z" fill="black"/>
<path d="M417.77 405.02H460.86C460.75 399.92 460.77 394.95 460.94 390.19C461.12 384.37 461.49 378.85 461.96 373.72C462.42 368.6 462.99 363.87 463.58 359.62C463.73 358.54 463.89 357.47 464.04 356.46C465.89 344.38 467.81 336.98 467.81 336.98C444.31 325.23 422.21 336 422.21 336C410.98 352.82 417.77 405.02 417.77 405.02Z" fill="#E63430"/>
<path opacity="0.2" d="M427.35 357.4C427.35 357.4 439.36 405.89 460.94 390.18C461.12 384.36 461.49 378.84 461.96 373.71C462.42 368.59 462.99 363.86 463.58 359.61C463.73 358.53 463.89 357.46 464.04 356.45C460.84 352.27 457.69 349.65 457.69 349.65C457.69 349.65 451.76 361.02 448.79 370.35C448.79 370.35 434.95 351.48 432.43 351.04C429.9 350.61 427.35 357.4 427.35 357.4Z" fill="black"/>
<path d="M398.37 515.07C398.93 515.78 399.49 516.47 400.05 517.15C403.17 521.78 406.87 527.15 410.94 532.95C415.7 539.78 420.95 547.19 426.24 554.71C428.07 557.31 429.92 559.93 431.75 562.53C437.2 570.27 442.56 577.92 447.37 584.93V584.94C448.6 586.73 449.8 588.5 450.95 590.2C459.48 602.77 465.61 612.52 466.31 615.72C467.55 617.05 472.6 613.32 473.21 611.37C473.21 611.37 467.59 590.86 455.91 565.26C455.1 563.47 454.25 561.65 453.38 559.81C447.76 548.05 440.91 535.47 432.8 523.47C431.77 521.93 430.71 520.41 429.63 518.89C425.86 513.6 421.85 508.49 417.57 503.63C419.34 500.82 421.03 498.09 422.64 495.39C423.44 494.04 424.23 492.71 425 491.39H425.01C427.56 487.01 429.91 482.77 432.09 478.68C432.6 477.73 433.08 476.79 433.57 475.87C439.94 463.66 444.66 452.85 448.16 443.76C448.38 443.21 448.58 442.65 448.78 442.11C455.83 423.42 457.51 412.51 457.51 412.51L431.17 407.04L428.67 406.53L420.86 404.92C420.86 404.92 416.31 418.88 410.9 437.56C410.43 439.18 409.96 440.84 409.47 442.53C407.47 449.55 405.4 457.09 403.43 464.7C401.75 471.21 400.13 477.77 398.72 484.12C398.63 484.53 398.54 484.92 398.45 485.33C397.27 490.59 396.23 495.69 395.41 500.47L395.38 500.55C394.05 505.6 395.14 511.04 398.37 515.07Z" fill="#CC7A63"/>
<path opacity="0.2" d="M426.24 554.71C428.07 557.31 429.92 559.93 431.75 562.53C437.2 570.27 442.56 577.92 447.37 584.93V584.94C448.6 586.73 449.8 588.5 450.95 590.2C452.44 583.74 454.31 574.92 455.9 565.25C455.09 563.46 454.24 561.64 453.37 559.8C447.75 548.04 440.9 535.46 432.79 523.46C431.76 521.92 430.7 520.4 429.62 518.88C429.12 527.3 428.1 541.13 426.24 554.71Z" fill="black"/>
<path d="M479.73 622.5L478.16 623.47L476.57 621.74L472.79 627.37L459.67 635.51C459.67 635.51 456.33 634.63 461.58 629.03C461.82 628.77 462.05 628.48 462.26 628.13C464.66 624.45 466.24 616.04 466.24 616.04L473.44 611.58C473.44 611.58 473.91 611.8 474.65 612.29C476.39 613.43 479.74 616.03 479.73 622.5Z" fill="#1A2E35"/>
<path d="M474.65 612.28C474.66 612.29 474.66 612.3 474.66 612.3C473.08 611.79 471.54 619.29 469.32 622.9C467.33 626.11 464.53 628.73 462.26 628.12C464.66 624.44 465.81 614.12 465.81 614.12L471.6 610.53C471.61 610.54 473.91 611.79 474.65 612.28Z" fill="#CC7A63"/>
<path d="M425.08 624.99C426.74 626.51 430.17 627.35 434.17 626.9C434.17 626.9 441.13 609.47 447.37 586.94V586.93C449.57 579 451.69 570.46 453.37 561.81C456.77 544.38 458.45 526.58 455.69 512.81C457.24 507.15 458.61 501.79 459.78 496.7C460.07 495.45 460.35 494.21 460.62 492.98H460.63C464.59 475.09 466.35 460.61 466.84 449.06C466.84 449.01 466.84 448.94 466.85 448.89C468.06 418.85 460.61 408.53 460.61 408.53L428.31 401.96C428.31 401.96 428.39 403.44 428.53 406.05C428.57 406.79 428.62 407.62 428.67 408.54C429.04 414.98 429.61 425.58 430.22 437.83C430.3 439.47 430.39 441.14 430.46 442.83C430.94 453.09 431.45 464.21 431.86 474.83C431.94 476.81 432.01 478.76 432.08 480.7C432.26 485.51 432.41 490.17 432.51 494.53C432.52 494.99 432.54 495.44 432.55 495.89C432.65 499.73 432.74 503.31 432.78 506.57C432.84 512.33 432.86 518.73 432.79 525.48C432.69 537.8 432.36 551.34 431.75 564.54C430.62 589.18 428.52 612.67 425.08 624.99Z" fill="#CC7A63"/>
<path opacity="0.2" d="M463.58 359.61C462.99 363.86 462.42 368.59 461.96 373.71C459.99 369.65 457.65 359.94 460.73 349.65L463.58 359.61Z" fill="black"/>
<path d="M419.52 339.1L422.85 339.12C424.1 339.13 425.27 339.76 425.99 340.82L429.35 345.77C430.69 347.75 431.03 350.28 430.25 352.56L429.77 353.97C424.25 354.32 418.04 350.49 418.04 350.49L416.15 349.6C414.47 348.81 413.73 346.89 414.44 345.2L416.09 341.3C416.65 339.97 418.02 339.08 419.52 339.1Z" fill="#CC7A63"/>
<path d="M445.52 328.42C459.03 328.41 460.73 339.93 460.73 339.93L454.41 337.11L435.84 349.97L431.28 336.99L425.55 338.09C425.56 338.1 433.78 328.43 445.52 328.42Z" fill="#5143D9"/>
<path opacity="0.6" d="M445.52 328.42C459.03 328.41 460.73 339.93 460.73 339.93L454.41 337.11L435.84 349.97L431.28 336.99L425.55 338.09C425.56 338.1 433.78 328.43 445.52 328.42Z" fill="#403F3F"/>
<path d="M434.08 635.02H432.26L431.75 632.69L425.71 635.51H410.42C410.42 635.51 407.99 632.98 415.27 630.96C415.6 630.87 415.94 630.74 416.3 630.55C420.18 628.66 425.71 622.3 425.71 622.3H434.1C434.1 622.3 434.39 622.74 434.79 623.55C435.71 625.46 437.3 629.47 434.08 635.02Z" fill="#1A2E35"/>
<path d="M434.8 623.55C434.8 623.56 434.8 623.58 434.8 623.58C433.69 622.3 428.65 627.92 424.96 629.83C421.66 631.53 417.96 632.28 416.31 630.56C420.19 628.67 426.3 620.44 426.3 620.44H433.05C433.05 620.43 434.4 622.73 434.8 623.55Z" fill="#CC7A63"/>
<path d="M417.37 401.43H460.81L461.98 407.22C461.98 407.22 478.45 431.46 466.03 489.77C466.03 489.77 429.8 488.67 396.89 481.36C396.89 481.36 409.37 425.4 417.1 406.27L417.37 401.43Z" fill="#1A2E35"/>
<path d="M447.86 406.41H462.43L461.55 402.11H447.86V406.41Z" fill="#F8C6C5"/>
<path d="M421.38 402.11H417.02L416.64 406.41H421.38V402.11Z" fill="#F8C6C5"/>
<path d="M446.44 402.11H422.83V406.41H446.44V402.11Z" fill="#F8C6C5"/>
<path opacity="0.6" d="M447.86 406.41H462.43L461.55 402.11H447.86V406.41Z" fill="#F8C6C5"/>
<path opacity="0.6" d="M421.38 402.11H417.02L416.64 406.41H421.38V402.11Z" fill="#F8C6C5"/>
<path opacity="0.6" d="M446.44 402.11H422.83V406.41H446.44V402.11Z" fill="#F8C6C5"/>
<path d="M435.93 406.74H429.41C429.01 406.74 428.68 406.41 428.68 406.01V402.51C428.68 402.11 429.01 401.78 429.41 401.78H435.93C436.33 401.78 436.66 402.11 436.66 402.51V406.01C436.66 406.42 436.34 406.74 435.93 406.74Z" fill="#F8C6C5"/>
<path d="M433.64 333.51C433.64 333.51 436.45 349.1 436.45 349.2L453.88 333.51C450.66 330.09 451.13 322.14 452.33 315.55C452.33 315.55 452.32 315.55 452.33 315.54C452.7 313.47 453.14 311.53 453.57 309.91L440.37 320.91C440.78 323.31 440.94 325.78 440.31 327.91C439.55 330.45 437.65 332.53 433.64 333.51Z" fill="#CC7A63"/>
<path opacity="0.2" d="M440.3 327.9C449.24 327.46 452.33 315.54 452.33 315.54C452.33 315.54 452.32 315.54 452.33 315.53C452.7 313.46 453.14 311.52 453.57 309.9L440.37 320.9C440.77 323.3 440.94 325.77 440.3 327.9Z" fill="black"/>
<path d="M425.19 295.99C425.19 295.99 420.11 294.53 421.25 290.88C422.38 287.23 424.15 287.1 424.15 287.1C424.15 287.1 421.13 282.67 423.14 277.71C425.15 272.75 430.7 274.19 430.7 274.19C430.7 274.19 430.25 268.84 435.13 267.41C440.01 265.98 442.53 270.58 442.53 270.58C442.53 270.58 445.52 265.71 450.57 266.5C455.63 267.28 457.26 274.33 457.26 274.33C457.26 274.33 461.67 272.2 464.44 277.11C467.21 282.02 464.44 286.22 464.44 286.22C464.44 286.22 467.46 284.38 468.97 289.53C470.48 294.68 465.57 299.84 465.57 299.84C465.57 299.84 468.47 299.93 467.33 303.96C466.19 307.99 461.54 308.51 461.54 308.51C461.54 308.51 463.43 309.29 460.28 312.81C457.13 316.33 445.7 312.81 445.7 312.81L425.19 295.99Z" fill="#1A2E35"/>
<path d="M437.95 286.35C427.46 287.92 424.89 294.24 425.68 305.56C426.67 319.7 431.06 329.2 443.76 324.24C461.01 317.52 455.38 283.74 437.95 286.35Z" fill="#CC7A63"/>
<path d="M432.38 303.94C432.38 303.94 431.32 307 429.95 308.9C429.95 308.9 431.05 310.24 432.89 309.72L432.38 303.94Z" fill="#B84D3C"/>
<path d="M438.68 302.09C438.78 302.99 439.34 303.65 439.91 303.58C440.49 303.51 440.87 302.72 440.77 301.83C440.67 300.93 440.11 300.27 439.54 300.34C438.96 300.41 438.57 301.19 438.68 302.09Z" fill="#1A2E35"/>
<path d="M439.78 300.35L437.81 299.82C437.81 299.82 438.94 301.34 439.78 300.35Z" fill="#1A2E35"/>
<path d="M427.9 303.24C428 304.14 428.56 304.8 429.13 304.73C429.71 304.66 430.09 303.87 429.99 302.98C429.89 302.08 429.33 301.42 428.76 301.49C428.18 301.56 427.8 302.35 427.9 303.24Z" fill="#1A2E35"/>
<path d="M429.01 301.5L427.04 300.97C427.03 300.98 428.16 302.5 429.01 301.5Z" fill="#1A2E35"/>
<path d="M442.52 295.99C442.64 295.99 442.76 295.94 442.85 295.84C443.02 295.65 443.01 295.36 442.82 295.18C440.77 293.22 437.74 294.07 437.61 294.11C437.37 294.18 437.23 294.44 437.3 294.68C437.37 294.93 437.62 295.07 437.85 295C437.88 294.99 440.53 294.26 442.2 295.86C442.3 295.95 442.41 295.99 442.52 295.99Z" fill="#1A2E35"/>
<path d="M425.99 297.23C426.1 297.23 426.2 297.19 426.29 297.11C428.18 295.36 429.88 295.68 429.96 295.7C430.21 295.75 430.44 295.59 430.49 295.34C430.54 295.09 430.39 294.84 430.14 294.79C430.05 294.77 427.94 294.33 425.69 296.42C425.5 296.59 425.49 296.89 425.66 297.08C425.74 297.18 425.86 297.23 425.99 297.23Z" fill="#1A2E35"/>
<path d="M451.97 302.95C451.97 302.95 445.82 294.75 445.6 287.75C445.6 287.75 423.58 282.06 425.6 304.08C425.6 304.08 420.86 284.97 438.84 281.84C456.79 278.71 460.56 306.05 452.37 315.59C452.38 315.59 455.79 308.08 451.97 302.95Z" fill="#1A2E35"/>
<path d="M450.58 305.5C450.41 303.74 451.74 300.52 454.93 300.4C458.23 300.28 460.75 306.96 452.89 309.84C451.76 310.25 450.94 309.18 450.58 305.5Z" fill="#CC7A63"/>
<path d="M435.35 315.87C436.4 315.87 440.19 315.59 441.35 311.58C441.42 311.33 441.29 311.07 441.05 311C440.81 310.93 440.56 311.07 440.49 311.31C439.35 315.23 435.33 314.95 435.15 314.94C434.9 314.92 434.68 315.11 434.67 315.37C434.65 315.63 434.83 315.85 435.08 315.87C435.09 315.86 435.19 315.87 435.35 315.87Z" fill="#1A2E35"/>
<path d="M455.49 298.59C451.78 285.27 431.42 275.73 425.54 292.18C425.54 292.18 426.52 286.2 431.42 281.59C431.42 281.59 450.56 273.92 456.04 296.77L455.49 298.59Z" fill="#F8C6C5"/>
<path d="M458.21 345.25C455.1 355.66 452.68 366.93 448.03 376.62C448.32 376.4 449.1 375.86 449.91 375.66C450.14 375.6 450.47 375.55 450.7 375.54C451.14 375.54 451.44 375.59 451.64 375.66C452.01 375.8 451.92 375.86 451.68 375.74C448.84 374 446.42 370.56 444.13 367.53C440.64 362.75 437.31 357.42 434.03 352.25C431.59 348.49 425.97 351.24 427.19 355.56C430.45 366.07 439.6 392.93 453.65 389.42C459.18 387.62 461.48 381.99 463.78 377.29C467.82 368.16 470.6 358.92 472.99 349.27C475.1 339.13 461.18 335.35 458.21 345.25Z" fill="#E63430"/>
<path d="M431.05 347.66C431.05 347.66 426.19 351.23 424.68 354.06L427.86 358.07L434.17 351.94L431.05 347.66Z" fill="#F8C6C5"/>
<path d="M431.05 347.66C431.05 347.66 426.19 351.23 424.68 354.06L427.86 358.07L434.17 351.94L431.05 347.66Z" fill="#F8C6C5"/>
<path opacity="0.6" d="M431.47 347.71C431.47 347.71 426.5 351.13 424.91 353.91L427.97 358.01L434.46 352.07L431.47 347.71Z" fill="#F8C6C5"/>
<path d="M467.81 336.97C472.13 339.65 475.34 342.22 472.79 349.65C469.76 358.48 456.49 352.86 456.49 352.86C456.49 352.86 456.56 345.91 459.24 342.39C461.92 338.87 467.81 336.97 467.81 336.97Z" fill="#F8C6C5"/>
</svg>
